<?xml version="1.0" encoding="utf-8"?>
<!-- Generator: Adobe Illustrator 16.0.3, SVG Export Plug-In . SVG Version: 6.00 Build 0)  -->
<!DOCTYPE svg PUBLIC "-//W3C//DTD SVG 1.1//EN" "http://www.w3.org/Graphics/SVG/1.1/DTD/svg11.dtd">
<svg version="1.1" id="Layer_3" xmlns="http://www.w3.org/2000/svg" xmlns:xlink="http://www.w3.org/1999/xlink" x="0px" y="0px"
	 width="800px" height="600px" viewBox="0 0 800 600" enable-background="new 0 0 800 600" xml:space="preserve">
<g>
	<g>
		<g>
			<path fill="#CC3B2D" d="M292.288,271.19c0,0-4.475-34.306-74.581,3.729c-70.104,38.036-64.138,98.446-59.664,110.379
				c4.475,11.933,37.291,69.358,131.26,26.849c0,0,61.902-23.12,45.494-54.443l21.629-15.41c0,0,81.292,10.935,131.259-46.491
				c0,0,8.949-12.678,10.44-32.07c0,0,9.696,27.876,26.849,28.108c17.155,0.232,110.378-46.008,93.226-107.909
				c0,0-18.644-57.427-127.531-13.424c0,0-32.068,7.459-12.678,42.511c0,0-28.341-38.036-100.683,9.695
				c0,0-46.985,23.865-49.223,44.748C325.849,288.345,292.288,271.19,292.288,271.19z"/>
			<path fill="#CC3B2D" d="M334.754,369.183c0,0,26.103,64.138,23.866,84.275c-2.238,20.136-12.68,48.476-20.138,64.884
				c-7.457,16.408-29.832,46.239-29.832,46.239s-55.053,58.919,25.053-3.729c0,0,44.307-72.343,39.832-106.649
				c-4.473-34.307,16.408-75.326-14.915-108.142C327.296,313.247,334.754,369.183,334.754,369.183z"/>
			<path fill="#CC3B2D" d="M409.996,353.04c0,0,40.544,46.84,43.654,64.474c3.113,17.633,0.769,44.493-1.889,60.44
				c-2.658,15.949-15.617,47.419-15.617,47.419s-35.611,65.197,22.135-10.178c0,0,22.254-73.521,9.314-101.236
				c-12.941-27.715-4.233-68.213-41.539-87.138C388.749,307.897,409.996,353.04,409.996,353.04z"/>
			<path fill="#CC3B2D" d="M485.509,311.377c0,0,31.629,53.209,47.119,62.727c15.49,9.519,41.177,17.887,56.802,21.761
				c15.622,3.874,48.729,4.842,48.729,4.842s71.171-5.571-16,15.214c0,0-74.977-9.205-96.949-31.13
				c-21.976-21.925-62.229-30.065-68.835-69.669C449.767,275.518,485.509,311.377,485.509,311.377z"/>
			<path fill="#CC3B2D" d="M349.729,220.646c0,0-15.417-60.001-28.141-72.599c-12.723-12.6-36.137-25.968-50.759-32.865
				c-14.625-6.896-47.874-14.163-47.874-14.163s-73.873-7.853,20.97-12.4c0,0,73.109,23.572,88.523,49.99
				c15.415,26.42,53.664,42.323,47.976,83.767C374.738,263.819,349.729,220.646,349.729,220.646z"/>
			<path fill="#CC3B2D" d="M427.097,191.616c0,0-6.954-61.508-0.363-78.453c6.589-16.943,21.997-39.133,32.106-51.662
				c10.105-12.527,35.899-33.305,35.899-33.305s60.075-38.57-21.94-2.453c0,0-54.177,52.643-58.437,83.39
				c-4.259,30.748-31.409,61.559-12.741,97.105C420.287,241.785,427.097,191.616,427.097,191.616z"/>
			<path fill="#CC3B2D" d="M287.222,267.453c0,0-39.901-56.594-58.062-65.579c-18.159-8.986-47.651-15.492-65.489-18.072
				c-17.838-2.579-55.028,0.153-55.028,0.153s-79.314,14.542,16.661-19.077c0,0,84.814,1.751,111.279,24.036
				c26.464,22.285,72.266,26.847,82.983,70.929C330.285,303.925,287.222,267.453,287.222,267.453z"/>
			<g>
				<path fill="#CC3B2D" d="M603.111,235.78c0,0,67.101,28.557,109.787-27.198l-7.757-8.248c0,0-35.85,50.355-98.87,23.621
					L603.111,235.78z"/>
				<circle fill="#CC3B2D" cx="711.327" cy="202.372" r="10.815"/>
			</g>
			<g>
				<path fill="#CC3B2D" d="M560.294,163.268c0,0-1.76-72.873,65.819-91.951l4.802,10.238c0,0-60.036,14.705-58.467,83.143
					L560.294,163.268z"/>
				<circle fill="#CC3B2D" cx="631.299" cy="75.101" r="10.814"/>
			</g>
		</g>
		<path fill="#741E17" d="M186.891,415.811c0,0-4.725-34.563-30.339-60.317c0,0,3.633-19.998,9.599-29.951
			c0,0,53.812,96.465,53.093,101.183C219.244,426.725,187.866,420.896,186.891,415.811z"/>
		<path fill="#741E17" d="M187.558,296.494c0,0,55.836,59.191,67.543,127.623c0,0,21.313-3.846,41.204-14.942
			c0,0-26.457-113.408-74.217-136.582C222.088,272.593,195.137,288.577,187.558,296.494z"/>
		<path fill="#741E17" d="M253.125,259.715c0,0,65,40.328,68.155,134.623c0,0,22.602-14.329,15.101-34.053
			c0,0-5.287-42.474-55.567-101.663C280.815,258.622,269.095,253.992,253.125,259.715z"/>
	</g>
	<path fill="#FF6666" d="M456.097,221.102c0,0,9.674-10.946,0.427-13.957c-9.246-3.009-106.708,19.675-118.144,67.771
		C338.379,274.916,410.667,213.859,456.097,221.102z"/>
	<path fill="#FF6666" d="M582.725,184.687c0,0,11.979-9.273,8.873-16.549c-3.104-7.276-69.521-18.788-105.457,34.286
		C486.141,202.423,562.801,157.978,582.725,184.687z"/>
	<path fill="#FF6666" d="M267.498,292.595c0,0,8.08-13.016,0.148-17.272c-7.931-4.257-90.686,18.303-99.696,77.254
		C167.95,352.577,228.648,281.03,267.498,292.595z"/>
</g>
</svg>
