<?xml version="1.0" encoding="utf-8"?>
<!-- Generator: Adobe Illustrator 16.0.3, SVG Export Plug-In . SVG Version: 6.00 Build 0)  -->
<!DOCTYPE svg PUBLIC "-//W3C//DTD SVG 1.1//EN" "http://www.w3.org/Graphics/SVG/1.1/DTD/svg11.dtd">
<svg version="1.1" id="icon" xmlns="http://www.w3.org/2000/svg" xmlns:xlink="http://www.w3.org/1999/xlink" x="0px" y="0px"
	 width="800px" height="600px" viewBox="0 0 800 600" enable-background="new 0 0 800 600" xml:space="preserve">
<g id="Shadow">
</g>
<g>
	<path fill="#7F8C8D" d="M253.674,535.317c0,0-75.361,7.81-42.877,29.465c0,0,13.375,11.464,128.662,15.286
		c115.286,3.822,215.285-3.822,222.93-16.561c7.643-12.738-6.652-21.02-33.9-24.841
		C501.241,534.846,253.674,535.317,253.674,535.317"/>
	<path fill="#27AE60" d="M422.03,106.154l25.05-13.92c0,0,50.823-91.552,187.865-69.738c0,0-52.652,84.648-184.48,74.075
		l-21.574,16.285L422.03,106.154z"/>
	<path fill="#FF3333" d="M352.197,120.833"/>
	<g>
		<g>
			<polygon fill="#754C24" points="421.66,105.932 452.91,34.432 452.273,27.444 465.273,18.944 475.023,29.444 465.273,37.632 
				436.523,106.444 			"/>
			<path fill="#E74C3C" d="M410.273,102.444c0,0-59.5-10-75.5-15.5c0,0-17-5.5-42,0s-121.999,46-135.999,154.5s-9,196,105.499,302
				c0,0,23.5,23,49.5,26s129.5,5,134,4s60.5,19,162.5-135c0,0,35.5-43,40.5-157.5c0,0-2.5-65.5-30-104
				c-21.805-30.527-41.355-44.877-65.5-58.5c-6.307-3.558-32.072-16.961-62.333-18.667
				C455.44,97.778,410.273,102.444,410.273,102.444z"/>
		</g>
		<path fill="#FFFFFF" d="M310.159,117.011c0,0-102.548,5.733-109.554,130.573c0,0,48.407-105.732,138.854-118.471L310.159,117.011z
			"/>
	</g>
</g>
</svg>
