<?xml version="1.0" encoding="utf-8"?>
<!-- Generator: Adobe Illustrator 16.0.3, SVG Export Plug-In . SVG Version: 6.00 Build 0)  -->
<!DOCTYPE svg PUBLIC "-//W3C//DTD SVG 1.1//EN" "http://www.w3.org/Graphics/SVG/1.1/DTD/svg11.dtd">
<svg version="1.1" id="apricot" xmlns="http://www.w3.org/2000/svg" xmlns:xlink="http://www.w3.org/1999/xlink" x="0px" y="0px"
	 width="800px" height="600px" viewBox="0 0 800 600" enable-background="new 0 0 800 600" xml:space="preserve">
<g>
	<path fill="#F2BC7B" d="M471.711,84.971c0,0-198.484-33.599-257.603,150.893s29.377,242.988,29.377,242.988
		s73.497,142.493,221.989,74.996s202.49-112.494,199.49-307.485C664.964,246.363,650.178,124.092,471.711,84.971z"/>
	<path fill="#E7A647" d="M421.563,176.895c0,0-181.702,47.219-178.257,302.537c0,0-42.385-236.483,172.088-310.407l29.737-12.637
		L421.563,176.895z"/>
	<path fill="#FD9176" d="M441.23,153.562c0,0,49.219-50.131,45.336-60.841c-3.883-10.709,77.761,22.187,82.361,28.237
		c0,0,11.137,18.123-27.535,18.366c-38.672,0.243-62.21,18.772-62.21,18.772L441.23,153.562z"/>
	<path fill="#FD9176" d="M421.563,176.895c0,0-146.344,46.041-103.011,136.041s236.667-131.333,236-150
		C554.552,162.936,555.239,145.521,421.563,176.895z"/>
	<path fill="#FD9176" d="M155.218,184.797"/>
	<path fill="#FD9176" d="M211.552,95.27"/>
	<path fill="#FD9176" d="M426.859,82.708c0,0-133.875-8.387-197.591,115.921c0,0-45.716,82.641,54.95-4.025
		s117.667-39.333,129.333-39.667c11.667-0.333,73.076-61.245,45.038-71.456L426.859,82.708z"/>
	<path fill="#27AE60" d="M444.099,151.113l6.306-19.051c0,0-18.28-29.156-72.716-46.604c0,0-145.093-9.714-224.842,46.813
		c0,0-13.809,4.579-17.928,2.071c0,0,19.376-21.037,23.935-29.823c0,0,55.652-125.697,200.473-54.88c0,0,11.963,6.249,23.77,27.887
		c0,0,42.778,15.305,73.01,51.049l-0.526,25.561L444.099,151.113z"/>
	<path fill="#FFCC99" d="M602.788,165c0,0,92.258,83.876,0,284.521c0,0,76.13-203.657-8.387-264.733c0,0-12.258-13.789,0-19.789
		H602.788z"/>
	<path fill="#754C24" d="M424.213,171.842l-0.649-16.041c0,0,50.953-10.003,59.623-94.188l16.265-8.916l0.81,19.974
		c0,0,2.483,87.795-75.775,101.763"/>
</g>
</svg>
