<?xml version="1.0" encoding="utf-8"?>
<!-- Generator: Adobe Illustrator 16.0.3, SVG Export Plug-In . SVG Version: 6.00 Build 0)  -->
<!DOCTYPE svg PUBLIC "-//W3C//DTD SVG 1.1//EN" "http://www.w3.org/Graphics/SVG/1.1/DTD/svg11.dtd">
<svg version="1.1" id="teeth" xmlns="http://www.w3.org/2000/svg" xmlns:xlink="http://www.w3.org/1999/xlink" x="0px" y="0px"
	 width="800px" height="600px" viewBox="0 0 800 600" enable-background="new 0 0 800 600" xml:space="preserve">
<g>
	<g>
		<g>
			<path fill="#463E3B" d="M15.713,289.397c0,0,58.085-1.307,81.002,53.151c0,0,58.194-0.04,74.938,53.545
				c0,0,95.212-122.662,226.067,91.445c0,0,130.134-184.122,215.504-77.452c0,0,35.318-74.595,81.885-44.652
				c0,0,14.976-76.689,87.614-48.961c0.519,0.198,1.04,0.401,1.563,0.609c0,0-48.746-135.297-162.764-120.884l-181.627,96.329
				l-90.255-8.216L205.638,182.008C205.638,182.008,90.933,168.197,15.713,289.397z"/>
			<path fill="#8C7A76" d="M195.738,169.669c0,0,6.662-4.964-6.931-16.911c-13.593-11.945,24.237,2.873,38.583,21.29
				c0,0,33.002,59.455,126.742,83.145c0,0-7.533-11.229-0.359-29.163c0,0-20.839-109.065-14.356-128.609
				c6.482-19.545,61.79,104.39,62.563,112.48c0,0,7.332-4.973,16.131-0.246c0,0,35.764-98.584,56.451-111.053
				c20.688-12.468-15.672,146.893-15.672,146.893s2.156,11.31-5.158,17.903c0,0,96.957-42.799,114.203-61.697
				c17.246-18.898,45.258-37.15,66.055-40.708c0,0-17.748,13.233-12.281,20.442c5.467,7.209,117.561-22.855,162.561,133.645
				l0.039,3.239c0,0-47.48-124.053-159-117.493c0,0,87.178,46.475,69.783,162.605c0,0-8.811-110.059-99.348-146.761
				c0,0,60.707,127.905,15.145,195.038c0,0,23.025-94.339-38.547-180.907c0,0-78.082,47.185-90.156,49.488
				c-12.072,2.304-29.986,22.022-29.986,22.022s-15.436,56.95-11.334,62.56c4.104,5.61,37.52,43.993,37.025,58.585
				c0,0,9.037,24.171,8.484,33.901s-14.457-27.328-14.457-27.328l3.109,33.981c0,0-7.836,4.422-10.502-33.869l-2.992,30.025
				c0,0-8.746-0.678-10.441-29.011c0,0,10.555-16.365-4.393-29.102L431.732,389.7c0,0-24.691,14.962-61.89-3.106
				c0,0-19.876,23.798-21.813,30.31c0,0,12.369,21.688-8.961,36.598c0,0-3.471-8.859,3.685-28.415l-15.171,23.729
				c0,0,2.439-20.293,9.071-27.687l-19.916,20.559c0,0,2.3-31.634,18.342-39.17l22.465-31.941c0,0,1.208-65.647-10.98-72.754
				c0,0-23.133-22.334-39.345-28.57c0,0-65.748-43.562-71.867-49.141c-6.12-5.578-56.56,102.142-63.718,175.982
				c0,0-10.294-126.24,46.645-197.598c0,0-96.859,50.608-122.557,147.564c0,0-7.698-79.141,93.504-159.275
				c0,0-116.869,8.884-173.533,102.614C15.693,289.397,66.593,164.344,195.738,169.669z"/>
		</g>
		<ellipse fill="#171516" cx="386.194" cy="242.172" rx="7.097" ry="7.894"/>
		<ellipse fill="#171516" cx="424.194" cy="243.284" rx="7.097" ry="7.894"/>
		<ellipse fill="#FFFFFF" cx="384.608" cy="240.18" rx="2.791" ry="3.104"/>
		<ellipse fill="#FFFFFF" cx="422.607" cy="241.292" rx="2.791" ry="3.104"/>
	</g>
	<g>
		<polygon fill="#463E3B" points="392,254.909 415.5,253.611 417.097,263.807 394.667,265.661 		"/>
	</g>
	<g>
		<polygon fill="#FFFFFF" points="392.957,254.792 395,263.344 395,256.356 412.833,254.792 413.833,261.862 414.494,253.667 		"/>
	</g>
</g>
</svg>
