<?xml version="1.0" encoding="utf-8"?>
<!-- Generator: Adobe Illustrator 16.0.3, SVG Export Plug-In . SVG Version: 6.00 Build 0)  -->
<!DOCTYPE svg PUBLIC "-//W3C//DTD SVG 1.1//EN" "http://www.w3.org/Graphics/SVG/1.1/DTD/svg11.dtd">
<svg version="1.1" id="boy" xmlns="http://www.w3.org/2000/svg" xmlns:xlink="http://www.w3.org/1999/xlink" x="0px" y="0px"
	 width="800px" height="600px" viewBox="0 0 800 600" enable-background="new 0 0 800 600" xml:space="preserve">
<g>
	<path fill="#212121" stroke="#FFFFFF" stroke-miterlimit="10" d="M275.493,573.964c1.224,7.907,16.73,11.823,34.637,8.747
		c17.907-3.078,31.432-11.984,30.208-19.891c-1.223-7.909-16.729-11.824-34.637-8.748
		C287.794,557.15,274.27,566.056,275.493,573.964z"/>
	<path fill="#212121" d="M435.616,557.209c-1.378,7.879,11.971,17.077,29.812,20.545c17.845,3.466,33.425-0.114,34.801-7.992
		c1.378-7.879-11.97-17.075-29.809-20.544C452.575,545.753,436.993,549.33,435.616,557.209z"/>
	<path fill="#7F94B0" d="M307.066,479.953c0,0-22.242,69.923-12.898,74.631c9.341,4.702,52.357,6.98,52.357,6.98l42.69-40.942
		l35.091,33.156c0,0,74.845,2.581,68.452-9c-6.395-11.583-16.079-65.677-16.079-65.677L307.066,479.953z"/>
	<path fill="#FFDBB2" d="M198.055,416.191c2.991,8.479,16.221,11.115,29.55,5.89c13.327-5.225,21.708-16.334,18.718-24.816
		c-2.992-8.478-16.222-11.112-29.551-5.887C203.444,396.603,195.064,407.714,198.055,416.191z"/>
	<path fill="#FFDBB2" d="M554.138,388.375c-3.234,8.377,4.818,19.754,17.988,25.404c13.174,5.654,26.473,3.445,29.71-4.936
		c3.234-8.377-4.82-19.753-17.991-25.405C570.673,377.788,557.374,379.995,554.138,388.375z"/>
	<path fill="#A9C265" d="M304.706,386.359c0,0-18.796,91.408,2.788,101.047c0,0,146.12,16.121,175.906,1.162
		c29.789-14.96,14.938-102.525,14.938-102.525l59.35,26.271l29.244-34.607c0,0-53.447-37.688-78.399-40.668
		c-24.953-2.981-48.159-6.952-48.159-6.952s-45.167,36.968-107.566-3.257l-66.022,21.688l-69.054,40.509l24.714,26.509
		L304.706,386.359z"/>
	<path fill="#FFDBB2" d="M572.096,198.926c2.31,83.708-66.746,153.742-154.238,156.426
		c-87.493,2.682-160.292-63.002-162.602-146.711c-2.31-83.708,66.745-153.743,154.238-156.425
		C496.987,49.534,569.786,115.218,572.096,198.926z"/>
	<path fill="#FFFFFF" d="M331.512,246.288c0.228,8.267-5.944,15.165-13.787,15.405c-7.843,0.241-14.386-6.268-14.614-14.534
		c-0.228-8.27,5.945-15.166,13.788-15.406C324.742,231.513,331.283,238.02,331.512,246.288z"/>
	<path fill="#FFFFFF" d="M508.864,246.431c0.229,8.266-5.944,15.165-13.787,15.405s-14.385-6.268-14.614-14.534
		c-0.227-8.269,5.945-15.165,13.789-15.406C502.094,231.656,508.636,238.162,508.864,246.431z"/>
	<path fill="#C14949" d="M311.809,289.694c0,0,113.994,75.16,190.159,2.597C501.968,292.292,401.179,309.428,311.809,289.694z"/>
	<path fill="#9DB2A3" d="M326.737,246.209c0.176,6.405-4.604,11.749-10.68,11.935c-6.075,0.186-11.143-4.855-11.321-11.26
		c-0.176-6.406,4.605-11.749,10.681-11.934C321.493,234.763,326.561,239.804,326.737,246.209z"/>
	<path fill="#9DB2A3" d="M504.726,246.209c0.177,6.405-4.603,11.748-10.679,11.935c-6.076,0.186-11.144-4.855-11.322-11.259
		c-0.176-6.407,4.606-11.75,10.681-11.934C499.481,234.763,504.55,239.804,504.726,246.209z"/>
	<circle fill="#212121" cx="314.733" cy="245.949" r="4.698"/>
	<circle fill="#212121" cx="491.662" cy="245.949" r="4.698"/>
	<path fill="#FAA191" d="M394.007,285.313l-2.994-2.749c0.343-0.375,8.531-9.165,19.049-8.868c5.945,0.17,11.35,3.183,16.062,8.956
		l-3.148,2.57c-3.927-4.81-8.304-7.321-13.008-7.463C401.306,277.489,394.079,285.234,394.007,285.313z"/>
	<g>
		<g>
			<path fill="#E0B6AA" d="M317.342,279.038c1.935,0,1.935-3,0-3S315.408,279.038,317.342,279.038L317.342,279.038z"/>
		</g>
	</g>
	<g>
		<g>
			<path fill="#E0B6AA" d="M325.875,272.638c1.935,0,1.935-3,0-3S323.94,272.638,325.875,272.638L325.875,272.638z"/>
		</g>
	</g>
	<g>
		<g>
			<path fill="#E0B6AA" d="M325.875,284.015c1.935,0,1.935-3,0-3S323.94,284.015,325.875,284.015L325.875,284.015z"/>
		</g>
	</g>
	<g>
		<g>
			<path fill="#E0B6AA" d="M345.073,276.194c1.935,0,1.935-3,0-3S343.139,276.194,345.073,276.194L345.073,276.194z"/>
		</g>
	</g>
	<g>
		<g>
			<path fill="#E0B6AA" d="M340.806,283.304c1.935,0,1.935-3,0-3S338.872,283.304,340.806,283.304L340.806,283.304z"/>
		</g>
	</g>
	<g>
		<g>
			<path fill="#E0B6AA" d="M333.696,281.17c1.935,0,1.935-3,0-3S331.762,281.17,333.696,281.17L333.696,281.17z"/>
		</g>
	</g>
	<g>
		<g>
			<path fill="#E0B6AA" d="M480.883,279.749c1.935,0,1.935-3,0-3S478.948,279.749,480.883,279.749L480.883,279.749z"/>
		</g>
	</g>
	<g>
		<g>
			<path fill="#E0B6AA" d="M487.993,275.482c1.935,0,1.935-3,0-3S486.059,275.482,487.993,275.482L487.993,275.482z"/>
		</g>
	</g>
	<g>
		<g>
			<path fill="#E0B6AA" d="M495.813,283.304c1.935,0,1.935-3,0-3S493.879,283.304,495.813,283.304L495.813,283.304z"/>
		</g>
	</g>
	<g>
		<g>
			<path fill="#E0B6AA" d="M507.191,279.038c1.935,0,1.935-3,0-3S505.257,279.038,507.191,279.038L507.191,279.038z"/>
		</g>
	</g>
	<g>
		<g>
			<path fill="#E0B6AA" d="M502.215,276.194c1.935,0,1.935-3,0-3S500.28,276.194,502.215,276.194L502.215,276.194z"/>
		</g>
	</g>
	<g>
		<g>
			<path fill="#E0B6AA" d="M511.457,271.216c1.935,0,1.935-3,0-3S509.522,271.216,511.457,271.216L511.457,271.216z"/>
		</g>
	</g>
	<path fill="#FFFFFF" d="M354.052,296.444c0,0,55.441,33.854,108.66,0.457C462.712,296.9,415.076,300.54,354.052,296.444z"/>
	
		<rect x="315.884" y="204.274" transform="matrix(0.1759 0.9844 -0.9844 0.1759 478.7756 -133.1752)" fill="#8C7A76" width="6.097" height="30.212"/>
	
		<rect x="495.746" y="205.291" transform="matrix(-0.2447 0.9696 -0.9696 -0.2447 834.5555 -209.2949)" fill="#8C7A76" width="6.098" height="30.212"/>
	<path fill="#8C7A76" d="M263.748,254.211c0,0,1.974-92.195,17.328-97.346c0,0,202.078,45.238,265.607-8.211
		c0,0,27.231,71.31,20.937,90.428c-6.296,19.118,26.786-59.166,3.188-100.58l24.94,19.725c0,0-10.1-52.461-44.362-70.854
		l17.52-0.537c0,0-44.784-54.036-165.433-48.465l31.399-20.911c0,0-73.115-10.075-82.732,27.677l-10.514-26.92
		c0,0-52.195,43.794-62.051,83.35l-17.722-20.075c0,0-11.462,42.963-1.326,55.989C270.662,150.506,237.408,201.208,263.748,254.211z
		"/>
</g>
</svg>
