<?xml version="1.0" encoding="utf-8"?>
<!-- Generator: Adobe Illustrator 16.0.3, SVG Export Plug-In . SVG Version: 6.00 Build 0)  -->
<!DOCTYPE svg PUBLIC "-//W3C//DTD SVG 1.1//EN" "http://www.w3.org/Graphics/SVG/1.1/DTD/svg11.dtd">
<svg version="1.1" id="carrot" xmlns="http://www.w3.org/2000/svg" xmlns:xlink="http://www.w3.org/1999/xlink" x="0px" y="0px"
	 width="800px" height="600px" viewBox="0 0 800 600" enable-background="new 0 0 800 600" xml:space="preserve">
<g>
	<path fill="#27AE60" d="M557.319,177.711c0,0,48.267-115.995,92.802-108.592c0,0,11.617,11.337-10.626,40.925
		c0,0,27.484-15.052,45.311-6.264c0,0-0.607,13.017-17.166,26.053c0,0,17.185-10.1,33.905-5.065c0,0,12.723,15.091-20.775,29.275
		c0,0,26.539-0.737,40.637,6.391c0,0,6.59,9.338-23.349,25.833c0,0,32.815-3.54,40.611,3.821c0,0,30.576,26.45-145.299,52.205
		L557.319,177.711z"/>
	<path fill="#E67E22" d="M61.135,475.887c0,0-14.88,52.779,40.017,55.303c54.898,2.522,484.743-149.04,507.112-241.031
		c0,0-5.461-80.397-72.333-141.068C469.059,88.419,83.197,447.339,61.135,475.887z"/>
	<path fill="#D35400" d="M112.876,514.189l-3.963-0.543c4.297-31.309-18.265-46.949-18.493-47.104l2.239-3.314
		C92.908,463.396,117.508,480.444,112.876,514.189z"/>
	<path fill="#D35400" d="M201.281,493.312l-3.999-0.076c1.249-66.178-40.822-81.797-41.247-81.947l1.331-3.771
		c0.468,0.165,11.592,4.192,22.618,16.863C190.074,435.977,201.96,457.349,201.281,493.312z"/>
	<path fill="#D35400" d="M285.144,465.066l-3.983-0.361c3.938-43.326-8.826-73.657-20.228-91.473
		c-12.37-19.326-25.858-28.531-25.993-28.622l2.229-3.321c0.574,0.385,14.202,9.654,27.021,29.612
		C275.985,389.266,289.195,420.51,285.144,465.066z"/>
	<path fill="#D35400" d="M394.827,414.669l-3.994-0.211c2.635-49.74-15.707-86.271-31.558-108.157
		c-17.17-23.707-35.114-35.758-35.293-35.877l2.212-3.333c0.756,0.502,18.73,12.577,36.32,36.864
		C378.744,326.364,397.524,363.762,394.827,414.669z"/>
	<path fill="#D35400" d="M517.281,359.765c-1.32-65.717-25.369-106.667-45.312-129.448c-21.544-24.611-42.93-33.82-43.144-33.911
		l1.557-3.685c0.906,0.382,22.452,9.663,44.597,34.96c20.38,23.281,44.956,65.08,46.302,132.002L517.281,359.765z"/>
</g>
</svg>
