<?xml version="1.0" encoding="utf-8"?>
<!-- Generator: Adobe Illustrator 16.0.3, SVG Export Plug-In . SVG Version: 6.00 Build 0)  -->
<!DOCTYPE svg PUBLIC "-//W3C//DTD SVG 1.1//EN" "http://www.w3.org/Graphics/SVG/1.1/DTD/svg11.dtd">
<svg version="1.1" id="cow" xmlns="http://www.w3.org/2000/svg" xmlns:xlink="http://www.w3.org/1999/xlink" x="0px" y="0px"
	 width="800px" height="600px" viewBox="0 0 800 600" enable-background="new 0 0 800 600" xml:space="preserve">
<g>
	<path fill="#EAC092" d="M351.073,427.743c0,0,10.644,61.022-29.802,85.149c0,0-39.737,34.059,9.225,37.606
		c0,0,65.532,17.02,50.15-31.582l22.936-73.434L351.073,427.743z"/>
	<path fill="#EAC092" d="M585.253,427.743l-18.47,62.821c0,0-43.993,40.777-12.063,43.615c0,0,72.178,13.48,51.345-34.77
		l3.775-56.056L585.253,427.743z"/>
	<path fill="#CC9FB6" d="M518.532,447.611c0,0-4.968,34.373,11.354,34.217c0,0,20.577-2.995,8.516-34.217
		C526.338,416.39,518.532,447.611,518.532,447.611z"/>
	<path fill="#FFC7E2" d="M478.087,404.328c0,0-3.549,32.641,7.095,44.703c0,0-3.546,32.243,9.226,32.797
		c0,0,16.32,6.939,15.61-27.829l38.316,2.127c0,0-5.244,25.151,7.806,25.702c0,0,23.415,4.812,17.029-27.829
		c0,0,31.932-15.611,9.225-61.024s-71.666-41.154-71.666-41.154L478.087,404.328z"/>
	<path fill="#F1D4AF" d="M225.962,317.544c0,0,34.172,91.644,156.929,124.992c0,0,36.955,28.438-6.329,81.655
		c0,0-20.55,31.959,39.055,32.668c59.604,0.71,32.654-26.951,26.977-52.495c0,0,18.457-86.563,53.227-110.688
		c0,0,65.944-39.021,86.521,14.906c0,0-0.34,39.03,22.66,70.961v24.401c0,0-36.621,55.045,25.111,52.929
		c61.734-2.115,43.55-29.08,37.164-49.657c0,0-9.801-34.229-5.542-69.978c4.258-35.749,67.771-44.973,13.341-240.815
		c0,0,58.424,85.858,54.877,125.594c0,0,5.294,31.978,0.172,54.66c0,0-3.882,35.457,47.395,43.262c0,0-31.926-30.466-34.055-43.262
		l-0.709-57.499c0,0-5.673-138.366-92.951-175.264c0,0-174.554-36.187-352.657,16.32L225.962,317.544z"/>
	<path fill="#936047" d="M306.056,161.691l0.946-4.269l85.292-17.688c0,0,149.776-14.808,159.751,29.078
		c9.975,43.887-127.005,29.258-165.571,64.5c-38.567,35.242-7.979,134.401-83.118,118.402
		C228.217,335.714,250.241,171.192,306.056,161.691z"/>
	<path fill="#936047" d="M477.52,257.915c0,0,62.556,65.804,125.061,4.974c62.506-60.829,65.832,1.068,61.841,17.33
		c-3.99,16.263,48.174,58.236,1.146,71.495c-47.027,13.258-176.692,29.429-176.692-4.257c0-33.687-19.948-63.608-45.881-32.356
		c-25.933,31.253-40.562-13.965-25.933-31.253S442.225,229.987,477.52,257.915z"/>
	<path fill="#936047" d="M593.294,134.945c0,0-2.019,50.763,33.225,44.779c35.243-5.984,41.106-27.262,41.106-27.262
		s-15.066-13.389-42.383-13.676L593.294,134.945z"/>
	<path fill="#F1D4AF" d="M403.582,43.866c-84.119-6.156-112.617,24.763-121.956,42.375c-24.85-9.695-75.492-22.04-141.363,0.652
		C127.57,69.212,96.638,45.842,22.505,51.267c0,0-4.129,57.652,90.897,89.402c-7.814,52.493-16.537,133.864-0.187,158.125
		c24.766,36.748,149.388,43.937,194.923,3.994c31.385-27.53,14.952-116.159,1.708-168.585
		C407.8,102.665,403.582,43.866,403.582,43.866z"/>
	<linearGradient id="SVGID_1_" gradientUnits="userSpaceOnUse" x1="104.6602" y1="265.0391" x2="104.6602" y2="265.0391">
		<stop  offset="0" style="stop-color:#0E0E0E"/>
		<stop  offset="0.5" style="stop-color:#000000"/>
		<stop  offset="0.5213" style="stop-color:#010101"/>
		<stop  offset="0.7262" style="stop-color:#0B0B0B"/>
		<stop  offset="1" style="stop-color:#0E0E0E"/>
	</linearGradient>
	<path fill="#FFFFFF" stroke="url(#SVGID_1_)" stroke-miterlimit="10" d="M104.66,265.039"/>
	<path fill="#EB5B72" d="M183.001,318.425c0,0-13.964,63.169,16.623,65.164c30.588,1.996,20.614-65.164,20.614-65.164"/>
	<path fill="#E3224F" d="M199.062,370.156c-5.773-8.425-0.919-41.641-0.346-45.4l4.181,0.637
		c-2.064,13.565-3.984,37.064-0.346,42.372L199.062,370.156z"/>
	<circle fill="#171516" cx="167.966" cy="164.823" r="11.304"/>
	<circle fill="#171516" cx="254.661" cy="164.823" r="11.304"/>
	<circle fill="#FFFFFF" cx="171.178" cy="161.691" r="4.269"/>
	<circle fill="#FFFFFF" cx="251.53" cy="161.691" r="4.27"/>
	<path fill="#F0CDD1" d="M104.66,255.841c0,0-23.716,75.079,103.867,74.896c127.584-0.183,117.363-62.209,117.363-72.429
		C325.891,248.087,205.542,200.864,104.66,255.841z"/>
	<circle fill="#CC9FB6" cx="154.262" cy="276.633" r="13.745"/>
	<circle fill="#CC9FB6" cx="261.045" cy="276.633" r="13.745"/>
</g>
</svg>
