<?xml version="1.0" encoding="utf-8"?>
<!-- Generator: Adobe Illustrator 16.0.3, SVG Export Plug-In . SVG Version: 6.00 Build 0)  -->
<!DOCTYPE svg PUBLIC "-//W3C//DTD SVG 1.1//EN" "http://www.w3.org/Graphics/SVG/1.1/DTD/svg11.dtd">
<svg version="1.1" id="dog" xmlns="http://www.w3.org/2000/svg" xmlns:xlink="http://www.w3.org/1999/xlink" x="0px" y="0px"
	 width="800px" height="600px" viewBox="0 0 800 600" enable-background="new 0 0 800 600" xml:space="preserve">
<g>
	<path fill="#CCA46E" d="M220.558,183.312c0,0-80.938,198.583-110.329,211.571l-22.557,44.43c0,0,21.19,2.734,30.076-10.253
		l7.519,4.784c0,0,16.405-8.201,17.088-14.354l15.038,5.468c0,0,13.67-8.886,13.67-18.455l10.253,11.62
		c0,0,20.506-18.456,19.823-28.025l13.67,15.722C214.809,405.819,284.407,256.773,220.558,183.312z"/>
	<path fill="#CCA46E" d="M252,426.898v73.686c0,0,31.586,22.802,53.459,5.714c0,0,10.95-17.087-21.06-24.606l2.115-42.139
		c0,0,62.918-102.77,76.588-107.555l-46.041-45.113L252,426.898z"/>
	<path fill="#CCA46E" d="M549.686,379.387l-5.691,51.776L571,524.535v21.312c0,0,56.686,29.27,62.154-4.907
		c0,0,6.271-22.556-26.539-24.606l-8.145-85.201c0,0,51.525-140.365,35.347-163.605L549.686,379.387z"/>
	<path fill="#E5C493" d="M501.208,132.406c0,0-44.43,27.341-223.514,15.038c0,0-47.847,15.039-58.784,38.962
		s-46.479,128.504-12.303,179.085c0,0,11.62,27.342-11.62,73.138c0,0,7.519,66.302,10.253,79.289l-1.367,20.506
		c0,0,30.076,34.177,70.404,0c0,0,7.519-22.558-27.341-23.24l-3.417-78.605c0,0,80.656-86.809,74.504-127.82
		c0,0,43.064,63.568,128.504,72.454l6.151,61.518l43.746,106.631l0.684,17.772c0,0,34.86,23.24,63.568-2.734
		c0,0-1.367-23.24-21.189-22.557l-23.924-103.896l12.987-58.101c0,0,60.912,5.717,74.997-9.511
		c8.225-8.892,40.52-26.032,39.152-167.523S501.208,132.406,501.208,132.406z"/>
	<path fill="#F3E0AD" d="M507.354,133.241c0,0-18.821,10.463-27.2,9.485l13.601,14.232c0,0-12.881,49.324-7.585,59.917
		c0,0,13.395-4.635,15.635-7.283c0,0-6.874,62.232,0,72.162c0,0,12.171-22.875,12.171-26.995c0,0,6.62,64.07,12.578,73.338
		c0,0,33.198-30.281,34.143-36.988c0,0-2.43,43.572,3.23,54.515c0,0,26.183-38.711,26.183-44.669c0,0,0.517,37.735,8.202,41.707
		c0,0,18.278-23.832,16.955-36.412c0,0,6.249,22.438,11.917,27.153c0,0,27.189-82.102,12.933-129.106
		C640.115,204.296,579.515,242.261,507.354,133.241z"/>
	<path fill="#E5C493" d="M560.73,39.466c0,0-61.573,51.534-58.839,97.534h6.945l-7.033,20.486c0,0,13.076,4.208,17.177,0.106
		c0,0-8.203,13.04-6.152,25.343c0,0-6.151,4.127,13.671,3.444l-0.684,23.253c0,0,13.67-4.095,16.404-11.613
		c0,0-2.051,29.395,1.367,36.914c0,0,18.565-21.871,17.144-23.921c0,0-4.156,26.658,6.78,33.493c0,0,18.455-17.771,17.771-25.29
		c0,0,0.001,27.341,7.52,35.544c0,0,15.037-25.974,14.354-29.392c0,0,2.05,12.303,8.202,20.506c0,0,12.987-12.303,11.62-23.24
		l8.887,8.886c0,0,10.253-6.152,7.519-15.721l4.101-21.189c0,0,41.013-89.649-4.101-161.42
		C643.383,33.188,604.531,11.674,560.73,39.466z"/>
	<path fill="#CCA46E" d="M584.093,29.285c0,0-52.112-24.209-103.939,49.175c0,0,23.178,49.173,38.088,58.338
		c0,0,14.495-33.174,15.353-48.387C533.594,88.412,568.281,26.771,584.093,29.285z"/>
	<path fill="#E7C178" d="M608.522,28.328"/>
	<path fill="#CCA46E" d="M603.547,26.083c0,0,57.37-21.7,108.531,56.149c0,0-27.84,48.832-44.391,57.325
		c0,0-13.541-34.678-13.541-50.248C654.146,89.31,620.661,24.428,603.547,26.083z"/>
	<path fill="#F3E0AD" d="M583.292,27.748c0,0,8.285,58.399-5.343,73.86c0,0-84.272-2.67-11.972,68.351
		c0,0,17.322,16.331,50.449,3.65c0,0,91.466-61.229-13.909-72.965c0,0-10.483-63.489-6.25-74.649L583.292,27.748z"/>
	<circle fill="#171516" cx="560.695" cy="89.478" r="8.073"/>
	<circle fill="#171516" cx="624.906" cy="89.477" r="8.073"/>
	<circle fill="#FFFFFF" cx="561.294" cy="88.153" r="2.632"/>
	<circle fill="#FFFFFF" cx="624.452" cy="88.153" r="2.632"/>
	<ellipse fill="#87644B" cx="597.263" cy="123.708" rx="20.379" ry="9.534"/>
	<path fill="#8C7A76" d="M570.873,139.038c0,0,20.918,13.37,28.08-3.583c0,0,2.049,16.173,23.143,3.583
		c0,0-2.5,17.201-23.143,17.863C598.953,156.901,577.34,158.911,570.873,139.038z"/>
	<path fill="#EB5B72" d="M583.18,153.726c0,0,13.228-6.875,28.284,0c0,0,4.988,44.611-14.142,48.583
		C597.322,202.31,576.913,203.785,583.18,153.726z"/>
	<rect x="596" y="151" fill="#E3224F" width="2" height="39"/>
</g>
</svg>
