<?xml version="1.0" encoding="utf-8"?>
<!-- Generator: Adobe Illustrator 16.0.3, SVG Export Plug-In . SVG Version: 6.00 Build 0)  -->
<!DOCTYPE svg PUBLIC "-//W3C//DTD SVG 1.1//EN" "http://www.w3.org/Graphics/SVG/1.1/DTD/svg11.dtd">
<svg version="1.1" id="donkey" xmlns="http://www.w3.org/2000/svg" xmlns:xlink="http://www.w3.org/1999/xlink" x="0px" y="0px"
	 width="800px" height="600px" viewBox="0 0 800 600" enable-background="new 0 0 800 600" xml:space="preserve">
<g>
	<path fill="#4A4135" d="M293.086,510.53l-22.639,35.117c0,0,49.489,16.613,67.139-3.089c0,0-8.396-23.105-17.561-28.55
		L293.086,510.53"/>
	<path fill="#4A4135" d="M509.054,505.145l-24.211,34.052c0,0,48.684,18.846,67.21-0.034c0,0-7.337-23.463-16.244-29.318
		L509.054,505.145"/>
	<path fill="#635652" d="M320.654,524.473l-29.26,34.124c0,0,52.447,22.852,74.313,4.256c0,0-6.396-25.047-15.817-31.749
		L320.654,524.473"/>
	<path fill="#635652" d="M621.719,520.979l-14.473,39.194c0,0,51.916,5.471,64.866-17.595c0,0-13.213-20.73-23.341-24.055
		L621.719,520.979"/>
	<path fill="#5F5149" d="M516.738,354.261c0,0-1.222,58.378,22.832,82.625c0,0-8.265,46.114-34.079,75.114h30.121
		c0,0,26.789-67.256,26.202-71.843c-0.587-4.586-0.588-34.278-11.147-36.899l21.708-53.837l-38.136-29.423L516.738,354.261z"/>
	<path fill="#5F5149" d="M289.907,337.363l14.935,99.351c0,0,8.441,55.558-10.39,73.233c0,0,12.338,22.871,40.26,10.533
		c0,0-16.233-62.338-12.337-81.818c0,0,14.935-72.078,8.441-79.87L289.907,337.363z"/>
	<path fill="#5F5149" d="M695.231,348.87c0,0-9.026,63.928,58.1,81.441C753.331,430.312,745.585,357.628,695.231,348.87z"/>
	<path fill="#A68E7A" d="M191.206,228.273l50,49.351c0,0,10.006,64.13,81.025,88.092c13.839,4.67,29.995,7.814,48.845,8.661
		c0,0,74.675,72.729,176.624-27.922c0,0,21.43,61.688,87.014,92.207c0,0,11.038,50-17.533,81.169c0,0,30.521,14.286,44.806-9.091
		c0,0-29.87-46.752,7.143-85.064c0,0-6.494-19.48-33.117-31.169c0,0-8.441-11.039,24.026-112.338c0,0-14.936-140.909-151.299-73.376
		c0,0-22.728,25.974-134.416-27.922c0,0-119.481-20.779-171.429-55.195L191.206,228.273z"/>
	<path fill="#A68E7A" d="M315.881,354l24.026,90.383c0,0,12.338,48.764-12.013,70.842c0,0-17.329,11.72,1.563,18.213
		c0,0,32.528,13.852,27.333-9.301c0,0,29.87-20.67,9.091-50.54L363.933,354H315.881z"/>
	<path fill="#A68E7A" d="M643.215,239.153c0,0,29.847-1.769,43.587,99.957c0,0,7.43,21.429,15.581,24.506
		c0,0,5.081-7.703-5.578-28.801c0,0-11.263-115.688-60.354-110.632C587.361,229.239,643.215,239.153,643.215,239.153z"/>
	<path fill="#4A4135" d="M127.825,123.515l7.021-6.751c0,0-32.898-70.652-60.25-80.257c-27.351-9.604-36.388-8.609-19.117,14.782
		L127.825,123.515z"/>
	<path fill="#A68E7A" d="M195.675,219.563c0,0-15.728,29.492-67.549,33.351c0,0-50.719,31.424-63.95,0
		c0,0-22.603-19.295,20.398-73.874c0,0,14.333-58.989,52.373-66.707C174.986,104.614,251.095,99.107,195.675,219.563z"/>
	<path fill="#77655C" d="M60.285,265.581c0,0-31.184-25.676,10.302-77.349c41.484-51.673,66.942,57.703,51.179,67.417
		C121.766,255.649,82.254,290.002,60.285,265.581z"/>
	<circle fill="#171516" cx="105.257" cy="156.78" r="11.039"/>
	<circle fill="#171516" cx="62.299" cy="227.822" r="6.997"/>
	<circle fill="#171516" cx="86.299" cy="231.822" r="6.997"/>
	<path fill="#77655C" d="M132.644,106.818c0,0-17.008,2.343-17.646,16.804c0,0,26.796-1.163,28.713-8.445l3.653,20.411
		c0,0,6.931-4.017,12.809-7.552c0,0-0.827,24.781,8.15,19.856c0,0,17.677-9.853,17.677-13.546s0,3.865,0,3.865
		s0.345,18.618,7.358,23.69c0,0,5.795,1.995,11.533-12.78c0,0,0.77,18.641,9.006,25.942c0,0,13.989-10.322,17.814-16.286
		c0,0-1.906,26.074,0.007,33.449c0,0,24.332-8.494,30.875-16.391c0.935-1.128,1.509-2.244,1.595-3.321
		c0.688-8.619-1.82,19.699,7.085,25.24c0,0,18.469-18.911,19.106-22.691c0,0,4.463,15.329,8.926,17.163
		c0,0,18.489-14.854,16.577-22.516L215.51,136.485C215.51,136.485,209.524,84.831,132.644,106.818z"/>
	<path fill="#4A4135" d="M180.829,116.851c0,0,51.948-83.829,97.403-86.993c0,0-21.917,53.003-85.228,92.142
		C193.004,122,184.887,129.504,180.829,116.851z"/>
	<circle fill="#171516" cx="146.257" cy="162.78" r="11.039"/>
	<circle fill="#FFFFFF" cx="141.552" cy="158.642" r="3.706"/>
	<circle fill="#FFFFFF" cx="101.552" cy="153.642" r="3.706"/>
	<path fill="#F0CDD1" d="M196.899,108.863c0,0,33.268-50.069,65.086-65.004C261.985,43.858,204.998,112.804,196.899,108.863z"/>
</g>
</svg>
