<?xml version="1.0" encoding="utf-8"?>
<!-- Generator: Adobe Illustrator 16.0.3, SVG Export Plug-In . SVG Version: 6.00 Build 0)  -->
<!DOCTYPE svg PUBLIC "-//W3C//DTD SVG 1.1//EN" "http://www.w3.org/Graphics/SVG/1.1/DTD/svg11.dtd">
<svg version="1.1" id="egg" xmlns="http://www.w3.org/2000/svg" xmlns:xlink="http://www.w3.org/1999/xlink" x="0px" y="0px"
	 width="800px" height="600px" viewBox="0 0 800 600" enable-background="new 0 0 800 600" xml:space="preserve">
<g>
	<ellipse fill="#7F8C8D" cx="410.681" cy="536.394" rx="137.338" ry="28.896"/>
	<path fill="#F89F65" d="M417.053,34.71c0,0,146.198,6.903,184.372,260.958c0,0,36.287,259.039-192.646,253.207
		c0,0-209.736,3.07-184.637-265.851C224.143,283.023,254.149,42.117,417.053,34.71z"/>
	<path fill="#F49460" d="M591.929,302.769c0,0,17.532,212.871-145.455,227.157c0,0-114.936-14.284-81.169-72.077
		c0,0,5.196-25.326,96.105,1.947c0,0,123.375-93.506,122.077-210.389L591.929,302.769z"/>
	<path fill="#ED9D7A" d="M393.227,53.303c0,0-105.844,21.429-148.701,205.195c0,0,77.838-140.26,114.568-151.948
		C359.094,106.549,511.409,44.212,393.227,53.303z"/>
	<path fill="#ED9D7A" d="M196.473,100.706"/>
</g>
</svg>
