<?xml version="1.0" encoding="utf-8"?>
<!-- Generator: Adobe Illustrator 16.0.3, SVG Export Plug-In . SVG Version: 6.00 Build 0)  -->
<!DOCTYPE svg PUBLIC "-//W3C//DTD SVG 1.1//EN" "http://www.w3.org/Graphics/SVG/1.1/DTD/svg11.dtd">
<svg version="1.1" id="head" xmlns="http://www.w3.org/2000/svg" xmlns:xlink="http://www.w3.org/1999/xlink" x="0px" y="0px"
	 width="800px" height="600px" viewBox="0 0 800 600" enable-background="new 0 0 800 600" xml:space="preserve">
<g>
	<path fill="#7B7F82" d="M592.522,387.404c0,0,27.299,137.178,24.569,163.794c0,0,62.106,10.236,66.201-3.412
		c0,0,8.872-144.001,5.459-156.286C688.752,391.5,651.897,325.98,592.522,387.404z"/>
	<path fill="#7B7F82" d="M289.381,301.48l-9.555,236.137c0,0,40.266,16.38,65.518-3.412c0,0,4.777-192.457,18.427-202.013
		S289.381,301.48,289.381,301.48z"/>
	<path fill="#7B7F82" d="M755.512,115.845c0,0-36.171-34.745-6.143-68.558C749.369,47.287,783.968,74.181,755.512,115.845z"/>
	<path fill="#C6D0D4" d="M698.866,151.773c0,0,49.821-12.042,51.186-40.023c0,0,4.096-9.555,8.873-4.095
		c4.777,5.459,6.824,41.146-49.139,55.72S698.866,151.773,698.866,151.773z"/>
	<path fill="#C6D0D4" d="M286.651,308.306c0,0,3.668,3.37,9.672,8.456c18.01,15.259,57.04,45.971,81.097,47.507
		c0,0,30.03,165.842,48.456,186.316c0,0,48.455,14.33,58.692-10.238c0,0-15.014-159.017-17.743-171.983
		c0,0,85.309,42.313,200.647,16.38c0,0,34.806,97.594,31.394,153.557c0,0,41.632,29.346,64.153-0.683
		c0,0,36.854-345.332-76.438-405.39c0,0-239.548-90.086-407.438-70.978C279.144,61.25,202.023,242.106,286.651,308.306z"/>
	<path fill="#7B7F82" d="M332.818,59.641c0,0,50.063-15.77,86.915-11.675c36.854,4.095,116.703,150.827,111.244,161.064
		c-5.46,10.237-186.116,84.626-198.159,81.897s-21.598-22.522-21.598-22.522L332.818,59.641"/>
	<path fill="#7B7F82" d="M229.68,57.47c0,0-50.063-15.77-86.916-11.675C105.911,49.89,26.062,196.623,31.521,206.859
		c5.459,10.238,186.116,84.627,198.159,81.898c12.042-2.729,21.598-22.523,21.598-22.523L229.68,57.47"/>
	<path fill="#ECE5CE" d="M234.238,264.244c0,0-40.645,100.986-107.342,75.613c0,0,9.721,18.779,46.908,9.589
		c37.188-9.191,77.96-81.819,77.96-81.819L234.238,264.244z"/>
	<path fill="#ECE5CE" d="M314.789,260.989c0,0,40.645,100.987,107.341,75.613c0,0-9.721,18.78-46.908,9.59
		c-37.187-9.192-77.96-81.819-77.96-81.819L314.789,260.989z"/>
	<path fill="#C6D0D4" d="M279.827,45.552c0,0-76.437,0.683-96.229,42.997c0,0-34.282,163.112,63.391,190.411
		c0,0,43.075,126.257-38.14,174.713c0,0-34.124,12.897-60.741-6.519c0,0,26.616,18.805,3.413,42.008
		c0,0,101.688,53.233,148.097-81.897c0,0,15.697-91.451,4.095-128.305c0,0,109.196-6.824,69.612-197.918
		C373.326,81.041,350.804,44.188,279.827,45.552z"/>
	<path fill="#BABEC1" d="M304.798,278.959c0,0,35.411,192.75-88.761,218.877c0,0-17.023-21.645,13.688-22.327
		c0,0,81.896-7.502,72.342-174.029C302.068,301.48,293.879,272.138,304.798,278.959z"/>
	<ellipse fill="#F0CDD1" cx="150.514" cy="469.086" rx="14.131" ry="21.158"/>
	<ellipse fill="#CC9FB6" cx="144.805" cy="468.866" rx="4.624" ry="9.776"/>
	<ellipse fill="#CC9FB6" cx="153.486" cy="469.952" rx="4.624" ry="9.775"/>
	<circle fill="#171516" cx="205.341" cy="151.773" r="11.602"/>
	<circle fill="#171516" cx="342.068" cy="151.773" r="11.602"/>
	<circle fill="#FFFFFF" cx="201.042" cy="146.388" r="4.382"/>
	<circle fill="#FFFFFF" cx="338.854" cy="146.388" r="4.382"/>
</g>
</svg>
