<?xml version="1.0" encoding="utf-8"?>
<!-- Generator: Adobe Illustrator 16.0.3, SVG Export Plug-In . SVG Version: 6.00 Build 0)  -->
<!DOCTYPE svg PUBLIC "-//W3C//DTD SVG 1.1//EN" "http://www.w3.org/Graphics/SVG/1.1/DTD/svg11.dtd">
<svg version="1.1" id="flower" xmlns="http://www.w3.org/2000/svg" xmlns:xlink="http://www.w3.org/1999/xlink" x="0px" y="0px"
	 width="800px" height="600px" viewBox="0 0 800 600" enable-background="new 0 0 800 600" xml:space="preserve">
<g>
	<path fill="#A1BF60" d="M417,256.519c0-6.914-5.604-12.519-12.518-12.519h-5.965c-6.913,0-12.518,5.605-12.518,12.519v110.963
		c0,6.914,5.604,12.519,12.518,12.519h5.965c6.913,0,12.518-5.604,12.518-12.519V256.519z"/>
	<g>
		<path fill="#A1BF60" d="M447.005,305.664c0,0,4.427-72.665,73.914-57.154C520.919,248.51,524.772,303.262,447.005,305.664z"/>
		<path fill="#90A662" d="M520.919,248.51c0,0,3.296,57.348-73.914,57.154L520.919,248.51z"/>
	</g>
	<path fill="#A1BF60" d="M450.625,301.873c1.113,1.324,0.943,3.298-0.381,4.41L415.12,335.83c-1.322,1.113-3.296,0.943-4.409-0.381
		l0,0c-1.112-1.323-0.942-3.296,0.381-4.408l35.123-29.548C447.538,300.38,449.512,300.551,450.625,301.873L450.625,301.873z"/>
	<g>
		<polygon fill="#98614D" points="496.648,567 305.175,567 284.101,410 517.773,410 		"/>
		<path fill="#702F35" d="M515.631,418.5c0,3.875-2.304,7.5-5.145,7.5H291.333c-2.842,0-5.145-3.625-5.145-7.5l0,0
			c0-3.876,2.303-7.5,5.145-7.5h219.154C513.327,411,515.631,414.624,515.631,418.5L515.631,418.5z"/>
		<path fill="#98614D" d="M527,405.482c0,6.913-5.605,12.518-12.52,12.518H285.52c-6.915,0-12.52-5.604-12.52-12.518v-24.965
			c0-6.913,5.605-12.518,12.52-12.518H514.48c6.914,0,12.52,5.604,12.52,12.518V405.482z"/>
	</g>
	<path fill="#E25D6A" d="M314.933,33.508c0,0-110.486,178.977,48.654,217.692C522.726,289.916,326.508,38.876,314.933,33.508z"/>
	<path fill="#E25D6A" d="M484.286,32.529c0,0,112.568,177.674-46.105,218.246C279.502,291.347,472.773,38.032,484.286,32.529z"/>
	<path fill="#E53E56" d="M399.182,48.84c0,0-147.113,190.903,0,206.657C399.182,255.497,547.826,254.333,399.182,48.84z"/>
</g>
</svg>
