<?xml version="1.0" encoding="utf-8"?>
<!-- Generator: Adobe Illustrator 16.0.3, SVG Export Plug-In . SVG Version: 6.00 Build 0)  -->
<!DOCTYPE svg PUBLIC "-//W3C//DTD SVG 1.1//EN" "http://www.w3.org/Graphics/SVG/1.1/DTD/svg11.dtd">
<svg version="1.1" id="foot" xmlns="http://www.w3.org/2000/svg" xmlns:xlink="http://www.w3.org/1999/xlink" x="0px" y="0px"
	 width="800px" height="600px" viewBox="0 0 800 600" enable-background="new 0 0 800 600" xml:space="preserve">
<g>
	<path fill="#E8CAAF" d="M510.664,54.381c0,0,18.645,168.788-54.604,226.055c0,0-259.699,95.891-273.017,111.206
		c0,0-51.94,4.662-81.239,30.632l-41.286,5.992c0,0-33.295,17.979,4.662,42.617c0,0-15.316,19.978-9.989,30.632
		c0,0,7.325,15.982,17.979,16.647c0,0,8.657,35.293,43.284,18.646c0,0,15.981,29.965,46.613,9.322c0,0,15.981,26.636,61.262-2.664
		c0,0,197.105-3.996,279.676-51.273c0,0,184.486,44.614,237.06-61.929c0,0,39.953-95.889-28.634-166.474
		c0,0-5.327-156.605,4.661-201.101C717.091,62.689,653.832,24.099,510.664,54.381z"/>
	<path fill="#E2BD9F" d="M70.719,471.173l-1.758-2.523c0.376-0.263,38.03-26.243,75.912-31.559l0.428,3.046
		C108.138,445.353,71.089,470.915,70.719,471.173z"/>
	<path fill="#E2BD9F" d="M90.697,501.982l-1.761-2.524c1.699-1.186,41.835-29.063,61.319-31.077l0.316,3.061
		C131.872,473.375,91.107,501.695,90.697,501.982z"/>
	<path fill="#E2BD9F" d="M131.2,521.013l-2.665-1.707c0.726-1.088,18.465-26.654,38.465-26.654v3.077
		C148,495.729,131.368,520.76,131.2,521.013z"/>
	<path fill="#E2BD9F" d="M181.013,515.449l-2.044-2.298c0.354-0.315,8.815-7.748,22.346-11.131l0.746,2.984
		C189.3,508.195,181.095,515.377,181.013,515.449z"/>
	<path fill="#E2BD9F" d="M663.153,323.747c0,0,12.652,43.948-50.607,67.921C612.546,391.668,700.444,377.685,663.153,323.747z"/>
	<path fill="#ECE5CE" d="M101.803,422.273c0,0-1.998,24.639-36.624,21.309c0,0-16.648-7.326-4.662-15.316L101.803,422.273z"/>
	<path fill="#ECE5CE" d="M69.84,468.886c0,0-22.493,16.354-15.682,29.017c0,0,12.674,10.271,24.832-18.362
		C78.991,479.54,83.513,473.753,69.84,468.886z"/>
	<path fill="none" stroke="#000000" stroke-miterlimit="10" d="M52.874,311.733"/>
	<path fill="#ECE5CE" d="M89.817,499.694l-16.647,18.468c0,0-1.332,13.317,16.647,5.993
		C89.817,524.155,109.209,505.384,89.817,499.694z"/>
	<path fill="#ECE5CE" d="M129.104,520.159c0,0-8.414,10.477-10.533,19.888c0,0,7.203,8.081,10.533,5.417
		C129.104,545.464,149.082,516.163,129.104,520.159z"/>
	<path fill="#ECE5CE" d="M179.992,514.3c0,0-12.833,7.4-17.822,15.807c0,0,6.565,10.13,11.259,8.633
		C173.429,538.739,205.047,516.891,179.992,514.3z"/>
</g>
</svg>
