<?xml version="1.0" encoding="utf-8"?>
<!-- Generator: Adobe Illustrator 16.0.3, SVG Export Plug-In . SVG Version: 6.00 Build 0)  -->
<!DOCTYPE svg PUBLIC "-//W3C//DTD SVG 1.1//EN" "http://www.w3.org/Graphics/SVG/1.1/DTD/svg11.dtd">
<svg version="1.1" id="fox" xmlns="http://www.w3.org/2000/svg" xmlns:xlink="http://www.w3.org/1999/xlink" x="0px" y="0px"
	 width="800px" height="600px" viewBox="0 0 800 600" enable-background="new 0 0 800 600" xml:space="preserve">
<g>
	<path fill="#D3966C" d="M277.803,252.076c0,0-45.282,45.371-9.529,115.012c0,0,5.709,36.764-29.596,62.443
		c0,0-22.318,0.99-7.989,27.703l12.528,52.207c0,0-0.968,3.396,18.944,11.549l19.171,9.348l11.571-5.059
		c0,0,9.603-11.516-1.023-17.195c-10.627-5.678-16.761-0.875-26.725-30.016c0,0-10.795-19.254,11.389-38.943
		c0,0,80.552-33.152,90.972-69.982C367.517,369.143,360.848,297.862,277.803,252.076z"/>
	<path fill="#D3966C" d="M587.348,314.006c0,0,4.384,145.951,16.285,165.369l13.155,33.826l33.824,9.396
		c0,0,27.563-15.66,5.639-24.43c0,0-20.673,13.154-25.057-21.299c0,0,3.758-116.51,21.297-150.336
		C652.491,326.533,618.667,285.818,587.348,314.006z"/>
	<path fill="#EBA470" d="M687.468,224.305c-6.264-42.597-97.704-31.351-97.704-31.351c-63.894,15.377-148.457,0.91-148.457,0.91
		c-199.822-10.65-224.877,75.793-224.877,75.793C33.521,264.02,22.247,439.41,22.247,439.41
		c200.448-7.516,218.497-100.225,218.497-100.225l9.993,1.998c7.096,14.91,18.823,30.496,37.729,44.982c0,0,22.551,33.201,0,74.543
		c0,0-21.298,11.275,5.011,30.693l36.332,45.102c0,0,0.626,3.758,23.804,2.504l23.004,0.256l8.942-10.277
		c0,0,4.041-15.66-8.942-16.285c-12.982-0.627-16.741,6.889-39.917-16.914c0,0-19.418-13.781-6.89-43.221
		c0,0,41.647-45.818,53.657-84.848l101.688,20.328c5.628,0.475,11.069,0.758,16.363,0.898
		c2.311,44.553,6.826,107.123,14.332,119.369l13.154,33.826l33.826,9.396c0,0,27.562-15.66,5.637-24.43
		c0,0-20.672,13.154-25.057-21.299c0,0,2.41-74.635,12.365-121.775C717.375,353.24,687.468,224.305,687.468,224.305z"/>
	<path fill="#FAEAC8" d="M21.282,439.41c0,0-3.466-27.645,28.021-86.17c0,0,48.445,30.422,44.977,78.654
		C94.279,431.895,74.055,438.156,21.282,439.41z"/>
	<g>
		<path fill="#EBA470" d="M691.466,226.427c45.497-9.308,87.365-53.105,87.365-53.105c-8.018-4.42-17.96-15.398-26.487-26.153
			c7.113-10.645,25.473-44.185,18.565-98.705c0,0-46.665,9.209-73.204,37.603c-9.305-4.256-19.614-6.644-30.478-6.644
			c-11.615,0-22.605,2.71-32.398,7.537c-26.917-25.858-70.007-34.365-70.007-34.365c-6.31,49.795,8.452,82.072,16.479,95.405
			c-8.376,10.484-18.019,21.016-25.827,25.322c0,0,42.059,43.99,87.678,53.161c7.553,2.626,15.646,4.072,24.075,4.072
			C675.718,230.555,683.865,229.089,691.466,226.427z"/>
		<path fill="#FAEAC8" d="M555.475,174.699c0,0,81.582-5.367,111.753,19.674c0,0,34.118-34.877,111.604-19.674
			c0,0-43.784,43.57-87.255,53.083c0,0-22.685,10.773-56.219-3.005C635.357,224.778,597.965,216.729,555.475,174.699z"/>
		<ellipse fill="#4C4C4C" cx="667.737" cy="188.284" rx="13.172" ry="10.455"/>
		<ellipse fill="#595959" cx="605.462" cy="154.559" rx="9.213" ry="9.695"/>
		<ellipse fill="#FFFFFF" cx="605.315" cy="147.667" rx="2.726" ry="2.869"/>
		<ellipse fill="#595959" cx="729.794" cy="154.559" rx="9.214" ry="9.695"/>
		<ellipse fill="#FFFFFF" cx="729.647" cy="147.667" rx="2.727" ry="2.869"/>
		<path fill="#E8945B" d="M571.614,66.069c0,0-1.636,58.874,16.032,70.235c0,0,12.761-9.295,12.107-21.69
			C599.754,114.615,576.85,73.299,571.614,66.069z"/>
		<path fill="#E8945B" d="M764.64,64.692c0,0,1.635,58.874-16.032,70.236c0,0-12.76-9.296-12.106-21.691
			C736.501,113.237,759.404,71.922,764.64,64.692z"/>
	</g>
</g>
</svg>
