<?xml version="1.0" encoding="utf-8"?>
<!-- Generator: Adobe Illustrator 16.0.3, SVG Export Plug-In . SVG Version: 6.00 Build 0)  -->
<!DOCTYPE svg PUBLIC "-//W3C//DTD SVG 1.1//EN" "http://www.w3.org/Graphics/SVG/1.1/DTD/svg11.dtd">
<svg version="1.1" id="girl" xmlns="http://www.w3.org/2000/svg" xmlns:xlink="http://www.w3.org/1999/xlink" x="0px" y="0px"
	 width="800px" height="600px" viewBox="0 0 800 600" enable-background="new 0 0 800 600" xml:space="preserve">
<g>
	<path fill="#FFDBB2" d="M471,540c0,6.627-5.373,12-12,12h-1c-6.627,0-12-5.373-12-12v-17c0-6.627,5.373-12,12-12h1
		c6.627,0,12,5.373,12,12V540z"/>
	<path fill="#FFDBB2" d="M349,539c0,6.627-5.373,12-12,12h-1c-6.627,0-12-5.373-12-12v-17c0-6.627,5.373-12,12-12h1
		c6.627,0,12,5.373,12,12V539z"/>
	<path fill="#A39081" d="M324.129,450.786l-28.949,62.994c0,0,91.558,31.013,207.571,0l-16.423-59.046L324.129,450.786z"/>
	<g>
		<path fill="#D8B6B6" d="M329.746,332.557l-92.13,52.874l7.961,18.093l85.943-40.658c0,0-7.088,41.135-11.786,92.135H488
			c0,0-0.036-69.381-5.28-95.107l70.703,35.605l10.513-18.321l-75.972-42.959C487.964,334.218,403.586,313.969,329.746,332.557z"/>
		<path fill="#212121" d="M287.493,561.814c1.224,7.907,16.73,11.823,34.637,8.747c17.907-3.078,31.432-11.984,30.208-19.891
			c-1.223-7.909-16.729-11.824-34.637-8.748C299.794,545.001,286.27,553.906,287.493,561.814z"/>
		<path fill="#212121" d="M441.616,551.06c-1.378,7.879,11.971,17.077,29.812,20.545c17.845,3.466,33.425-0.114,34.801-7.992
			c1.378-7.879-11.97-17.075-29.809-20.544C458.575,539.604,442.993,543.181,441.616,551.06z"/>
		<path fill="#FFDBB2" d="M198.055,413.042c2.991,8.479,16.221,11.115,29.55,5.89c13.327-5.225,21.708-16.334,18.718-24.816
			c-2.992-8.478-16.222-11.112-29.551-5.887C203.444,393.453,195.064,404.564,198.055,413.042z"/>
		<path fill="#FFDBB2" d="M554.138,385.226c-3.234,8.377,4.818,19.754,17.988,25.404c13.174,5.654,26.473,3.445,29.71-4.936
			c3.234-8.377-4.82-19.753-17.991-25.405C570.673,374.639,557.374,376.846,554.138,385.226z"/>
		<g>
			<path fill="#D3A7A7" d="M345.073,333l-4.267,11.443c0,0,67.231,36.828,132.116,2.635L469.419,333H345.073z"/>
		</g>
		<path fill="#FFDBB2" d="M572.096,195.777c2.31,83.708-66.746,153.741-154.238,156.426
			c-87.493,2.682-160.292-63.002-162.602-146.711c-2.31-83.708,66.745-153.743,154.238-156.425
			C496.987,46.385,569.786,112.069,572.096,195.777z"/>
		<path fill="#FFFFFF" d="M331.512,243.139c0.228,8.267-5.944,15.165-13.787,15.405c-7.843,0.241-14.386-6.268-14.614-14.534
			c-0.228-8.27,5.945-15.166,13.788-15.406C324.742,228.364,331.283,234.871,331.512,243.139z"/>
		<path fill="#FFFFFF" d="M508.864,243.282c0.229,8.266-5.944,15.165-13.787,15.405s-14.385-6.268-14.614-14.534
			c-0.227-8.269,5.945-15.165,13.789-15.406C502.094,228.507,508.636,235.013,508.864,243.282z"/>
		<path fill="#C14949" d="M328.324,294.13c0,0,89.552,57.43,149.46,1.871C477.784,296.001,398.556,309.172,328.324,294.13z"/>
		<path fill="#A39081" d="M329.737,243.061c0.176,6.405-4.604,11.749-10.68,11.935c-6.075,0.186-11.143-4.855-11.321-11.26
			c-0.176-6.406,4.605-11.749,10.681-11.934C324.493,231.614,329.561,236.655,329.737,243.061z"/>
		<path fill="#A39081" d="M504.726,243.061c0.177,6.405-4.603,11.748-10.679,11.935c-6.076,0.186-11.144-4.855-11.322-11.259
			c-0.176-6.407,4.606-11.75,10.681-11.934C499.481,231.614,504.55,236.655,504.726,243.061z"/>
		<circle fill="#212121" cx="319.733" cy="242.8" r="4.698"/>
		<circle fill="#212121" cx="492.662" cy="242.8" r="4.698"/>
		<path fill="#FAA191" d="M394.007,282.164l-2.994-2.749c0.343-0.375,8.531-9.165,19.049-8.868c5.945,0.17,11.35,3.183,16.062,8.956
			l-3.148,2.57c-3.927-4.81-8.304-7.321-13.008-7.463C401.306,274.34,394.079,282.085,394.007,282.164z"/>
		<g>
			<g>
				<path fill="#E0B6AA" d="M317.342,275.889c1.935,0,1.935-3,0-3S315.408,275.889,317.342,275.889L317.342,275.889z"/>
			</g>
		</g>
		<g>
			<g>
				<path fill="#E0B6AA" d="M325.875,269.489c1.935,0,1.935-3,0-3S323.94,269.489,325.875,269.489L325.875,269.489z"/>
			</g>
		</g>
		<g>
			<g>
				<path fill="#E0B6AA" d="M325.875,280.866c1.935,0,1.935-3,0-3S323.94,280.866,325.875,280.866L325.875,280.866z"/>
			</g>
		</g>
		<g>
			<g>
				<path fill="#E0B6AA" d="M345.073,273.045c1.935,0,1.935-3,0-3S343.139,273.045,345.073,273.045L345.073,273.045z"/>
			</g>
		</g>
		<g>
			<g>
				<path fill="#E0B6AA" d="M340.806,280.155c1.935,0,1.935-3,0-3S338.872,280.155,340.806,280.155L340.806,280.155z"/>
			</g>
		</g>
		<g>
			<g>
				<path fill="#E0B6AA" d="M333.696,278.021c1.935,0,1.935-3,0-3S331.762,278.021,333.696,278.021L333.696,278.021z"/>
			</g>
		</g>
		<g>
			<g>
				<path fill="#E0B6AA" d="M480.883,276.6c1.935,0,1.935-3,0-3S478.948,276.6,480.883,276.6L480.883,276.6z"/>
			</g>
		</g>
		<g>
			<g>
				<path fill="#E0B6AA" d="M487.993,272.333c1.935,0,1.935-3,0-3S486.059,272.333,487.993,272.333L487.993,272.333z"/>
			</g>
		</g>
		<g>
			<g>
				<path fill="#E0B6AA" d="M495.813,280.155c1.935,0,1.935-3,0-3S493.879,280.155,495.813,280.155L495.813,280.155z"/>
			</g>
		</g>
		<g>
			<g>
				<path fill="#E0B6AA" d="M507.191,275.889c1.935,0,1.935-3,0-3S505.257,275.889,507.191,275.889L507.191,275.889z"/>
			</g>
		</g>
		<g>
			<g>
				<path fill="#E0B6AA" d="M502.215,273.045c1.935,0,1.935-3,0-3S500.28,273.045,502.215,273.045L502.215,273.045z"/>
			</g>
		</g>
		<g>
			<g>
				<path fill="#E0B6AA" d="M511.457,268.067c1.935,0,1.935-3,0-3S509.522,268.067,511.457,268.067L511.457,268.067z"/>
			</g>
		</g>
		<path fill="#FFFFFF" d="M354.052,297.294c0,0,55.441,33.854,108.66,0.457C462.712,297.751,415.076,301.39,354.052,297.294z"/>
		
			<rect x="304.884" y="195.125" transform="matrix(0.4729 0.8811 -0.8811 0.4729 347.5453 -160.5113)" fill="#8C7A76" width="6.097" height="30.213"/>
		
			<rect x="508.746" y="195.142" transform="matrix(-0.5202 0.854 -0.854 -0.5202 957.5897 -117.4779)" fill="#8C7A76" width="6.097" height="30.212"/>
		<path fill="#754F36" d="M413.805,27.077c0,0-242.438-4.616-158.541,296.684c0,0-20.651,16.742-11.619,23.194
			s25.791,5.142,28.371-0.02s-1.944-23.246-1.944-23.246l12.254-55.695c0,0-9.551-52.688,14.965-89.463l162.708-7.1v-52.581
			l7.922,53.226L532,174.658c0,0,35.532,57.027,17.121,103.998l5.293,42.077c0,0-9.891,15.86-0.991,21.021l18.729,0.646
			c0,0,10.169-2.043-2.733-21.667C569.419,320.732,631.738,33.69,413.805,27.077z"/>
		
			<ellipse transform="matrix(0.9885 0.1512 -0.1512 0.9885 51.9643 -34.8774)" fill="#FF6950" cx="255.263" cy="324.169" rx="7.742" ry="6.774"/>
		
			<ellipse transform="matrix(0.9885 0.1512 -0.1512 0.9885 52.3734 -36.6495)" fill="#FF6950" cx="267.124" cy="325.983" rx="7.742" ry="6.774"/>
		
			<ellipse transform="matrix(0.9999 0.0121 -0.0121 0.9999 3.9399 -6.7113)" fill="#FF6950" cx="556.194" cy="322.004" rx="7.742" ry="6.774"/>
		
			<ellipse transform="matrix(0.9999 0.0121 -0.0121 0.9999 3.9425 -6.8565)" fill="#FF6950" cx="568.193" cy="322.148" rx="7.742" ry="6.774"/>
	</g>
	<line fill="none" stroke="#D3A7A7" stroke-width="8" stroke-miterlimit="10" x1="409" y1="357" x2="409" y2="455"/>
	<circle fill="#A39081" cx="393.894" cy="382.925" r="4.881"/>
	<circle fill="#A39081" cx="393.894" cy="408.925" r="4.881"/>
	<circle fill="#A39081" cx="393.894" cy="434.925" r="4.881"/>
</g>
</svg>
