<?xml version="1.0" encoding="utf-8"?>
<!-- Generator: Adobe Illustrator 16.0.3, SVG Export Plug-In . SVG Version: 6.00 Build 0)  -->
<!DOCTYPE svg PUBLIC "-//W3C//DTD SVG 1.1//EN" "http://www.w3.org/Graphics/SVG/1.1/DTD/svg11.dtd">
<svg version="1.1" id="goat" xmlns="http://www.w3.org/2000/svg" xmlns:xlink="http://www.w3.org/1999/xlink" x="0px" y="0px"
	 width="800px" height="600px" viewBox="0 0 800 600" enable-background="new 0 0 800 600" xml:space="preserve">
<g>
	<path fill="#936047" d="M274.131,365.781L277.251,539h19.986c0,0,15.653-180.815,33.473-186.517L274.131,365.781z"/>
	<path fill="#936047" d="M494.645,366.229l31.445,87.094L516.192,534h20.343c0,0,16.01-58.904,14.584-88.602
		c-1.426-29.699-22.81-102.495-22.81-102.495L494.645,366.229z"/>
	<path fill="#AF725A" d="M223.542,349.621L193.855,539h19.245c0,0,32.787-120.226,74.842-170.835
		C329.997,317.557,223.542,349.621,223.542,349.621z"/>
	<path fill="#AF725A" d="M469.591,362.768c0,0,11.539,82.01,10.826,85.573C479.704,451.905,469.86,537,469.86,537h17.278
		c0,0,26.915-85.807,25.489-102.914s0.055-80.564,0.055-80.564L469.591,362.768z"/>
	<path fill="#936047" d="M223.122,310.248c0,0-46.331-9.394-55.598-44.32c0,0,22.097,12.83,21.384,2.852
		c0,0-30.649-15.682-40.629-40.629c0,0,94.801,7.841,94.801,57.736L223.122,310.248z"/>
	<path fill="#F1D4AF" d="M263.066,253.85c0,0-87.024,12.948-53.523,140.668l-0.744,42.91c0,0,36.998-23.6,34.837-39.271
		c0,0,15.748,36.67,19.311,39.131c3.563,2.46,32.971-28.489,32.639-37.588c0,0,19.389,40.688,25.091,42.255
		c5.703,1.567,20.67-27.432,26.372-39.185c0,0,15.682,34.597,18.533,39.237c2.851,4.641,22.809-29.84,24.234-39.244
		c0,0,10.692,33.89,23.521,39.668c0,0,20.67-18.511,24.234-33.397c0,0,7.841,20.37,15.682,28.207c0,0,42.553-22.724,43.373-38.003
		c0,0-0.605,16.847,15.788,27.816c0,0,16.396-19.589,19.958-36.044c0,0,8.553,29.776,16.394,28.209c0,0,44.194-71.343,17.107-165.37
		L561.597,159h-38.234C523.362,159,536.192,275.127,263.066,253.85z"/>
	<path fill="#AF725A" d="M500.116,101.379c0,0-83.549,148.777,26.237,159.209c0,0,141.345,19.043,44.979-164.16
		C571.333,96.428,516.762,72.592,500.116,101.379z"/>
	<path fill="#936047" d="M513.862,257.788c0,0-2.727,26.374-11.921,34.927l11.921-12.117c0,0-1.562,21.384-3.797,25.66
		l19.887-24.234l7.105,24.234l5.637-24.234l15.495,9.266c0,0-5.108-26.371-5.108-37.064
		C553.081,243.533,507.829,244.958,513.862,257.788z"/>
	<path fill="#F1D4AF" d="M500.116,99.184c0,0-83.549,148.776,26.237,159.209c0,0,141.345,19.043,44.979-164.16
		C571.333,94.232,516.762,70.396,500.116,99.184z"/>
	<path fill="#936047" d="M494.627,93.695l-69.492,14.01c0,0,47.377,41.67,77.482,15.621
		C532.721,97.277,494.627,93.695,494.627,93.695z"/>
	<path fill="#936047" d="M591.398,99.828l60.322,37.238c0,0-58.887,22.656-78.091-12.215S591.398,99.828,591.398,99.828z"/>
	<circle fill="#171516" cx="508.685" cy="152.449" r="11.736"/>
	<circle fill="#171516" cx="561.375" cy="152.449" r="11.736"/>
	<circle fill="#FFFFFF" cx="509.92" cy="149.293" r="3.43"/>
	<circle fill="#FFFFFF" cx="561.512" cy="148.196" r="3.431"/>
	<ellipse fill="#CC9FB6" cx="534.549" cy="222.063" rx="20.351" ry="12.802"/>
	<path fill="#ECE5CE" d="M529.255,85.294l-45.708-51.32c0,0,13.865,61.683,36.628,63.939
		C542.937,100.17,529.255,85.294,529.255,85.294z"/>
	<path fill="#ECE5CE" d="M552.387,85.294l45.709-51.32c0,0-13.866,61.682-36.628,63.939
		C538.706,100.171,552.387,85.294,552.387,85.294z"/>
	<path fill="#361B03" d="M182.45,559.882c0,0,5.189-27.798,15.425-27.085s16.15,2.479,16.15,2.479s8.342,18.19,6.203,24.606
		S182.45,559.882,182.45,559.882z"/>
	<path fill="#361B03" d="M265.875,563.175c0,0,5.189-27.798,15.425-27.085s16.15,2.479,16.15,2.479s8.342,18.19,6.202,24.606
		C301.515,569.591,265.875,563.175,265.875,563.175z"/>
	<path fill="#361B03" d="M457.972,562.077c0,0,5.189-27.798,15.425-27.085c10.234,0.713,16.149,2.479,16.149,2.479
		s8.343,18.19,6.203,24.606C493.611,568.493,457.972,562.077,457.972,562.077z"/>
	<path fill="#361B03" d="M506.271,558.784c0,0,5.188-27.798,15.424-27.085s16.15,2.478,16.15,2.478s8.342,18.191,6.202,24.607
		C541.909,565.2,506.271,558.784,506.271,558.784z"/>
</g>
</svg>
