<?xml version="1.0" encoding="utf-8"?>
<!-- Generator: Adobe Illustrator 16.0.3, SVG Export Plug-In . SVG Version: 6.00 Build 0)  -->
<!DOCTYPE svg PUBLIC "-//W3C//DTD SVG 1.1//EN" "http://www.w3.org/Graphics/SVG/1.1/DTD/svg11.dtd">
<svg version="1.1" id="hand" xmlns="http://www.w3.org/2000/svg" xmlns:xlink="http://www.w3.org/1999/xlink" x="0px" y="0px"
	 width="800px" height="600px" viewBox="0 0 800 600" enable-background="new 0 0 800 600" xml:space="preserve">
<g>
	<path fill="#E8CAAF" d="M369.688,561.939l-23.622-54.101c0,0-56.388-79.6-64.008-87.219c-7.62-7.62-21.469-78.523-19.12-111.243
		c2.253-31.382,12.186-63.048,11.439-69.762c-1.524-13.715,3.871-32.767,15.301-35.813c0,0,28.193-5.334,25.146,37.338
		c0,0-1.523,39.624-3.81,57.149c0,0,3.925,10.668,7.297-1.523c0,0,8.827-112.455,8.065-121.6
		c-0.763-9.144-0.123-114.62,8.26-116.906c0,0,14.479-12.954,32.004,0c0,0,6.507,71.537,4.222,116.495
		c0,0,2.374,67.666,4.089,76.047c1.718,8.382,6.929,1.584,6.929-1.463c0,0,0.366-42.318-0.706-94.352
		c-1.135-54.983-3.6-112.953,0.706-118.825c0,0,22.86-14.477,40.387,0c0,0-0.951,57.808,1.946,116.828
		c2.074,42.26,7.67,91.228,9.956,103.39c0,0,0.229,7.559,5.563-0.823c0,0,0.104-34.988-1.697-82.71
		c-1.835-48.64-3.214-107.708-1.291-110.015c0,0,19.672-27.021,40.387,0.762c0,0,0.031,57.186,1.957,109.158
		c1.852,49.932,5.632,94.51,4.139,104.963c0,0-0.001,1.524,5.334-0.762c0,0,3.521-37.337,4.092-74.961
		c0.572-37.624-5.326-75.533-3.04-76.676c0,0,18.404-26.259,36.286,0c0,0,3.197,40.205,3.271,80.008
		c0.069,37.72,5.396,103.72,4.351,112.428c0,0-6.097,71.216-27.434,136.747c0,0,19.813,82.296,31.242,97.536
		C537.327,552.034,448.174,590.134,369.688,561.939z"/>
	<path fill="#ECE5CE" d="M273.748,239.115c0,0,14.634,12.329,31.682-1.346l-1.178-28.322c0,0-16.639-17.001-27.77,1.156
		L273.748,239.115z"/>
	<path fill="#ECE5CE" d="M332.462,61.781c0,0,2.174,28.132,7.508,28.894c0,0,25.405,14.24,22.228-34.028
		C362.197,56.646,344.767,42.031,332.462,61.781z"/>
	<path fill="#ECE5CE" d="M381.879,34.988c0,0,0,23.623,6.859,30.48c0,0,38.101,15.24,29.718-30.48
		C418.456,34.988,406.091,18.517,381.879,34.988z"/>
	<path fill="#ECE5CE" d="M439.746,56.959c0,0-1.478,20.64,3.094,24.45c0,0,32.542,18.156,30.367-24.45
		C473.207,56.959,454.086,38.611,439.746,56.959z"/>
	<path fill="#ECE5CE" d="M493.132,119.667c0,0-1.526,18.252,6.856,21.427c0,0,23.893,13.792,22.995-23.262
		C522.983,117.833,509.135,106.969,493.132,119.667z"/>
	<path fill="#E2BD9F" d="M348.492,188.055c-10.279,0-16.687-5.192-16.781-5.271l1.501-1.805c0.532,0.44,13.262,10.654,32.083-0.116
		l1.165,2.038C359.711,186.763,353.619,188.055,348.492,188.055z"/>
	<path fill="#E2BD9F" d="M348.492,176.32c-10.279,0-16.687-5.192-16.781-5.271l1.501-1.804c0.532,0.44,13.262,10.654,32.083-0.116
		l1.165,2.037C359.711,175.027,353.619,176.32,348.492,176.32z"/>
	<path fill="#E2BD9F" d="M348.492,105.911c-10.279,0-16.687-5.192-16.781-5.271l1.501-1.804c0.532,0.44,13.262,10.655,32.083-0.116
		l1.165,2.037C359.711,104.619,353.619,105.911,348.492,105.911z"/>
	<path fill="#E2BD9F" d="M401.3,87.136c-10.281,0-16.688-5.193-16.783-5.272l1.502-1.804c0.533,0.44,13.261,10.654,32.082-0.116
		l1.167,2.037C412.518,85.843,406.426,87.136,401.3,87.136z"/>
	<path fill="#E2BD9F" d="M403.646,165.758c-10.279,0-16.687-5.192-16.781-5.271l1.501-1.804c0.532,0.44,13.262,10.655,32.083-0.116
		l1.166,2.038C414.864,164.466,408.772,165.758,403.646,165.758z"/>
	<path fill="#E2BD9F" d="M403.646,171.625c-10.279,0-16.687-5.192-16.781-5.271l1.501-1.804c0.532,0.44,13.262,10.655,32.083-0.116
		l1.166,2.038C414.864,170.334,408.772,171.625,403.646,171.625z"/>
	<path fill="#E2BD9F" d="M403.646,177.494c-10.279,0-16.687-5.192-16.781-5.272l1.501-1.804c0.532,0.44,13.262,10.654,32.083-0.116
		l1.166,2.038C414.864,176.201,408.772,177.494,403.646,177.494z"/>
	<path fill="#E2BD9F" d="M455.279,105.911c-10.28,0-16.687-5.192-16.781-5.271l1.5-1.804c0.532,0.44,13.264,10.654,32.083-0.116
		l1.166,2.037C466.497,104.619,460.405,105.911,455.279,105.911z"/>
	<path fill="#E2BD9F" d="M457.626,179.84c-10.279,0-16.687-5.192-16.78-5.271l1.5-1.804c0.532,0.44,13.263,10.653,32.082-0.116
		l1.167,2.038C468.844,178.548,462.753,179.84,457.626,179.84z"/>
	<path fill="#E2BD9F" d="M457.626,186.881c-10.279,0-16.687-5.192-16.78-5.271l1.5-1.804c0.532,0.44,13.263,10.653,32.082-0.116
		l1.167,2.038C468.844,185.589,462.753,186.881,457.626,186.881z"/>
	<path fill="#E2BD9F" d="M509.132,156.376c-9.059,0-14.709-5.25-14.793-5.33l1.621-1.698l-0.81,0.849l0.809-0.85
		c0.458,0.435,11.44,10.528,27.694-0.131l1.288,1.962C519.004,155.073,513.646,156.376,509.132,156.376z"/>
	<path fill="#E2BD9F" d="M511.479,213.876c-9.059,0-14.71-5.25-14.793-5.329l1.62-1.697l-0.81,0.849l0.809-0.851
		c0.458,0.436,11.44,10.528,27.695-0.13l1.288,1.962C521.352,212.574,515.992,213.876,511.479,213.876z"/>
	<path fill="#E2BD9F" d="M511.479,219.745c-9.059,0-14.71-5.25-14.793-5.33l1.62-1.697l-0.81,0.849l0.809-0.851
		c0.458,0.435,11.44,10.529,27.695-0.13l1.288,1.962C521.352,218.441,515.992,219.745,511.479,219.745z"/>
	<path fill="#E2BD9F" d="M265.548,291.771l-0.957-2.142c0.715-0.32,17.677-7.735,32.49,0.032l-1.09,2.079
		C282.179,284.499,265.713,291.697,265.548,291.771z"/>
	<path fill="#E2BD9F" d="M265.494,296.746l-0.851-2.188c0.907-0.353,22.329-8.534,32.65,0.199l-1.516,1.791
		C286.522,288.717,265.703,296.665,265.494,296.746z"/>
	<path fill="#E2BD9F" d="M278.559,305.081c-4.805,0-9.568-0.978-13.082-3.896l1.5-1.806c9.324,7.749,30.072-0.385,30.28-0.467
		l0.87,2.18C297.528,301.331,287.968,305.081,278.559,305.081z"/>
	<path fill="#E2BD9F" d="M279.885,309.621c-5.688,0-11.562-1.139-15.484-4.89l1.622-1.696c8.773,8.389,30.025,1.71,30.239,1.644
		l0.716,2.234C296.423,307.09,288.362,309.621,279.885,309.621z"/>
	<path fill="#E2BD9F" d="M356.737,294.405c-11.081,0-23.696-2.397-24.498-2.553l0.445-2.304c0.292,0.057,29.22,5.557,37.103,0.183
		l1.323,1.938C368.095,293.726,362.632,294.405,356.737,294.405z"/>
	<path fill="#E2BD9F" d="M409.544,296.753c-11.081,0-23.696-2.398-24.498-2.554l0.445-2.304c0.29,0.055,29.22,5.556,37.105,0.183
		l1.321,1.938C420.902,296.073,415.438,296.753,409.544,296.753z"/>
	<path fill="#E2BD9F" d="M463.523,297.926c-11.081,0-23.695-2.398-24.497-2.554l0.445-2.304c0.292,0.056,29.218,5.557,37.104,0.183
		l1.321,1.938C474.882,297.247,469.419,297.926,463.523,297.926z"/>
	<path fill="#E2BD9F" d="M512.162,306.131c-8.824,0-18.796-2.4-19.433-2.557l0.557-2.278c6.337,1.546,23.897,4.614,28.949,0.251
		l1.533,1.776C521.322,305.437,516.908,306.131,512.162,306.131z"/>
	<path fill="#E2BD9F" d="M380.719,411.275c-10.816-19.841-11.422-82.347-11.443-84.997l2.348-0.019
		c0.005,0.644,0.62,64.565,11.155,83.892L380.719,411.275z"/>
	<path fill="#E2BD9F" d="M436.421,433.757c-13.869-15.662-15.818-103.329-15.895-107.053l2.348-0.048
		c0.018,0.903,2.003,90.524,15.304,105.545L436.421,433.757z"/>
	<path fill="#E2BD9F" d="M477.132,423.538c-4.645-9.286-4.593-92.249-4.589-95.776l2.347,0.002
		c-0.036,29.687,0.823,87.688,4.341,94.725L477.132,423.538z"/>
</g>
</svg>
