<?xml version="1.0" encoding="utf-8"?>
<!-- Generator: Adobe Illustrator 16.0.3, SVG Export Plug-In . SVG Version: 6.00 Build 0)  -->
<!DOCTYPE svg PUBLIC "-//W3C//DTD SVG 1.1//EN" "http://www.w3.org/Graphics/SVG/1.1/DTD/svg11.dtd">
<svg version="1.1" id="hat" xmlns="http://www.w3.org/2000/svg" xmlns:xlink="http://www.w3.org/1999/xlink" x="0px" y="0px"
	 width="800px" height="600px" viewBox="0 0 800 600" enable-background="new 0 0 800 600" xml:space="preserve">
<g>
	<path fill="#282726" d="M399.063,428.207c0,0-344.927-40.055-331.574,20.027c0,0,4.452,109.041,331.574,111.267
		c0,0,318.222,11.126,333.798-115.717C732.86,443.784,688.353,397.055,399.063,428.207z"/>
	<path fill="#383736" d="M183.207,74.382c0,0-4.451-40.057,215.853-33.379c0,0,225.578-1.405,215.857,33.379
		c0,0-17.801,33.441-215.705,32.535C399.212,106.917,243.293,103.311,183.207,74.382z"/>
	<path fill="#282726" d="M183.207,74.382c0,0,42.28,376.081,44.505,393.883c0,0,164.677,42.282,344.926,0
		c0,0,22.249-371.63,42.278-393.883C614.917,74.382,394.611,141.141,183.207,74.382z"/>
	<path fill="#C9312C" d="M217.199,381.396c0,0,164.138,55.517,360.801,3.073l-2,82.644c0,0-193.995,42.792-354.264-1
		L217.199,381.396z"/>
</g>
</svg>
