<?xml version="1.0" encoding="utf-8"?>
<!-- Generator: Adobe Illustrator 16.0.3, SVG Export Plug-In . SVG Version: 6.00 Build 0)  -->
<!DOCTYPE svg PUBLIC "-//W3C//DTD SVG 1.1//EN" "http://www.w3.org/Graphics/SVG/1.1/DTD/svg11.dtd">
<svg version="1.1" id="igloo" xmlns="http://www.w3.org/2000/svg" xmlns:xlink="http://www.w3.org/1999/xlink" x="0px" y="0px"
	 width="800px" height="600px" viewBox="0 0 800 600" enable-background="new 0 0 800 600" xml:space="preserve">
<g>
	<g>
		<path fill="#DADADA" d="M47,511.804l55.871,16.401L160,499.328v48.85l56.546,16.552l73.762-32.7c0,0,326.476,45.907,457.279-99.99
			c0,0,46.887-377.949-349.137-395.558c0,0-257.427-1.257-327.231,276.701c0,0-21.22,26.413-24.22,71.691V511.804z"/>
		<path fill="#B1CFF2" d="M216.886,567.226L158,549.938v-46.786l-54.696,27.569l-58.459-17.16L44.78,384.752
			c2.229-42.966,21.418-68.925,24.343-72.64c15.9-63.032,42.811-116.833,80.025-159.918c29.948-34.673,66.584-62.526,108.907-82.786
			c72.854-34.875,137.605-35.275,140.327-35.275l0.163,0.002c120.209,5.345,211.831,44.359,272.318,115.962
			c51.396,60.84,70.146,134.334,76.826,185.274c7.231,55.149,2.258,96.545,2.206,96.957l-0.091,0.73l-0.491,0.549
			c-79.747,88.948-230.551,107.619-343.018,107.619c-62.49,0-109.438-5.967-115.556-6.78L216.886,567.226z M162,546.417
			l54.207,15.817l73.676-32.624l0.684,0.094c0.486,0.067,49.352,6.825,115.718,6.825c111.271,0,260.302-18.326,339.024-105.502
			c0.618-5.715,4.353-44.577-2.302-95.194c-6.61-50.284-25.118-122.804-75.762-182.735
			c-59.607-70.54-150.083-108.986-268.913-114.27c-2.635,0.002-66.357,0.397-138.259,34.817
			c-65.468,31.339-150.976,98.436-186.555,240.109l-0.128,0.513l-0.042,0.41C73.137,314.937,52,341.075,50,384.936v125.111
			l52.792,15.642L162,495.506V546.417z"/>
	</g>
	<g>
		<path fill="#F6F6F6" d="M86.351,266.016l-12.816,43.393c0,0,74.835,15.162,76.722,13.556c1.887-1.607,18.866-41.112,18.866-41.112
			S86.351,270.469,86.351,266.016z"/>
		<path fill="#B1CFF2" d="M149.438,326c-0.001,0-0.001,0-0.002,0c-8.55-1-73.603-13.445-76.367-14.006l-2.864-0.65L88,249.772
			v15.272c8,3.018,45.706,9.613,81.091,14.479l3.232,0.421l-1.13,2.834c-11.41,26.549-17.927,40.953-19.457,42.256
			C151.034,325.633,150.239,326,149.438,326z M76.514,307.614c23.349,4.707,64.752,12.745,72.443,13.107
			c2.187-3.797,9.813-20.814,16.789-36.971c-6.53-0.922-22.541-3.224-38.391-5.83c-24.228-3.983-34.915-6.432-39.631-8.265
			L76.514,307.614z"/>
	</g>
	<g>
		<path fill="#F6F6F6" d="M412.313,115.422l2.35,202.119c0,0-111.568,18.041-238.548-37.349c0,0,11.915-142.867,49.019-177.454
			C225.134,102.738,304.264,120.768,412.313,115.422z"/>
		<path fill="#B1CFF2" d="M368.473,323c-45.983,0-116.84-7.152-193.297-40.503l-1.541-0.748l0.14-1.714
			c0.49-5.87,12.42-144.19,49.758-178.996l0.91-0.857l1.213,0.739c0.598,0.137,60.799,14.08,146.361,14.08c0.004,0,0.008,0,0.011,0
			c13.406,0,26.921-0.801,40.171-1.457l2.436-0.354l2.401,206.465l-1.998,0.416c-0.176,0.028-17.885,2.93-46.553,2.93
			C368.481,323,368.476,323,368.473,323z M178.606,278.713C253.723,311.16,323.247,318,368.473,318c0.006,0,0.006,0,0.012,0
			c22.77,0,38.476-1.787,43.806-2.494l-2.297-197.502c-12.544,0.582-25.305,0.996-37.966,0.996c-0.004,0-0.006,0-0.011,0
			c-79.336,0-137.074-11.655-146.157-13.582C192.632,138.354,180.086,262.764,178.606,278.713z"/>
	</g>
	<g>
		<polygon fill="#F6F6F6" points="48.084,402.538 104.606,415.059 102.257,527.489 47.7,511.804 		"/>
		<path fill="#B1CFF2" d="M104.542,530.59l-59.196-17.019l0.4-113.957l61.249,13.568L104.542,530.59z M50.056,510.036l49.917,14.352
			l2.245-107.452l-51.795-11.475L50.056,510.036z"/>
	</g>
	<g>
		<polygon fill="#F6F6F6" points="162.925,433.687 222.236,442.1 221.268,567.958 159.439,550.994 		"/>
		<path fill="#B1CFF2" d="M223.594,571.032l-66.557-18.262l3.618-121.778l63.945,9.071L223.594,571.032z M161.843,549.218
			l57.1,15.667l0.929-120.748l-54.677-7.757L161.843,549.218z"/>
	</g>
	<g>
		<path fill="#F6F6F6" d="M137.806,353.115l2.389-61.943c0,0,64.874,1.888,79.338,54.712c0,0,6.478,69.565,3.188,93.071
			l-59.07-8.804l0.995-48.121C164.646,382.03,153.632,350.684,137.806,353.115z"/>
		<path fill="#B1CFF2" d="M224.719,441.628l-63.459-9.458l1.028-49.756c-2.865-7.909-12.087-27.084-22.73-27.084
			c-0.463,0-0.932,0.035-1.396,0.106l-2.813,0.433l2.588-67.113l2.326,0.068c0.679,0.02,16.837,0.565,35.034,7.708
			c24.304,9.538,40.383,26.39,46.501,48.731l0.073,0.402c0.265,2.852,6.465,70.107,3.176,93.615L224.719,441.628z M166.042,428.133
			l54.633,8.144c2.46-24.271-3.092-85.914-3.463-89.97c-12.396-44.757-63.24-51.642-74.764-52.63l-2.196,56.973
			c15.959,0.813,26.176,29.371,26.609,30.603l0.141,0.401L166.042,428.133z"/>
	</g>
	<g>
		<path fill="#F6F6F6" d="M137.98,291.536l-3.873,60.251c0,0-32.598,7.467-28.4,60.128l-58.76-11.948
			C46.947,399.967,40.204,275.35,137.98,291.536z"/>
		<path fill="#B1CFF2" d="M108.297,414.839l-63.598-12.933l-0.098-1.813c-0.133-2.451-2.893-60.393,27.328-92.289
			c12.615-13.315,29.203-20.067,49.303-20.067c5.428,0,11.19,0.499,17.132,1.482l2.097,0.348l-4.122,64.119l-1.707,0.391
			c-1.242,0.295-30.555,7.821-26.583,57.652L108.297,414.839z M49.236,398.035L103.157,409
			c-1.412-26.085,6.438-40.721,13.432-48.471c5.997-6.646,12.313-9.472,15.278-10.512l3.632-56.491
			c-25.401-3.726-45.631,2.182-60.148,17.497C49.402,338.397,49.028,387.973,49.236,398.035z"/>
	</g>
	<g>
		<path fill="#F6F6F6" d="M117.304,289.965c0,0,73.2-10.113,102.128,54.661c0,0,5.659,50.309,7.546,94.329l63.994-21.959
			c0,0,8.326-70.483-9.911-89.978c0,0-21.28-46.198-90.456-46.826L117.304,289.965z"/>
		<path fill="#B1CFF2" d="M224.766,442.197l-0.135-3.142c-1.778-41.487-6.98-89.171-7.493-93.805
			c-21.771-48.291-69.457-53.51-88.982-53.51c-6.15,0-10.07,0.49-10.498,0.547l-0.675-4.65l0.06,0.071L190.459,278h0.166
			c36.427,0,59.614,13.26,72.651,24.113c13.024,10.844,18.715,21.519,19.749,23.611c18.447,20.401,10.622,88.658,10.279,91.566
			l-0.174,1.457L224.766,442.197z M146.519,288.439c23.936,3.63,57.537,15.997,75.058,55.229l0.148,0.333l0.041,0.362
			c0.056,0.492,5.424,48.512,7.418,91.352l59.612-20.455c1.046-10.122,6.427-69.665-9.451-86.637l-0.259-0.277l-0.159-0.345
			c-0.206-0.445-21.56-44.777-88.178-45.458L146.519,288.439z"/>
	</g>
	<g>
		<path fill="#F6F6F6" d="M293.418,318.842l0.119,211.69c0,0,133.422,17.217,224.606-2.906c0,0,6.918-106.278,0-211.928
			C518.144,315.698,373.692,324.501,293.418,318.842z"/>
		<path fill="#B1CFF2" d="M408.82,539.739c-61.566,0-115.051-6.81-115.584-6.878l-2.047-0.264l-0.122-216.276l2.516,0.177
			c17.805,1.256,40.28,1.893,66.803,1.893c74.102,0,156.788-4.987,157.614-5.037l2.334-0.143l0.153,2.333
			c6.849,104.594,0.069,211.17,0,212.234l-0.114,1.76l-1.724,0.381C489.124,536.435,452.172,539.739,408.82,539.739z
			 M295.885,528.452c10.344,1.233,58.455,6.59,112.936,6.59c42.166,0,78.182-3.14,107.087-9.334
			c0.843-14.197,6.151-111.375,0.042-207.528c-14.005,0.81-88.308,4.908-155.563,4.908c-25.4,0-47.121-0.582-64.618-1.732
			L295.885,528.452z"/>
	</g>
	<g>
		<path fill="#F6F6F6" d="M521.98,315.698c0,0,3.909,194.319,0.206,211.928c0,0,158.543-14.024,202.564-75.023
			c0,0-4.779-154.901-14.212-177.253C710.539,275.35,565.839,313.609,521.98,315.698z"/>
		<path fill="#B1CFF2" d="M519.235,530.245l0.652-3.104c3.606-17.146-0.217-209.456-0.256-211.396l-0.046-2.285l2.284-0.108
			c43.109-2.053,186.623-39.891,188.067-40.272l1.972-0.521l0.794,1.879c9.494,22.496,14.2,171.751,14.396,178.094l0.024,0.798
			l-0.468,0.649c-18.592,25.762-58.673,46.383-119.133,61.292c-44.797,11.046-84.731,14.66-85.131,14.695L519.235,530.245z
			 M524.375,317.91c0.426,21.818,3.373,178.536,0.542,207.08c21.722-2.304,157.245-18.73,197.461-73.121
			c-0.382-11.771-4.94-147.289-13.314-173.702C690.839,282.95,567.846,314.912,524.375,317.91z"/>
	</g>
	<g>
		<path fill="#F6F6F6" d="M173.084,280.192c0,0-77.929-11.081-86.733-18.628c0,0,58.255-140.949,123.967-162.578l12.944,3.339
			C223.262,102.325,179.372,168.154,173.084,280.192z"/>
		<path fill="#B1CFF2" d="M175.286,282.878l-2.533-0.36c-8.046-1.145-78.868-11.401-87.931-19.169l-1.292-1.108l0.65-1.573
			c0.146-0.354,14.892-35.834,37.498-73.489c30.526-50.849,60.102-81.271,87.903-90.423l0.654-0.215l16.813,4.336l-1.832,2.752
			c-0.436,0.653-43.612,66.669-49.788,176.696L175.286,282.878z M89.278,260.681c9.731,5.092,52.305,12.578,81.61,16.823
			c5.995-97.23,40.533-160.086,48.694-173.702l-9.179-2.367C150.685,121.841,96.286,244.375,89.278,260.681z"/>
	</g>
	<g>
		<polygon fill="#DADADA" points="109.304,411.915 162.795,387.388 160.683,499.328 105.78,525.14 		"/>
		<path fill="#B1CFF2" d="M103.313,528.896l3.688-118.51l58.212-26.69l-2.21,117.138L103.313,528.896z M111.606,413.444
			l-3.358,107.94l50.114-23.562l2.014-106.742L111.606,413.444z"/>
	</g>
	<g>
		<path fill="#DADADA" d="M109.411,409.398l53.438-25.155c0,0-0.946-43.049-41.671-24.668
			C121.178,359.575,104.412,365.378,109.411,409.398z"/>
		<path fill="#B1CFF2" d="M107.447,412.92l-0.37-3.256c-4.976-43.812,11.386-51.544,13.196-52.258
			c6.994-3.149,13.358-4.746,18.916-4.746c20.021,0,25.767,20.625,26.008,31.531l0.034,1.526L107.447,412.92z M139.189,357.357
			c-4.903,0-10.639,1.466-17.046,4.358l-0.197,0.078c-0.108,0.044-14.078,5.913-10.539,44.068l49.006-23.069
			C159.944,377.075,157.031,357.357,139.189,357.357z"/>
	</g>
	<g>
		<path fill="#F6F6F6" d="M714.001,274.382l13.266,175.365l25.887-23.613c0,0-2.161-130.341-17.288-157.373L714.001,274.382z"/>
		<path fill="#B1CFF2" d="M725.288,454.731L711.51,272.597l25.521-6.562l0.884,1.578c15.24,27.235,17.497,153.136,17.587,158.481
			l0.017,1.06L725.288,454.731z M716.492,276.167l12.753,168.595l21.539-19.646c-0.247-12.215-2.904-125.624-16.149-153.613
			L716.492,276.167z"/>
	</g>
	<g>
		<path fill="#F6F6F6" d="M414.463,114.71l1.342,203.171c0,0,106.382,9.726,252.638-36.029c0,0-18.123-150.413-38.876-175.567
			C629.566,106.284,464.772,117.226,414.463,114.71z"/>
		<path fill="#B1CFF2" d="M442.44,321.095c-17.076,0-26.458-0.84-26.85-0.875l-2.12-0.194l-1.373-207.786l2.483,0.124
			c4.946,0.247,11.269,0.373,18.79,0.373c62.83,0,194.715-8.708,196.039-8.796l1.202-0.08l0.767,0.929
			c20.949,25.394,38.652,170.612,39.396,176.781l0.234,1.939l-1.865,0.584C566.234,316.288,482.935,321.095,442.44,321.095z
			 M418.14,315.701c3.68,0.247,12.045,0.696,24.301,0.696c39.98,0,121.979-4.722,223.43-36.205
			c-2.184-17.426-18.855-146.231-37.394-171.483c-13.658,0.893-135.401,8.725-195.105,8.725c-6.399,0-11.949-0.09-16.543-0.269
			L418.14,315.701z"/>
	</g>
	<g>
		<path fill="#F6F6F6" d="M217.596,96.223c0,0,80.733,23.896,197.074,17.608c0,0,171.032-4.578,207.83-11.093
			c0,0-134.542-76.948-222.634-71.1C399.866,31.639,245.655,56.604,217.596,96.223z"/>
		<path fill="#B1CFF2" d="M375.62,117c-0.007,0-0.012,0-0.019,0c-94.197,0-158.039-18.455-158.673-18.642l-3.147-0.873l1.897-2.649
			c28.305-39.964,177.476-64.505,183.812-65.53l0.221-0.019c3.223-0.214,6.591-0.318,10.01-0.318
			c87.522,0,212.691,71.01,213.946,71.728l5.631,3.221l-6.389,1.131c-36.55,6.472-201.187,10.825-208.177,11.012
			C401.813,116.761,388.631,117,375.62,117z M221.637,94.624C235.918,98.373,294.337,112,375.602,112c0.006,0,0.013,0,0.02,0
			c12.927,0,26.021-0.085,38.922-0.783c1.679-0.046,153.845-4.042,200.714-9.923c-26.039-14.088-130.208-67.69-205.536-67.69
			c-3.276,0-6.501,0.001-9.587,0.204C395.443,34.58,253.396,58.204,221.637,94.624z"/>
	</g>
	<g>
		<path fill="#F6F6F6" d="M638.257,114.886c0,0,27.042,77.605,33.33,165.307c0,0,43.947-7.258,63.164-14.177
			C734.751,266.016,694.854,150.527,638.257,114.886z"/>
		<path fill="#B1CFF2" d="M669.428,282.93l-0.185-2.569c-6.191-86.362-32.936-163.929-33.205-164.702l-2.206-6.335l5.676,3.575
			c56.646,35.671,95.824,147.604,97.464,152.351l0.757,2.191l-2.181,0.786c-19.199,6.911-61.775,13.985-63.578,14.283
			L669.428,282.93z M642.647,120.733c6.492,20.42,25.63,85.334,31.091,156.71c9.191-1.586,41.096-7.289,57.999-12.874
			C726.074,249.032,690.745,156.261,642.647,120.733z"/>
	</g>
	<g>
		<polygon fill="#F6F6F6" points="224.117,441.434 293,420.089 293,528.808 222.408,565.609 		"/>
		<path fill="#B1CFF2" d="M219.707,569.516l1.946-129.819L295,416.898v113.333L219.707,569.516z M226.116,443.171l-1.789,118.532
			L290,527.385V423.28L226.116,443.171z"/>
	</g>
	<g>
		<path fill="#B7B7B7" d="M265.204,85.935c0,0,105.006-48.003,171.008-38.402c0,0,84.004,9.601,106.205,34.202
			c0,0-16.802,24.601-57.603,10.2c0,0-31.202-19.201-84.604-1.2c0,0-14.4,27.001-37.802,25.201c0,0-37.801-7.2-19.2-27.602
			c0,0-10.201-6.6-31.202-0.6C312.006,87.734,251.403,124.336,265.204,85.935z"/>
		<path fill="#FFFFFF" d="M261.508,81.313c0,0,105.007-48.002,171.009-38.401c0,0,84.003,9.601,106.205,34.201
			c0,0-16.802,24.602-57.604,10.201c0,0-31.201-19.201-84.604-1.2c0,0-14.399,27-37.801,25.2c0,0-37.803-7.2-19.201-27.601
			c0,0-10.2-6.601-31.201-0.6C308.311,83.114,247.707,119.716,261.508,81.313z"/>
	</g>
</g>
</svg>
