<?xml version="1.0" encoding="utf-8"?>
<!-- Generator: Adobe Illustrator 16.0.3, SVG Export Plug-In . SVG Version: 6.00 Build 0)  -->
<!DOCTYPE svg PUBLIC "-//W3C//DTD SVG 1.1//EN" "http://www.w3.org/Graphics/SVG/1.1/DTD/svg11.dtd">
<svg version="1.1" id="jar" xmlns="http://www.w3.org/2000/svg" xmlns:xlink="http://www.w3.org/1999/xlink" x="0px" y="0px"
	 width="800px" height="600px" viewBox="0 0 800 600" enable-background="new 0 0 800 600" xml:space="preserve">
<pattern  width="170.948" height="180.154" patternUnits="userSpaceOnUse" id="New_Pattern" viewBox="0 -191.401 170.948 180.154" overflow="visible">
	<g>
		<polygon fill="none" points="0,-191.401 170.948,-191.401 170.948,-11.247 0,-11.247 		"/>
		<path fill="#EB974E" d="M33.766-16.883C33.766-7.559,26.208,0,16.883,0S0-7.559,0-16.883s7.559-16.884,16.883-16.884
			S33.766-26.207,33.766-16.883z"/>
		<path fill="#EB974E" d="M119.24-61.921c0,9.324-7.559,16.883-16.883,16.883s-16.883-7.559-16.883-16.883
			s7.559-16.884,16.883-16.884S119.24-71.245,119.24-61.921z"/>
		<path fill="#EB974E" d="M33.766-106.96c0,9.324-7.559,16.883-16.883,16.883S0-97.636,0-106.96s7.559-16.883,16.883-16.883
			S33.766-116.284,33.766-106.96z"/>
		<path fill="#EB974E" d="M119.24-151.999c0,9.324-7.559,16.883-16.883,16.883s-16.883-7.559-16.883-16.883
			s7.559-16.883,16.883-16.883S119.24-161.323,119.24-151.999z"/>
		<path fill="#EB974E" d="M33.766-197.037c0,9.324-7.559,16.883-16.883,16.883S0-187.713,0-197.037s7.559-16.883,16.883-16.883
			S33.766-206.361,33.766-197.037z"/>
	</g>
</pattern>
<g>
	<path fill="#DD5771" d="M621,534.38c0,23.111-17.056,42.62-40.242,42.62H230.901C207.715,577,188,557.491,188,534.38V136.855
		C188,113.746,207.715,96,230.901,96h349.856C603.944,96,621,113.746,621,136.855V534.38z"/>
	<rect x="227" y="139" fill="#DB758D" width="55" height="398"/>
	<path fill="#DB758D" d="M227.79,534c0,0-11.272,43,54.408,43h56.87c0,0-56.87-12-56.87-43H227.79z"/>
	<rect x="188" y="428" fill="#DB103A" width="433" height="8"/>
	<rect x="188" y="265" fill="#FFEACF" width="433" height="167"/>
	<path fill="#DB103A" d="M184.029,144c0,0,11.967,21.544,2.295,24.182c0,0,12.518,31.103,45.558,4.854
		c0.566-0.45,1.131-1.047,1.693-1.527c33.412-28.445,61.618-8.052,76.565,0.337c0,0,35.1,31.522,83.459,1.32
		c0,0,39.566-36.066,74.859,3.5c0,0,31.231,19.265,67.28-1.836c0,0,22.405-21.716,59.507-4.388c0,0,17.286,22.829,31.636-2.523
		c0,0,0.106-11.92,0.106-23.92H184.029z"/>
	<g>
		<path fill="#FFE1B6" d="M184.029,133c0,0-13.76,29.752-23.432,32.391c0,0,38.244,23.02,71.284-3.229
			c0.566-0.45,1.131-1.026,1.693-1.505c33.412-28.445,61.618-8.042,76.565,0.347c0,0,35.1,31.529,83.46,1.326
			c0,0,39.565-36.063,74.858,3.503c0,0,31.231,19.266,67.28-1.835c0,0,29.314-24.553,59.507-4.389c0,0,31.558,22.49,61.426,9.583
			c0,0-29.684-24.191-29.684-36.191H184.029z"/>
		<pattern  id="SVGID_1_" xlink:href="#New_Pattern" patternTransform="matrix(0.5416 0 0 0.5416 -3533.9355 -3645.4248)">
		</pattern>
		<path fill="url(#SVGID_1_)" d="M184.029,133c0,0-13.76,29.752-23.432,32.391c0,0,38.244,23.02,71.284-3.229
			c0.566-0.45,1.131-1.026,1.693-1.505c33.412-28.445,61.618-8.042,76.565,0.347c0,0,35.1,31.529,83.46,1.326
			c0,0,39.565-36.063,74.858,3.503c0,0,31.231,19.266,67.28-1.835c0,0,29.314-24.553,59.507-4.389c0,0,31.558,22.49,61.426,9.583
			c0,0-29.684-24.191-29.684-36.191H184.029z"/>
	</g>
	<rect x="184" y="103" fill="#F9482B" width="442" height="29"/>
	<rect x="184" y="124" fill="#DD1024" width="442" height="8"/>
	<g>
		<path fill="#FFE1B6" d="M668,63.5c0,22.368-18.133,40.5-40.5,40.5h-455c-22.368,0-40.5-18.132-40.5-40.5l0,0
			c0-22.368,18.132-40.5,40.5-40.5h455C649.867,23,668,41.132,668,63.5L668,63.5z"/>
		<pattern  id="SVGID_2_" xlink:href="#New_Pattern" patternTransform="matrix(0.5416 0 0 0.5416 -3535.8667 -3606.9487)">
		</pattern>
		<path fill="url(#SVGID_2_)" d="M668,63.5c0,22.368-18.133,40.5-40.5,40.5h-455c-22.368,0-40.5-18.132-40.5-40.5l0,0
			c0-22.368,18.132-40.5,40.5-40.5h455C649.867,23,668,41.132,668,63.5L668,63.5z"/>
	</g>
</g>
</svg>
