<?xml version="1.0" encoding="utf-8"?>
<!-- Generator: Adobe Illustrator 16.0.3, SVG Export Plug-In . SVG Version: 6.00 Build 0)  -->
<!DOCTYPE svg PUBLIC "-//W3C//DTD SVG 1.1//EN" "http://www.w3.org/Graphics/SVG/1.1/DTD/svg11.dtd">
<svg version="1.1" id="jar" xmlns="http://www.w3.org/2000/svg" xmlns:xlink="http://www.w3.org/1999/xlink" x="0px" y="0px"
	 width="800px" height="600px" viewBox="0 0 800 600" enable-background="new 0 0 800 600" xml:space="preserve">
<g>
	<path fill="#DD5771" d="M188,528.451C188,551.032,205.982,570,228.639,570h341.855C593.15,570,612,551.032,612,528.451V140.016
		C612,117.434,593.15,100,570.494,100H228.639C205.982,100,188,117.434,188,140.016V528.451z"/>
	<rect x="520" y="143" fill="#DB758D" width="55" height="389"/>
	<path fill="#DB758D" d="M573.535,528c0,0,11.014,42-53.164,42h-55.569c0,0,55.569-12,55.569-42H573.535z"/>
	<rect x="188" y="424" fill="#DB103A" width="424" height="8"/>
	<rect x="188" y="266" fill="#FFEACF" width="424" height="162"/>
	<path fill="#DB103A" d="M616.295,147c0,0-11.693,21.049-2.242,23.627c0,0-12.231,30.391-44.517,4.742
		c-0.553-0.439-1.104-1.024-1.654-1.492c-32.647-27.794-60.209-7.868-74.814,0.329c0,0-34.297,30.803-81.55,1.291
		c0,0-38.661-35.241-73.147,3.42c0,0-30.518,18.824-65.742-1.795c0,0-21.894-21.22-58.146-4.288c0,0-16.891,22.31-30.912-2.462
		c0,0-0.104-11.372-0.104-23.372H616.295z"/>
	<path fill="#FFE1B6" d="M616.295,136c0,0,13.445,29.196,22.896,31.773c0,0-37.37,22.556-69.655-3.093
		c-0.553-0.439-1.104-0.972-1.654-1.44c-32.647-27.794-60.209-7.843-74.814,0.354c0,0-34.297,30.816-81.55,1.304
		c0,0-38.661-35.234-73.147,3.427c0,0-30.518,18.828-65.742-1.792c0,0-28.645-23.99-58.146-4.287c0,0-30.835,21.851-60.021,9.239
		c0,0,29.005-23.486,29.005-35.486H616.295z"/>
	<rect x="184" y="107" fill="#F9482B" width="433" height="29"/>
	<rect x="184" y="128" fill="#DD1024" width="433" height="8"/>
	<path fill="#FFE1B6" d="M138,69.5c0,21.815,17.685,39.5,39.5,39.5h445c21.815,0,39.5-17.685,39.5-39.5l0,0
		c0-21.815-17.685-39.5-39.5-39.5h-445C155.685,30,138,47.685,138,69.5L138,69.5z"/>
	<circle fill="#EB974E" cx="624.681" cy="55.174" r="11.246"/>
	<circle fill="#EB974E" cx="522.803" cy="55.174" r="11.246"/>
	<circle fill="#EB974E" cx="420.925" cy="55.174" r="11.247"/>
	<circle fill="#EB974E" cx="319.048" cy="55.174" r="11.246"/>
	<circle fill="#EB974E" cx="217.171" cy="55.174" r="11.246"/>
	<circle fill="#EB974E" cx="581.019" cy="88.251" r="11.246"/>
	<circle fill="#EB974E" cx="479.141" cy="88.251" r="11.247"/>
	<circle fill="#EB974E" cx="377.264" cy="88.251" r="11.246"/>
	<circle fill="#EB974E" cx="275.386" cy="88.251" r="11.247"/>
	<circle fill="#EB974E" cx="173.509" cy="89.574" r="11.246"/>
</g>
</svg>
