<?xml version="1.0" encoding="utf-8"?>
<!-- Generator: Adobe Illustrator 16.0.3, SVG Export Plug-In . SVG Version: 6.00 Build 0)  -->
<!DOCTYPE svg PUBLIC "-//W3C//DTD SVG 1.1//EN" "http://www.w3.org/Graphics/SVG/1.1/DTD/svg11.dtd">
<svg version="1.1" id="jug" xmlns="http://www.w3.org/2000/svg" xmlns:xlink="http://www.w3.org/1999/xlink" x="0px" y="0px"
	 width="800px" height="600px" viewBox="0 0 800 600" enable-background="new 0 0 800 600" xml:space="preserve">
<g>
	<ellipse fill="#999999" cx="372.81" cy="552.154" rx="136.688" ry="18.507"/>
	<g>
		<polygon fill="#636363" points="505.733,80.037 532.435,218.524 582.09,211.502 543.912,63.319 		"/>
		<polygon fill="#3F3F3F" points="476.744,227.813 530.297,203.204 586.411,220.584 503.271,256.663 		"/>
		<polygon fill="#FFD366" points="445.487,78.304 486.979,44.431 524.094,54.853 470.033,102.834 		"/>
		<polygon fill="#FFD366" points="484.81,45.237 516.071,53.416 558.456,41.546 520.252,34.875 		"/>
		<polygon fill="#AA855E" points="462.419,98.625 516.779,52.513 558.31,41.692 594.981,231.381 518.069,270.914 501.978,233.57 
			550.711,209.8 528.392,92.333 467.1,150.299 		"/>
		<path fill="#FFD366" d="M474.744,66.647C475.068,81.043,472,89.855,472,89.855v65.535C690,596.9,364.86,559.664,364.86,559.664
			C51.016,560.425,297,152.487,297,152.487v-60.93c-6-4.559-26.644-44.007-26.644-44.007
			C264.047,52.477,465.166,66.13,474.744,66.647z"/>
		<path fill="#C1711A" d="M296.827,152.487l-5.101,8.816c0,0,78.801,22.002,185.137,3.394l-4.497-9.307
			C472.366,155.39,382.4,173.263,296.827,152.487"/>
		<path fill="#FF9D27" d="M296.827,91.557c0,0-27.653,28.512,0,60.93c0,0,89.55,24.001,175.54,2.903c0,0,15.661-32.797,0-59.395
			C472.366,95.996,397.599,111.437,296.827,91.557z"/>
		<path fill="#C46520" d="M270.36,48.656c0,0,167.017,25.313,201.408,21.103C506.16,65.548,287.673-3.302,270.36,48.656z"/>
		<path fill="#EACB98" d="M275.342,233.889c0,0-87.313,214.294-15.121,278.888c0,0,30.919,16.161,38.023-12.329
			c0.284-1.137,0.529-2.347,0.733-3.63C304.296,463.383,229.67,376.753,275.342,233.889z"/>
	</g>
</g>
</svg>
