<?xml version="1.0" encoding="utf-8"?>
<!-- Generator: Adobe Illustrator 16.0.3, SVG Export Plug-In . SVG Version: 6.00 Build 0)  -->
<!DOCTYPE svg PUBLIC "-//W3C//DTD SVG 1.1//EN" "http://www.w3.org/Graphics/SVG/1.1/DTD/svg11.dtd">
<svg version="1.1" id="kangaroo" xmlns="http://www.w3.org/2000/svg" xmlns:xlink="http://www.w3.org/1999/xlink" x="0px" y="0px"
	 width="800px" height="600px" viewBox="0 0 800 600" enable-background="new 0 0 800 600" xml:space="preserve">
<g>
	<path fill="#C9936F" d="M184.732,252.518c0,0-0.037,23.054,1.479,25.812s-1.513-2.807-1.513-2.807s-68.42,39.374-75.119,43.537
		c0,0-11.317,12.271-2.197,20.383l6.271-13.446c0,0,1.195,16.068,6.689,18.775c0,0,2.119-15.333,2.971-16.731
		s2.054,1.697,2.054,1.697s2.521,6.843,12.23,10.841c0,0-10.88-13.018,0.637-25.498c0,0,61.196-26.965,78.145-27.506
		c0,0,10.355-39.079,8.046-43.681C224.426,243.893,202.229,225.028,184.732,252.518z"/>
	<path fill="#C9936F" d="M352.422,333.19c0,0-64.536-10.665-32,107.737c0,0,10.134,74.668-16.535,75.201c0,0-81.602,9.6-95.468,0
		c0,0-28.801-6.399-42.668,6.934c0,0-10.667,8.534,28.268,10.668c0,0,91.203-6.4,119.47,0c0,0,34.85,7.998,30.492-10.135
		c0,0-21.959-101.336,38.31-110.402C382.289,413.193,416.424,346.524,352.422,333.19z"/>
	<path fill="#C9A285" d="M179.698,234.1c0,0-4.533,47.265,31.725,84.817c0,0,7.769,123.017,156.684,126.254
		c0,0,24.604,197.475,309.484,104.888c0,0,38.847-20.071,5.18-18.129c0,0-248.023,28.487-244.762-115.896
		c0,0,16.857-166.396-189.034-194.236c0,0-20.189-3.619-19.542-41.172c0,0-15.814-8.108-45.597,5.489
		C183.836,186.115,182.403,227.169,179.698,234.1z"/>
	<path fill="#EAC2A7" d="M178.905,205.582c0,0-14.693,49.102,6.054,79.539c0,0,29.304,44.217,35.391,73.085
		c0,0,22.038,64.442,110.279,84.397l39.939-47.71c0,0-152.26-84.896-141.135-146.932l-2.659-43.688
		C226.774,204.273,193.434,189.067,178.905,205.582z"/>
	<path fill="#C9A285" d="M331.733,325.008c0,0-78.343-12.947-38.848,130.787c0,0,12.302,90.644-20.071,91.291
		c0,0-99.061,11.654-115.895,0c0,0-34.962-7.771-51.796,8.417c0,0-12.95,10.359,34.315,12.949c0,0,110.715-7.77,145.03,0
		c0,0,42.305,9.711,37.015-12.302c0,0-26.656-123.018,46.506-134.023C367.99,422.127,409.428,341.194,331.733,325.008z"/>
	<path fill="#C9A285" d="M214.915,305.446c0,0-79.248,49.599-87.243,54.702c0,0-12.908,15.01-1.763,24.251l6.877-16.197
		c0,0,1.876,18.881,8.499,21.864c0,0,1.677-18.376,2.629-20.068c0.952-1.693,1.933,2.055,1.933,2.055s4.044,7.993,15.719,12.331
		c0,0-13.332-14.924-0.194-30.193c0,0,71.473-34.454,91.541-35.794c0,0,23.956-39.357,7.76-52.093c0,0-27.061-21.431-46.667,11.874"
		/>
	<path fill="#C9A285" d="M293.55,25.237c-56.152,23.917-62.029,58.218-61.727,72.877c-23.012-10.83-41.475-6.874-53.574-0.95
		c0.022-15.148-6.768-48.514-61.737-71.928c0,0,10.401,78.977,45.362,87.356c-11.832,114.797,43.842,101.651,43.842,101.651
		c52.583,6.965,45.87-82.795,43.84-102.021C283.421,102.142,293.55,25.237,293.55,25.237z"/>
	<path fill="#9E6946" d="M126.49,40.501c0,0,15.634,53.791,37.924,57.425C186.703,101.562,134.561,44.625,126.49,40.501z"/>
	<path fill="#9E6946" d="M284.182,41.657c0,0-15.634,53.792-37.924,57.426C223.968,102.717,276.111,45.781,284.182,41.657z"/>
	<ellipse fill="#9E6946" cx="203.25" cy="186.115" rx="14.032" ry="9.813"/>
	<ellipse fill="#171516" cx="176.53" cy="126.339" rx="7.306" ry="8.126"/>
	<ellipse fill="#171516" cx="232.121" cy="126.339" rx="7.306" ry="8.126"/>
	<circle fill="#FFFFFF" cx="176.731" cy="122.202" r="2.888"/>
	<circle fill="#FFFFFF" cx="232.321" cy="122.202" r="2.888"/>
</g>
</svg>
