<?xml version="1.0" encoding="utf-8"?>
<!-- Generator: Adobe Illustrator 16.0.3, SVG Export Plug-In . SVG Version: 6.00 Build 0)  -->
<!DOCTYPE svg PUBLIC "-//W3C//DTD SVG 1.1//EN" "http://www.w3.org/Graphics/SVG/1.1/DTD/svg11.dtd">
<svg version="1.1" id="Layer_1" xmlns="http://www.w3.org/2000/svg" xmlns:xlink="http://www.w3.org/1999/xlink" x="0px" y="0px"
	 width="800px" height="600px" viewBox="0 0 800 600" enable-background="new 0 0 800 600" xml:space="preserve">
<g>
	<path fill="none" stroke="#777777" stroke-width="4.9075" stroke-miterlimit="10" d="M389.618,371.408
		c0,0,25.577,63.391,64.612,54.626c39.037-8.764,54.971,4.78,54.174,54.173c-0.796,49.394,65.327,85.243,125.873,62.938
		c60.548-22.307,79.668-16.729,113.128,3.187"/>
	<g>
		<path fill="#FF3131" d="M685.807,509.018l7.63,15.074c-0.875,1.065-1.418,2.411-1.41,3.897c0.007,1.732,0.737,3.288,1.897,4.397
			l-7.941,15.985c0.013,2.66,6.06,7.837,10.463,7.815l2.454-0.011c4.404-0.019,9.176-5.979,9.163-8.641l-5.542-15.26
			c1.104-1.115,1.781-2.649,1.773-4.342c-0.006-1.487-0.563-2.83-1.449-3.89l5.049-14.397c-0.012-2.662-4.837-8.698-9.24-8.679
			l-2.454,0.012C691.795,500.999,685.795,506.355,685.807,509.018z"/>
		<path fill="#FF6B6B" d="M697.994,521.853l2.665-14.777C700.659,507.075,704.768,513.657,697.994,521.853z"/>
		<path fill="#FF6B6B" d="M700.19,551.379l-1.464-14.944C698.727,536.435,704.475,541.648,700.19,551.379z"/>
		<path fill="#FF6B6B" d="M696.608,521.925l-1.924-14.891C694.685,507.034,690.25,513.402,696.608,521.925z"/>
		<path fill="#FF6B6B" d="M696.617,536.463l-1.681,14.921C694.937,551.384,690.399,545.09,696.617,536.463z"/>
	</g>
	<g>
		<path fill="#FF3131" d="M633.494,522.165l11.101,12.739c-0.588,1.247-0.783,2.687-0.41,4.123c0.432,1.679,1.521,3.006,2.92,3.797
			l-3.772,17.445c0.666,2.577,7.799,6.109,12.063,5.008l2.377-0.613c4.264-1.1,7.425-8.05,6.76-10.627l-9.122-13.432
			c0.797-1.35,1.077-3.005,0.654-4.643c-0.373-1.441-1.243-2.606-2.36-3.416l1.357-15.197c-0.666-2.577-6.826-7.243-11.089-6.142
			l-2.377,0.614C637.33,512.922,632.83,519.587,633.494,522.165z"/>
		<path fill="#FF6B6B" d="M648.462,531.614l-1.047-14.98C647.415,516.634,653.016,522.006,648.462,531.614z"/>
		<path fill="#FF6B6B" d="M657.843,559.696l-5.09-14.127C652.753,545.569,659.606,549.21,657.843,559.696z"/>
		<path fill="#FF6B6B" d="M647.135,532.023l-5.521-13.961C641.614,518.063,638.88,525.324,647.135,532.023z"/>
		<path fill="#FF6B6B" d="M650.716,546.114l2.036,14.877C652.752,560.991,646.808,556.005,650.716,546.114z"/>
	</g>
	<g>
		<polygon fill="#4ECDC4" points="55.744,40.293 79.841,284.082 189.49,174.434 		"/>
		<polygon fill="#FFFF83" points="57.803,36.5 301.592,60.597 191.943,170.245 		"/>
		<polygon fill="#C7EF59" points="79.872,284.051 189.49,174.434 388.799,372.228 		"/>
		<polygon fill="#FF6B6B" points="301.442,62.481 191.825,172.098 389.618,371.408 		"/>
		<path fill="#C9A285" d="M61.306,36.287c-2.156-2.156-5.414-2.395-7.374-0.434l0,0c-1.96,1.959-1.723,5.218,0.434,7.373
			L386.627,375.49c2.157,2.156,5.416,2.394,7.375,0.434l0,0c1.961-1.96,1.724-5.219-0.433-7.374L61.306,36.287z"/>
		<path fill="#C9A285" d="M303.999,59.057c-2.155-2.156-5.069-2.738-6.509-1.3L75.783,279.465c-1.438,1.438-0.856,4.353,1.3,6.508
			l0,0c2.156,2.157,5.07,2.738,6.508,1.3L305.299,65.565C306.738,64.126,306.155,61.213,303.999,59.057L303.999,59.057z"/>
		<path fill="#A37F66" d="M193.787,169.269c2.156,2.156,2.315,5.492,0.356,7.453l0,0c-1.96,1.96-5.297,1.801-7.453-0.355l0,0
			c-2.156-2.156-2.315-5.493-0.355-7.453l0,0C188.295,166.953,191.631,167.112,193.787,169.269L193.787,169.269z"/>
	</g>
</g>
</svg>
