<?xml version="1.0" encoding="utf-8"?>
<!-- Generator: Adobe Illustrator 16.0.3, SVG Export Plug-In . SVG Version: 6.00 Build 0)  -->
<!DOCTYPE svg PUBLIC "-//W3C//DTD SVG 1.1//EN" "http://www.w3.org/Graphics/SVG/1.1/DTD/svg11.dtd">
<svg version="1.1" id="ladder" xmlns="http://www.w3.org/2000/svg" xmlns:xlink="http://www.w3.org/1999/xlink" x="0px" y="0px"
	 width="800px" height="600px" viewBox="0 0 800 600" enable-background="new 0 0 800 600" xml:space="preserve">
<g>
	<path fill="#A0765A" d="M667.626,46.151c3.516,5.618,1.812,13.022-3.806,16.538L67.913,435.654
		c-5.618,3.517-13.022,1.813-16.538-3.805l0,0c-3.516-5.618-1.813-13.022,3.805-16.539L651.087,42.345
		C656.705,38.83,664.109,40.533,667.626,46.151L667.626,46.151z"/>
	<path fill="#A37F66" d="M670.626,49.151c3.516,5.618,1.812,13.022-3.806,16.538L70.913,438.654
		c-5.618,3.517-13.022,1.813-16.538-3.805l0,0c-3.516-5.618-1.813-13.022,3.805-16.539L654.087,45.345
		C659.705,41.83,667.109,43.533,670.626,49.151L670.626,49.151z"/>
	<path fill="#C9A285" d="M217.446,504.738c-3.461,2.277-8.111,1.317-10.388-2.144L133.41,390.648
		c-2.276-3.46-1.317-8.11,2.144-10.387l0,0c3.461-2.277,8.111-1.317,10.388,2.143l73.648,111.946
		C221.866,497.812,220.907,502.462,217.446,504.738L217.446,504.738z"/>
	<path fill="#C9A285" d="M313.446,444.738c-3.461,2.277-8.111,1.317-10.388-2.144L229.41,330.648
		c-2.276-3.46-1.317-8.11,2.144-10.387l0,0c3.461-2.277,8.111-1.317,10.388,2.143l73.648,111.946
		C317.866,437.812,316.907,442.462,313.446,444.738L313.446,444.738z"/>
	<path fill="#C9A285" d="M406.446,385.738c-3.461,2.277-8.111,1.317-10.388-2.144L322.41,271.648
		c-2.276-3.46-1.317-8.11,2.144-10.387l0,0c3.461-2.277,8.111-1.317,10.388,2.143l73.648,111.946
		C410.866,378.812,409.907,383.462,406.446,385.738L406.446,385.738z"/>
	<path fill="#C9A285" d="M500.446,327.738c-3.461,2.277-8.111,1.317-10.388-2.144L416.41,213.648
		c-2.276-3.46-1.317-8.11,2.144-10.387l0,0c3.461-2.277,8.111-1.317,10.388,2.143l73.648,111.946
		C504.866,320.812,503.907,325.462,500.446,327.738L500.446,327.738z"/>
	<path fill="#C9A285" d="M594.446,269.738c-3.461,2.277-8.111,1.317-10.388-2.144L510.41,155.648
		c-2.276-3.46-1.317-8.11,2.144-10.387l0,0c3.461-2.277,8.111-1.317,10.388,2.143l73.648,111.946
		C598.866,262.812,597.907,267.462,594.446,269.738L594.446,269.738z"/>
	<path fill="#C9A285" d="M683.446,215.738c-3.461,2.277-8.111,1.317-10.388-2.144L599.41,101.648
		c-2.276-3.46-1.317-8.11,2.144-10.387l0,0c3.461-2.277,8.111-1.317,10.388,2.143l73.648,111.946
		C687.866,208.812,686.907,213.462,683.446,215.738L683.446,215.738z"/>
	<path fill="#A0765A" d="M745.626,165.151c3.516,5.618,1.812,13.022-3.806,16.538L145.913,554.654
		c-5.618,3.517-13.022,1.813-16.538-3.805l0,0c-3.516-5.618-1.813-13.022,3.805-16.539l595.907-372.965
		C734.705,157.83,742.109,159.533,745.626,165.151L745.626,165.151z"/>
	<path fill="#A37F66" d="M748.626,168.151c3.516,5.618,1.812,13.022-3.806,16.538L148.913,557.654
		c-5.618,3.517-13.022,1.813-16.538-3.805l0,0c-3.516-5.618-1.813-13.022,3.805-16.539l595.907-372.965
		C737.705,160.83,745.109,162.533,748.626,168.151L748.626,168.151z"/>
	<circle fill="#C9A285" cx="216.175" cy="501.883" r="6.851"/>
	<circle fill="#C9A285" cx="311.175" cy="441.883" r="6.851"/>
	<circle fill="#C9A285" cx="406.175" cy="382.883" r="6.851"/>
	<circle fill="#C9A285" cx="499.175" cy="323.883" r="6.851"/>
	<circle fill="#C9A285" cx="591.175" cy="265.883" r="6.851"/>
	<circle fill="#C9A285" cx="680.175" cy="210.883" r="6.851"/>
</g>
</svg>
