<?xml version="1.0" encoding="utf-8"?>
<!-- Generator: Adobe Illustrator 16.0.3, SVG Export Plug-In . SVG Version: 6.00 Build 0)  -->
<!DOCTYPE svg PUBLIC "-//W3C//DTD SVG 1.1//EN" "http://www.w3.org/Graphics/SVG/1.1/DTD/svg11.dtd">
<svg version="1.1" id="Layer_5" xmlns="http://www.w3.org/2000/svg" xmlns:xlink="http://www.w3.org/1999/xlink" x="0px" y="0px"
	 width="800px" height="600px" viewBox="0 0 800 600" enable-background="new 0 0 800 600" xml:space="preserve">
<g>
	<path fill="#B29D7B" d="M485.203,298.648c0,0,22.611,70.226,21.633,128.411l-1.758,85.523c0,0,5.334,9.073,30.477-1.904
		l11.623-86.248c0,0,4.008-106.434,9.91-134.578c5.902-28.146,5.902-28.146,5.902-28.146S480.627,244.144,485.203,298.648z"/>
	<path fill="#CDBB99" d="M448.639,337.114l71.74-40.108c0,0,34.848,99.941,46.684,119.01l17.752,91.35
		c0,0,16.135-1.475,32.875-13.31c0,0-11.834-68.177-13.807-87.902c0,0-7.232-109.805-19.725-163.72
		c0,0-5.918-109.146-116.379-92.708l-94.024,34.848c0,0-46.684-9.205-89.421,13.808c0,0-40.765,96.652-16.438,133.473
		c0,0,8.548,175.556-29.587,218.293c0,0,24.327,27.615,42.738,0c0,0,6.575-45.369,11.178-59.176c0,0,32.875-91.394,35.505-117.693
		c0,0,36.82-14.466,63.778,3.287c0,0,13.807,138.735,9.863,178.185c0,0,18.41,16.438,35.656,1.315
		C437.027,556.064,440.018,350.923,448.639,337.114z"/>
	<path fill="#383838" d="M238.309,550.146c0,0-14.118,11.836-6.401,23.014c7.716,11.177,46.426,4.603,51.07-4.603
		c4.644-9.206,5.959-9.863-1.931-18.411C281.047,550.146,250.144,546.859,238.309,550.146z"/>
	<path fill="#383838" d="M395.125,553.283c0,0-14.118,11.836-6.401,23.013c7.716,11.178,46.425,4.604,51.07-4.603
		c4.645-9.205,5.959-9.863-1.932-18.41C437.861,553.283,406.959,549.996,395.125,553.283z"/>
	<path fill="#383838" d="M582.748,501.646c0,0-8.941,13.633-0.404,22.767c8.539,9.135,38.414-3.919,40.258-13.396
		c1.842-9.478,2.768-10.329-5.367-16.961C617.234,494.056,591.619,496.455,582.748,501.646z"/>
	<path fill="#383838" d="M497.705,511.009c0,0-11.287,11.007-3.68,19.61c7.604,8.604,40.666-0.139,43.947-8.162
		c3.283-8.023,4.369-8.68-3.174-15.092C534.799,507.365,507.713,507.275,497.705,511.009z"/>
	<path fill="#E9EACA" d="M279.724,205.549c0,0-35.844,23.498-17.22,64.217c0,0-19.629,56.829,5.928,63.761
		c0,0-6.297,36.907,37.042,44.401c0,0,14.233,24.524,47.399,4.087c0,0,17.146,28.721,43.431,2.098c0,0,39.145,16.354,60.805-18.078
		c0,0,28.029,9.85,41.088-16.72c0,0,30.418,1.745,36.072-18.394c0,0,30.457,4.088,38.58-23.845c0,0,33.646,12.264,48.297-21.118
		c0,0,11.266-35.424-15.809-47.006c0,0,11.264-41.584-17.043-53.151c0,0-0.957-37.837-33.721-40.86c0,0-13.408-13.512-39.934-9.545
		c0,0-31.813-12.257-40.611,5.456c0,0-18.178-5.9-34.217,10.485c0,0-15.871,2.46-23.315,7.91L279.724,205.549z"/>
	<path fill="#E9EACA" d="M291.053,35.703c0,0-32.938-21.645-44.232,16.94c0,0-29.175,8.47-8.47,37.644
		c0,0-31.998,34.821,4.706,55.526c0,0-16.941,25.409,9.411,37.644c0,0-5.646,31.999,30.116,20.705l101.641,2.414
		c0,0,27.292,3.233,29.174-24.059c0,0,16.939-14.237,3.764-31.587c0,0,31.682-18.293,5.018-49.349c0,0,25.098-31.998-13.487-49.879
		c0,0,7.53-39.395-35.762-22.05c0,0-22.64-26.887-43.789,0.405C329.142,30.057,304.229,8.411,291.053,35.703z"/>
	<path fill="#AA988C" d="M272.071,80.587l-6.507,114.262c0,0,3.994,20.151,24.549,20.151h89.085c0,0,19.142-1.836,19.142-21.599
		l-4.706-112.547C393.635,80.854,334.965,55.828,272.071,80.587z"/>
	<path fill="#AA988C" d="M278.618,83.461c0,0-23.077-31.632-85.59-22.595c-62.513,9.038,67.271,41.425,86.358,42.178
		S278.618,83.461,278.618,83.461z"/>
	<path fill="#E9EACA" d="M259.055,69.583c0,0,8.471,35.762,49.879,13.176c0,0,23.528,19.715,47.057-2.848
		c0,0,18.821,21.176,47.055,0.248C403.046,80.159,369.165,26.292,259.055,69.583z"/>
	<path fill="#AA988C" d="M388.78,83.461c0,0,23.078-31.632,85.591-22.595c62.514,9.038-67.271,41.425-86.358,42.178
		C368.926,103.797,388.78,83.461,388.78,83.461z"/>
	<path fill="#6D6D6D" d="M309.195,149.369c0,0,27.321-11.575,46.689,0.817c19.369,12.392-22.592,25.043-22.592,25.043
		S289.327,165.593,309.195,149.369z"/>
	<path fill="#FBCFCF" d="M390.825,95.073c0,0,40.03-25.816,79.425-26.833C509.646,67.223,390.825,95.073,390.825,95.073z"/>
	<path fill="#FBCFCF" d="M268.684,95.073c0,0-40.029-25.816-79.423-26.833C149.864,67.223,268.684,95.073,268.684,95.073z"/>
	<ellipse fill="#171516" cx="293.598" cy="117.254" rx="10.62" ry="9.891"/>
	<ellipse fill="#171516" cx="372.305" cy="117.254" rx="10.62" ry="9.891"/>
	<circle fill="#FFFFFF" cx="291.305" cy="113.558" r="2.498"/>
	<circle fill="#FFFFFF" cx="367.947" cy="113.558" r="2.498"/>
	<path fill="#383838" d="M302.734,185.802l59.937-6.722c0,0,11.274,14.914-23.315,25.547c-34.589,10.633-37.011-15.914-36.816-17.37
		"/>
	<path fill="#EB5B72" d="M323.779,207.118c0,0,21.624,4.015,34.157-11.238C357.936,195.88,330.348,186.268,323.779,207.118z"/>
</g>
</svg>
