<?xml version="1.0" encoding="utf-8"?>
<!-- Generator: Adobe Illustrator 16.0.3, SVG Export Plug-In . SVG Version: 6.00 Build 0)  -->
<!DOCTYPE svg PUBLIC "-//W3C//DTD SVG 1.1//EN" "http://www.w3.org/Graphics/SVG/1.1/DTD/svg11.dtd">
<svg version="1.1" xmlns="http://www.w3.org/2000/svg" xmlns:xlink="http://www.w3.org/1999/xlink" x="0px" y="0px" width="800px"
	 height="600px" viewBox="0 0 800 600" enable-background="new 0 0 800 600" xml:space="preserve">
<g id="Layer_1">
	<g>
		<path fill="#2C3E50" d="M36.398,70.118h65.208c7.01,0,12.719,1.705,17.128,5.108c4.404,3.409,7.709,7.813,9.917,13.222
			l102.17,265.041c3.404,8.616,6.658,18.081,9.766,28.397c3.104,10.32,6.057,21.186,8.865,32.604
			c4.606-23.035,10.316-43.37,17.129-61.001L368.45,88.448c1.803-4.606,5.005-8.813,9.616-12.621
			c4.606-3.803,10.315-5.709,17.128-5.709h65.208L284.911,504.641H211.89L36.398,70.118z"/>
		<path fill="#2C3E50" d="M638.297,504.641h-67.313L448.381,196.328h61.603c5.409,0,9.964,1.305,13.673,3.907
			c3.704,2.605,6.259,5.911,7.662,9.916l59.499,164.674c3.404,9.616,6.26,19.035,8.564,28.248c2.301,9.217,4.357,18.434,6.16,27.646
			c1.804-9.212,3.855-18.429,6.16-27.646c2.301-9.213,5.259-18.632,8.865-28.248l61.001-164.674
			c1.399-4.005,3.907-7.311,7.513-9.916c3.606-2.602,7.912-3.907,12.922-3.907h58.598L638.297,504.641z"/>
	</g>
</g>
<g id="Layer_2">
</g>
</svg>
