<?xml version="1.0" encoding="utf-8"?>
<!-- Generator: Adobe Illustrator 16.0.3, SVG Export Plug-In . SVG Version: 6.00 Build 0)  -->
<!DOCTYPE svg PUBLIC "-//W3C//DTD SVG 1.1//EN" "http://www.w3.org/Graphics/SVG/1.1/DTD/svg11.dtd">
<svg version="1.1" xmlns="http://www.w3.org/2000/svg" xmlns:xlink="http://www.w3.org/1999/xlink" x="0px" y="0px" width="800px"
	 height="600px" viewBox="0 0 800 600" enable-background="new 0 0 800 600" xml:space="preserve">
<g id="Layer_1">
	<g>
		<path fill="#2C3E50" d="M385.282,70.118v64.307H192.662v120.5h151.752v62.204H192.662v122.904h192.621v64.607H111.226V70.118
			H385.282z"/>
		<path fill="#2C3E50" d="M578.5,191.52c19.43,0,37.31,3.108,53.64,9.315c16.325,6.212,30.397,15.279,42.22,27.195
			c11.818,11.921,21.035,26.547,27.646,43.873c6.611,17.331,9.916,37.112,9.916,59.349c0,5.611-0.253,10.27-0.751,13.974
			c-0.502,3.709-1.403,6.61-2.704,8.714c-1.306,2.104-3.057,3.606-5.259,4.508c-2.207,0.901-5.01,1.353-8.414,1.353H504.277
			c2.201,31.655,10.714,54.893,25.542,69.716c14.823,14.828,34.454,22.236,58.898,22.236c12.02,0,22.387-1.398,31.102-4.207
			c8.714-2.803,16.325-5.906,22.838-9.314c6.508-3.404,12.217-6.508,17.128-9.316c4.907-2.803,9.663-4.207,14.274-4.207
			c3.005,0,5.606,0.602,7.813,1.804c2.202,1.202,4.104,2.906,5.71,5.108l21.636,27.045c-8.217,9.616-17.429,17.683-27.646,24.19
			c-10.218,6.513-20.885,11.72-32.004,15.626c-11.118,3.906-22.438,6.658-33.956,8.264c-11.522,1.602-22.688,2.404-33.506,2.404
			c-21.438,0-41.37-3.56-59.8-10.668c-18.434-7.109-34.459-17.627-48.08-31.553c-13.626-13.922-24.34-31.148-32.153-51.686
			c-7.813-20.533-11.72-44.324-11.72-71.369c0-21.035,3.404-40.816,10.218-59.349c6.808-18.528,16.574-34.656,29.298-48.38
			c12.72-13.72,28.247-24.589,46.578-32.604C534.777,195.529,555.461,191.52,578.5,191.52z M580.003,244.708
			c-21.636,0-38.567,6.113-50.784,18.331c-12.223,12.222-20.035,29.552-23.439,51.987h139.432c0-9.616-1.305-18.678-3.906-27.195
			c-2.605-8.513-6.61-15.974-12.02-22.388c-5.409-6.409-12.223-11.466-20.435-15.175
			C600.634,246.563,591.018,244.708,580.003,244.708z"/>
	</g>
</g>
<g id="Layer_2">
</g>
</svg>
