<?xml version="1.0" encoding="utf-8"?>
<!-- Generator: Adobe Illustrator 16.0.3, SVG Export Plug-In . SVG Version: 6.00 Build 0)  -->
<!DOCTYPE svg PUBLIC "-//W3C//DTD SVG 1.1//EN" "http://www.w3.org/Graphics/SVG/1.1/DTD/svg11.dtd">
<svg version="1.1" xmlns="http://www.w3.org/2000/svg" xmlns:xlink="http://www.w3.org/1999/xlink" x="0px" y="0px" width="800px"
	 height="600px" viewBox="0 0 800 600" enable-background="new 0 0 800 600" xml:space="preserve">
<g id="Layer_1">
	<g>
		<path fill="#2C3E50" d="M412.473,504.641h-81.436V314.725H127.298v189.916H45.863V70.118h81.436v186.911h203.739V70.118h81.436
			V504.641z"/>
		<path fill="#2C3E50" d="M496.01,504.641V58.098h74.224v171.585c12.02-11.419,25.242-20.631,39.666-27.646
			c14.424-7.01,31.351-10.518,50.784-10.518c16.828,0,31.75,2.855,44.774,8.564c13.021,5.709,23.89,13.724,32.604,24.04
			c8.715,10.32,15.325,22.641,19.833,36.961c4.508,14.325,6.762,30.102,6.762,47.329v196.227h-74.224V308.414
			c0-18.828-4.357-33.402-13.072-43.723c-8.714-10.315-21.786-15.476-39.215-15.476c-12.823,0-24.843,2.906-36.061,8.714
			c-11.222,5.813-21.838,13.724-31.853,23.739v222.971H496.01z"/>
	</g>
</g>
<g id="Layer_2">
</g>
</svg>
