<?xml version="1.0" encoding="utf-8"?>
<!-- Generator: Adobe Illustrator 16.0.3, SVG Export Plug-In . SVG Version: 6.00 Build 0)  -->
<!DOCTYPE svg PUBLIC "-//W3C//DTD SVG 1.1//EN" "http://www.w3.org/Graphics/SVG/1.1/DTD/svg11.dtd">
<svg version="1.1" xmlns="http://www.w3.org/2000/svg" xmlns:xlink="http://www.w3.org/1999/xlink" x="0px" y="0px" width="800px"
	 height="600px" viewBox="0 0 800 600" enable-background="new 0 0 800 600" xml:space="preserve">
<g id="Layer_1">
	<g>
		<path fill="#2C3E50" d="M359.134,504.641H278V70.118h81.135V504.641z"/>
		<path fill="#2C3E50" d="M542.737,106.478c0,6.414-1.306,12.424-3.906,18.03c-2.606,5.611-6.062,10.517-10.367,14.724
			c-4.311,4.207-9.367,7.564-15.175,10.067c-5.813,2.507-12.021,3.756-18.632,3.756c-6.413,0-12.471-1.249-18.181-3.756
			c-5.709-2.502-10.667-5.86-14.874-10.067s-7.564-9.113-10.067-14.724c-2.507-5.606-3.756-11.616-3.756-18.03
			c0-6.611,1.249-12.818,3.756-18.631c2.503-5.808,5.86-10.818,10.067-15.025s9.165-7.56,14.874-10.067
			c5.71-2.502,11.768-3.756,18.181-3.756c6.611,0,12.818,1.254,18.632,3.756c5.808,2.507,10.864,5.86,15.175,10.067
			c4.306,4.207,7.761,9.217,10.367,15.025C541.432,93.66,542.737,99.867,542.737,106.478z M531.619,196.328v308.313h-74.224V196.328
			H531.619z"/>
	</g>
</g>
<g id="Layer_2">
</g>
</svg>
