<?xml version="1.0" encoding="utf-8"?>
<!-- Generator: Adobe Illustrator 16.0.3, SVG Export Plug-In . SVG Version: 6.00 Build 0)  -->
<!DOCTYPE svg PUBLIC "-//W3C//DTD SVG 1.1//EN" "http://www.w3.org/Graphics/SVG/1.1/DTD/svg11.dtd">
<svg version="1.1" xmlns="http://www.w3.org/2000/svg" xmlns:xlink="http://www.w3.org/1999/xlink" x="0px" y="0px" width="800px"
	 height="600px" viewBox="0 0 800 600" enable-background="new 0 0 800 600" xml:space="preserve">
<g id="Layer_1">
	<g>
		<path fill="#2C3E50" d="M270.641,412.239c18.228,0,34.107-1.653,47.629-4.958c13.522-3.306,26.393-7.86,38.614-13.673v-79.032
			h-54.391c-5.211,0-9.315-1.45-12.32-4.356c-3.005-2.901-4.507-6.461-4.507-10.668v-45.676h144.54v175.792
			c-11.02,8.016-22.49,14.979-34.407,20.885c-11.921,5.912-24.641,10.771-38.164,14.574c-13.522,3.809-27.998,6.658-43.422,8.564
			c-15.429,1.902-32.055,2.855-49.883,2.855c-31.656,0-60.805-5.508-87.446-16.528c-26.646-11.015-49.686-26.341-69.115-45.976
			c-19.434-19.632-34.609-43.07-45.526-70.318c-10.921-27.242-16.377-56.991-16.377-89.248c0-32.651,5.306-62.603,15.927-89.849
			c10.616-27.242,25.693-50.681,45.225-70.317c19.533-19.631,43.22-34.858,71.068-45.676c27.843-10.818,59.095-16.227,93.756-16.227
			c35.459,0,66.157,5.259,92.104,15.776c25.941,10.518,47.93,24.19,65.96,41.018l-23.439,36.661
			c-4.61,7.414-10.719,11.119-18.331,11.119c-4.808,0-9.719-1.601-14.725-4.808c-6.414-3.803-12.973-7.611-19.683-11.419
			c-6.714-3.803-14.124-7.109-22.237-9.917c-8.114-2.803-17.232-5.108-27.346-6.912c-10.118-1.803-21.786-2.705-35.008-2.705
			c-21.438,0-40.821,3.606-58.146,10.818c-17.331,7.212-32.106,17.533-44.324,30.952c-12.222,13.424-21.636,29.552-28.247,48.38
			c-6.611,18.833-9.917,39.868-9.917,63.105c0,25.045,3.502,47.329,10.518,66.861c7.01,19.533,16.828,36.014,29.449,49.433
			c12.621,13.424,27.646,23.692,45.075,30.801C230.975,408.686,250.005,412.239,270.641,412.239z"/>
		<path fill="#2C3E50" d="M608.098,158.016c13.222,0,25.641,1.353,37.262,4.057c11.616,2.704,22.237,6.663,31.854,11.87h88.647
			v27.646c0,4.611-1.202,8.217-3.606,10.818c-2.404,2.606-6.513,4.409-12.32,5.409l-27.646,5.108
			c2.001,5.212,3.555,10.719,4.658,16.527c1.099,5.813,1.652,11.921,1.652,18.331c0,15.227-3.057,28.999-9.165,41.319
			c-6.113,12.321-14.527,22.792-25.242,31.403c-10.719,8.615-23.438,15.277-38.163,19.982c-14.725,4.709-30.703,7.063-47.93,7.063
			c-11.621,0-22.941-1.1-33.957-3.307c-9.615,5.855-14.424,12.415-14.424,19.674c0,6.259,2.854,10.852,8.564,13.776
			c5.709,2.925,13.222,4.991,22.537,6.202s19.88,1.817,31.703,1.817c11.818,0,23.937,0.503,36.36,1.507
			c12.419,1.005,24.538,2.766,36.36,5.277c11.818,2.512,22.388,6.48,31.703,11.908s16.828,12.818,22.537,22.162
			c5.71,9.343,8.564,21.354,8.564,36.021c0,13.668-3.357,26.933-10.066,39.798c-6.715,12.86-16.43,24.316-29.148,34.369
			c-12.725,10.044-28.299,18.134-46.729,24.271c-18.434,6.127-39.469,9.193-63.104,9.193c-23.439,0-43.774-2.254-61.002-6.761
			c-17.231-4.508-31.505-10.518-42.821-18.03c-11.32-7.513-19.786-16.181-25.392-25.993c-5.611-9.818-8.414-20.035-8.414-30.651
			c0-14.424,4.404-26.547,13.222-36.36c8.813-9.813,21.035-17.626,36.661-23.438c-7.616-4.207-13.725-9.814-18.33-16.828
			c-4.611-7.011-6.912-16.124-6.912-27.346c0-4.606,0.799-9.363,2.404-14.273c1.601-4.907,4.057-9.767,7.362-14.574
			c3.306-4.809,7.461-9.363,12.471-13.674c5.005-4.305,10.916-8.16,17.729-11.568c-15.626-8.414-27.899-19.631-36.812-33.656
			c-8.916-14.021-13.372-30.449-13.372-49.282c0-15.222,3.052-28.998,9.165-41.319c6.108-12.32,14.621-22.838,25.543-31.552
			c10.916-8.715,23.838-15.373,38.765-19.983C574.188,160.322,590.467,158.016,608.098,158.016z M689.533,484.684
			c0-6.137-1.804-11.146-5.409-15.03c-3.606-3.888-8.518-6.901-14.725-9.052c-6.212-2.15-13.476-3.733-21.786-4.757
			c-8.315-1.023-17.129-1.536-26.444-1.536s-18.932,0-28.848,0c-9.917,0-19.485-1.098-28.698-3.305
			c-8.414,4.611-15.175,10.066-20.283,16.377s-7.663,13.57-7.663,21.787c0,5.408,1.353,10.465,4.057,15.175
			c2.705,4.704,7.011,8.761,12.922,12.17c5.906,3.404,13.569,6.057,22.988,7.963c9.414,1.902,20.932,2.855,34.558,2.855
			c13.822,0,25.739-1.075,35.759-3.222c10.016-2.15,18.279-5.112,24.792-8.897c6.508-3.784,11.269-8.287,14.273-13.499
			C688.03,496.492,689.533,490.815,689.533,484.684z M608.098,310.069c9.212,0,17.227-1.249,24.04-3.757
			c6.808-2.502,12.471-5.958,16.978-10.367c4.508-4.404,7.912-9.715,10.218-15.927c2.301-6.207,3.455-13.02,3.455-20.434
			c0-15.222-4.559-27.294-13.673-36.21c-9.118-8.912-22.791-13.372-41.018-13.372c-18.232,0-31.905,4.46-41.019,13.372
			c-9.118,8.917-13.673,20.988-13.673,36.21c0,7.212,1.15,13.926,3.456,20.133c2.301,6.212,5.709,11.569,10.217,16.077
			c4.508,4.508,10.217,8.015,17.129,10.517C591.119,308.82,599.082,310.069,608.098,310.069z"/>
	</g>
</g>
<g id="Layer_2">
</g>
</svg>
