<?xml version="1.0" encoding="utf-8"?>
<!-- Generator: Adobe Illustrator 16.0.3, SVG Export Plug-In . SVG Version: 6.00 Build 0)  -->
<!DOCTYPE svg PUBLIC "-//W3C//DTD SVG 1.1//EN" "http://www.w3.org/Graphics/SVG/1.1/DTD/svg11.dtd">
<svg version="1.1" xmlns="http://www.w3.org/2000/svg" xmlns:xlink="http://www.w3.org/1999/xlink" x="0px" y="0px" width="800px"
	 height="600px" viewBox="0 0 800 600" enable-background="new 0 0 800 600" xml:space="preserve">
<g id="Layer_1">
	<g>
		<path fill="#2C3E50" d="M445.376,288.45c0,29.15-4.859,56.147-14.574,80.987c-9.72,24.845-23.375,46.338-40.976,64.488
			c-17.6,18.149-38.775,32.313-63.525,42.487s-52.16,15.263-82.225,15.263c-30.069,0-57.522-5.088-82.362-15.263
			c-24.845-10.175-46.11-24.338-63.8-42.487c-17.694-18.15-31.397-39.644-41.112-64.488c-9.72-24.84-14.575-51.837-14.575-80.987
			c0-29.15,4.855-56.143,14.575-80.987c9.715-24.84,23.418-46.337,41.112-64.487c17.69-18.15,38.956-32.313,63.8-42.488
			c24.84-10.175,52.293-15.262,82.362-15.262c30.065,0,57.475,5.135,82.225,15.4c24.75,10.27,45.925,24.432,63.525,42.487
			c17.601,18.06,31.256,39.51,40.976,64.35C440.517,232.308,445.376,259.3,445.376,288.45z M369.476,288.45
			c0-21.815-2.887-41.387-8.662-58.712c-5.775-17.325-14.072-32.038-24.888-44.137c-10.819-12.1-23.972-21.355-39.462-27.775
			c-15.495-6.415-32.957-9.625-52.388-9.625c-19.435,0-36.944,3.21-52.525,9.625c-15.585,6.42-28.832,15.675-39.737,27.775
			c-10.91,12.1-19.297,26.813-25.163,44.137c-5.87,17.325-8.8,36.897-8.8,58.712c0,21.819,2.931,41.388,8.8,58.713
			c5.865,17.325,14.252,31.994,25.163,44c10.905,12.01,24.152,21.222,39.737,27.638c15.581,6.419,33.09,9.625,52.525,9.625
			c19.431,0,36.893-3.206,52.388-9.625c15.49-6.416,28.643-15.628,39.462-27.638c10.815-12.006,19.112-26.675,24.888-44
			C366.589,329.838,369.476,310.27,369.476,288.45z"/>
		<path fill="#2C3E50" d="M620.276,200.726c21.08,0,40.193,3.395,57.338,10.175c17.14,6.785,31.762,16.41,43.862,28.875
			c12.1,12.47,21.45,27.685,28.05,45.65c6.6,17.969,9.9,38.044,9.9,60.225c0,22.369-3.301,42.535-9.9,60.5
			c-6.6,17.97-15.95,33.275-28.05,45.925c-12.101,12.65-26.723,22.37-43.862,29.15c-17.145,6.78-36.258,10.175-57.338,10.175
			c-21.085,0-40.244-3.395-57.475-10.175c-17.235-6.78-31.947-16.5-44.138-29.15c-12.194-12.649-21.635-27.955-28.325-45.925
			c-6.694-17.965-10.037-38.131-10.037-60.5c0-22.181,3.343-42.256,10.037-60.225c6.69-17.965,16.131-33.18,28.325-45.65
			c12.19-12.465,26.902-22.09,44.138-28.875C580.032,204.12,599.191,200.726,620.276,200.726z M620.276,439.15
			c23.465,0,40.838-7.881,52.112-23.65c11.275-15.765,16.913-38.865,16.913-69.3c0-30.431-5.638-53.625-16.913-69.575
			c-11.274-15.95-28.647-23.925-52.112-23.925c-23.835,0-41.435,8.022-52.8,24.063c-11.37,16.045-17.05,39.188-17.05,69.438
			s5.68,53.308,17.05,69.163C578.842,431.223,596.441,439.15,620.276,439.15z"/>
	</g>
</g>
<g id="Layer_2">
</g>
</svg>
