<?xml version="1.0" encoding="utf-8"?>
<!-- Generator: Adobe Illustrator 16.0.3, SVG Export Plug-In . SVG Version: 6.00 Build 0)  -->
<!DOCTYPE svg PUBLIC "-//W3C//DTD SVG 1.1//EN" "http://www.w3.org/Graphics/SVG/1.1/DTD/svg11.dtd">
<svg version="1.1" xmlns="http://www.w3.org/2000/svg" xmlns:xlink="http://www.w3.org/1999/xlink" x="0px" y="0px" width="800px"
	 height="600px" viewBox="0 0 800 600" enable-background="new 0 0 800 600" xml:space="preserve">
<g id="Layer_1">
	<g>
		<path fill="#2C3E50" d="M204.59,333.188c2.172,5.175,4.31,10.389,6.413,15.637c2.099-5.399,4.275-10.723,6.525-15.975
			c2.25-5.249,4.647-10.272,7.2-15.075l96.3-180.225c1.199-2.25,2.436-4.05,3.712-5.4c1.272-1.35,2.7-2.324,4.275-2.925
			c1.575-0.598,3.336-0.974,5.288-1.125c1.948-0.147,4.275-0.225,6.975-0.225h45.675v325.35h-53.325v-210.15
			c0-3.899,0.112-8.174,0.337-12.825c0.225-4.647,0.563-9.373,1.012-14.175l-98.325,184.5c-2.25,4.201-5.175,7.464-8.775,9.788
			c-3.6,2.327-7.801,3.487-12.6,3.487h-8.325c-4.802,0-9-1.16-12.6-3.487c-3.6-2.324-6.525-5.587-8.775-9.788L85.902,215.399
			c0.598,4.95,1.012,9.788,1.237,14.513s0.337,9.112,0.337,13.163v210.15H34.152v-325.35h45.675c2.7,0,5.024,0.078,6.975,0.225
			c1.948,0.151,3.712,0.527,5.288,1.125c1.575,0.601,3.038,1.575,4.387,2.925c1.35,1.35,2.623,3.15,3.825,5.4l97.2,180.675
			C200.051,323.027,202.414,328.012,204.59,333.188z"/>
		<path fill="#2C3E50" d="M449.499,453.225v-230.85h33.975c7.2,0,11.925,3.375,14.175,10.125l3.601,17.1
			c4.05-4.5,8.286-8.624,12.712-12.375c4.423-3.748,9.148-6.975,14.176-9.675c5.023-2.7,10.424-4.838,16.199-6.413
			c5.773-1.575,12.111-2.363,19.013-2.363c14.548,0,26.512,3.938,35.888,11.813c9.373,7.875,16.387,18.338,21.037,31.388
			c3.601-7.65,8.101-14.21,13.5-19.688c5.4-5.474,11.324-9.935,17.775-13.388c6.447-3.449,13.311-5.998,20.588-7.65
			c7.273-1.649,14.586-2.475,21.938-2.475c12.747,0,24.074,1.951,33.975,5.85c9.9,3.902,18.225,9.601,24.975,17.1
			c6.75,7.502,11.887,16.65,15.413,27.45c3.522,10.8,5.287,23.175,5.287,37.125v146.925h-55.575V306.3
			c0-14.699-3.227-25.763-9.675-33.188c-6.451-7.425-15.901-11.138-28.35-11.138c-5.702,0-10.99,0.978-15.862,2.925
			c-4.877,1.951-9.151,4.764-12.825,8.438c-3.678,3.678-6.563,8.29-8.663,13.838c-2.102,5.551-3.149,11.925-3.149,19.125v146.925
			h-55.8V306.3c0-15.448-3.115-26.698-9.338-33.75c-6.227-7.049-15.412-10.575-27.563-10.575c-7.952,0-15.412,1.99-22.388,5.962
			c-6.975,3.976-13.465,9.415-19.462,16.313v168.975H449.499z"/>
	</g>
</g>
<g id="Layer_2">
</g>
</svg>
