<?xml version="1.0" encoding="utf-8"?>
<!-- Generator: Adobe Illustrator 16.0.3, SVG Export Plug-In . SVG Version: 6.00 Build 0)  -->
<!DOCTYPE svg PUBLIC "-//W3C//DTD SVG 1.1//EN" "http://www.w3.org/Graphics/SVG/1.1/DTD/svg11.dtd">
<svg version="1.1" id="Layer_1" xmlns="http://www.w3.org/2000/svg" xmlns:xlink="http://www.w3.org/1999/xlink" x="0px" y="0px"
	 width="800px" height="600px" viewBox="0 0 800 600" enable-background="new 0 0 800 600" xml:space="preserve">
<g>
	<path fill="#2C3E50" d="M76.818,504.641V70.118h149.95c28.444,0,52.737,2.705,72.871,8.113
		c20.133,5.409,36.661,13.124,49.583,23.139c12.921,10.02,22.387,22.138,28.397,36.36c6.01,14.227,9.015,30.252,9.015,48.08
		c0,10.217-1.502,19.983-4.507,29.299c-3.005,9.315-7.663,18.03-13.974,26.144c-6.31,8.113-14.325,15.476-24.04,22.087
		c-9.72,6.611-21.289,12.222-34.708,16.828c59.696,13.424,89.549,45.677,89.549,96.761c0,18.434-3.507,35.459-10.517,51.086
		c-7.015,15.625-17.232,29.102-30.651,40.416c-13.424,11.321-29.951,20.186-49.583,26.595c-19.636,6.414-42.07,9.616-67.312,9.616
		H76.818z M157.652,258.23h64.607c27.444,0,48.277-5.005,62.504-15.025c14.222-10.015,21.335-25.941,21.335-47.779
		c0-22.636-6.414-38.765-19.232-48.381c-12.823-9.616-32.857-14.424-60.1-14.424h-69.115V258.23z M157.652,314.123v127.412h82.037
		c15.025,0,27.594-1.803,37.712-5.408c10.114-3.606,18.228-8.414,24.341-14.424c6.108-6.011,10.518-13.021,13.222-21.035
		c2.705-8.011,4.057-16.527,4.057-25.543c0-9.414-1.502-17.879-4.508-25.393c-3.005-7.512-7.714-13.922-14.124-19.231
		c-6.414-5.306-14.625-9.362-24.641-12.171c-10.02-2.803-22.139-4.207-36.361-4.207H157.652z"/>
	<path fill="#2C3E50" d="M465.058,504.641V58.098h74.224V234.19c12.217-13.02,26.04-23.387,41.469-31.102
		c15.425-7.709,33.454-11.569,54.09-11.569c16.828,0,32.201,3.456,46.127,10.367c13.922,6.912,25.941,16.979,36.061,30.2
		c10.113,13.222,17.927,29.553,23.438,48.982c5.508,19.434,8.264,41.769,8.264,67.011c0,23.04-3.108,44.375-9.315,64.006
		c-6.212,19.637-15.076,36.662-26.594,51.086c-11.522,14.424-25.444,25.692-41.77,33.807c-16.331,8.113-34.609,12.17-54.842,12.17
		c-9.419,0-18.029-0.953-25.843-2.855c-7.813-1.901-14.927-4.555-21.336-7.963c-6.413-3.404-12.372-7.56-17.879-12.471
		c-5.513-4.906-10.771-10.367-15.776-16.377l-3.306,20.734c-1.202,5.211-3.259,8.916-6.16,11.118
		c-2.906,2.207-6.864,3.306-11.87,3.306H465.058z M609.298,249.216c-15.429,0-28.6,3.258-39.516,9.766
		c-10.922,6.512-21.087,15.678-30.501,27.496v138.229c8.414,10.42,17.579,17.684,27.496,21.787c9.916,4.107,20.683,6.16,32.304,6.16
		c11.217,0,21.335-2.104,30.351-6.311c9.015-4.207,16.678-10.616,22.988-19.232c6.311-8.611,11.165-19.48,14.574-32.604
		c3.403-13.119,5.108-28.595,5.108-46.428c0-18.029-1.456-33.304-4.357-45.826c-2.906-12.518-7.062-22.688-12.471-30.501
		s-11.974-13.522-19.683-17.128C627.877,251.019,619.111,249.216,609.298,249.216z"/>
</g>
</svg>
