<?xml version="1.0" encoding="utf-8"?>
<!-- Generator: Adobe Illustrator 16.0.3, SVG Export Plug-In . SVG Version: 6.00 Build 0)  -->
<!DOCTYPE svg PUBLIC "-//W3C//DTD SVG 1.1//EN" "http://www.w3.org/Graphics/SVG/1.1/DTD/svg11.dtd">
<svg version="1.1" xmlns="http://www.w3.org/2000/svg" xmlns:xlink="http://www.w3.org/1999/xlink" x="0px" y="0px" width="800px"
	 height="600px" viewBox="0 0 800 600" enable-background="new 0 0 800 600" xml:space="preserve">
<g id="Layer_1">
	<g>
		<path fill="#2C3E50" d="M229.168,439.432c15.626,0,29.599-2.601,41.919-7.813c12.321-5.207,22.735-12.518,31.252-21.937
			c8.513-9.414,15.025-20.833,19.533-34.257c4.507-13.42,6.761-28.444,6.761-45.075V70.118h80.834v260.233
			c0,25.843-4.16,49.733-12.471,71.669c-8.315,21.938-20.284,40.868-35.91,56.795c-15.626,15.926-34.558,28.35-56.794,37.262
			c-22.237,8.912-47.282,13.373-75.125,13.373c-27.848,0-52.888-4.461-75.125-13.373c-22.237-8.912-41.122-21.336-56.645-37.262
			c-15.527-15.927-27.449-34.857-35.759-56.795c-8.315-21.936-12.471-45.826-12.471-71.669V70.118h80.834v259.933
			c0,16.631,2.253,31.655,6.761,45.074c4.507,13.424,10.968,24.895,19.382,34.407c8.414,9.518,18.781,16.88,31.102,22.087
			C199.568,436.831,213.542,439.432,229.168,439.432z"/>
		<path fill="#2C3E50" d="M555.509,196.328v195.926c0,18.832,4.357,33.406,13.071,43.723c8.715,10.32,21.786,15.476,39.216,15.476
			c12.818,0,24.838-2.854,36.06-8.564c11.218-5.71,21.833-13.569,31.854-23.589V196.328h74.224v308.313h-45.376
			c-9.616,0-15.927-4.508-18.932-13.522l-5.108-24.642c-6.414,6.414-13.024,12.273-19.833,17.58
			c-6.813,5.311-14.076,9.818-21.786,13.522c-7.715,3.709-16.03,6.61-24.941,8.714c-8.917,2.104-18.48,3.156-28.698,3.156
			c-16.827,0-31.702-2.855-44.624-8.564c-12.921-5.71-23.791-13.771-32.604-24.19c-8.817-10.415-15.476-22.786-19.982-37.112
			c-4.508-14.32-6.762-30.097-6.762-47.328V196.328H555.509z"/>
	</g>
</g>
<g id="Layer_2">
</g>
</svg>
