<?xml version="1.0" encoding="utf-8"?>
<!-- Generator: Adobe Illustrator 16.0.3, SVG Export Plug-In . SVG Version: 6.00 Build 0)  -->
<!DOCTYPE svg PUBLIC "-//W3C//DTD SVG 1.1//EN" "http://www.w3.org/Graphics/SVG/1.1/DTD/svg11.dtd">
<svg version="1.1" xmlns="http://www.w3.org/2000/svg" xmlns:xlink="http://www.w3.org/1999/xlink" x="0px" y="0px" width="800px"
	 height="600px" viewBox="0 0 800 600" enable-background="new 0 0 800 600" xml:space="preserve">
<g id="Layer_1">
	<g>
		<path fill="#2C3E50" d="M296.176,301.992v168.881h-80.834V301.992L56.978,36.351h71.219c7.01,0,12.569,1.705,16.678,5.108
			c4.104,3.409,7.559,7.714,10.367,12.921l79.632,145.142c4.606,8.616,8.611,16.781,12.02,24.491
			c3.404,7.714,6.508,15.279,9.315,22.688c2.601-7.611,5.559-15.274,8.865-22.988c3.306-7.71,7.259-15.776,11.87-24.19
			L355.975,54.38c2.202-4.404,5.508-8.513,9.917-12.32c4.404-3.803,10.015-5.709,16.828-5.709h71.519L296.176,301.992z"/>
		<path fill="#2C3E50" d="M571.438,555.615c-2.207,5.207-5.061,9.164-8.564,11.869c-3.506,2.705-8.863,4.057-16.076,4.057h-55.291
			l57.695-123.506L424.494,162.561h64.908c6.01,0,10.615,1.404,13.822,4.207c3.203,2.808,5.605,6.01,7.213,9.616l65.809,159.867
			c2.203,5.211,4.104,10.62,5.709,16.227c1.602,5.611,3.006,11.222,4.207,16.828c1.602-5.809,3.354-11.419,5.26-16.828
			c1.9-5.409,3.953-10.916,6.16-16.527l61.902-159.566c1.602-4.005,4.254-7.311,7.963-9.916c3.705-2.602,7.861-3.907,12.471-3.907
			h59.5L571.438,555.615z"/>
	</g>
</g>
<g id="Layer_2">
</g>
</svg>
