<?xml version="1.0" encoding="utf-8"?>
<!-- Generator: Adobe Illustrator 16.0.3, SVG Export Plug-In . SVG Version: 6.00 Build 0)  -->
<!DOCTYPE svg PUBLIC "-//W3C//DTD SVG 1.1//EN" "http://www.w3.org/Graphics/SVG/1.1/DTD/svg11.dtd">
<svg version="1.1" xmlns="http://www.w3.org/2000/svg" xmlns:xlink="http://www.w3.org/1999/xlink" x="0px" y="0px" width="800px"
	 height="600px" viewBox="0 0 800 600" enable-background="new 0 0 800 600" xml:space="preserve">
<g id="Layer_1">
	<g>
		<path fill="#2C3E50" d="M181.843,281.069L43.313,70.118h80.534c5.606,0,9.663,0.751,12.17,2.254
			c2.502,1.502,4.756,3.958,6.761,7.362l98.864,159.566c1-2.602,2.104-5.156,3.306-7.663c1.202-2.502,2.601-5.057,4.207-7.663
			l90.451-142.737c4.404-7.409,10.114-11.119,17.128-11.119h77.529L294.23,277.763L438.17,504.641h-80.834
			c-5.409,0-9.767-1.399-13.072-4.207c-3.306-2.803-6.062-6.01-8.264-9.616L235.332,324.341c-0.803,2.403-1.704,4.657-2.704,6.761
			c-1.005,2.104-2.005,4.057-3.005,5.859l-96.46,153.856c-2.207,3.409-4.911,6.564-8.113,9.466
			c-3.207,2.906-7.212,4.357-12.02,4.357H37.303L181.843,281.069z"/>
		<path fill="#2C3E50" d="M554.455,345.676L453.187,196.328h71.52c5.408,0,9.414,0.751,12.02,2.254
			c2.602,1.502,4.906,3.958,6.911,7.362l64.607,103.072c1.001-3.404,2.254-6.809,3.757-10.217c1.502-3.404,3.353-6.809,5.56-10.217
			l51.986-81.135c2.403-3.803,4.906-6.611,7.512-8.414c2.602-1.803,5.809-2.705,9.616-2.705h68.214L653.319,342.371l105.776,162.27
			h-71.52c-5.408,0-9.766-1.399-13.071-4.207c-3.306-2.803-6.062-6.01-8.264-9.616l-65.509-107.278
			c-1.804,7.212-4.311,13.223-7.513,18.03l-57.696,89.248c-2.207,3.409-4.911,6.564-8.113,9.466
			c-3.207,2.906-7.212,4.357-12.021,4.357h-66.41L554.455,345.676z"/>
	</g>
</g>
<g id="Layer_2">
</g>
</svg>
