<?xml version="1.0" encoding="utf-8"?>
<!-- Generator: Adobe Illustrator 16.0.3, SVG Export Plug-In . SVG Version: 6.00 Build 0)  -->
<!DOCTYPE svg PUBLIC "-//W3C//DTD SVG 1.1//EN" "http://www.w3.org/Graphics/SVG/1.1/DTD/svg11.dtd">
<svg version="1.1" xmlns="http://www.w3.org/2000/svg" xmlns:xlink="http://www.w3.org/1999/xlink" x="0px" y="0px" width="800px"
	 height="600px" viewBox="0 0 800 600" enable-background="new 0 0 800 600" xml:space="preserve">
<g id="Layer_1">
	<g>
		<path fill="#2C3E50" d="M443.877,70.118v64.307H251.256v128.614h162.57v64.608h-162.57v176.994h-81.436V70.118H443.877z"/>
		<path fill="#2C3E50" d="M516.293,504.641v-252.42l-26.744-4.207c-5.813-1-10.471-3.005-13.974-6.01
			c-3.507-3.005-5.259-7.212-5.259-12.621v-30.351h45.977v-22.838c0-17.626,2.652-33.454,7.963-47.479
			c5.306-14.021,12.922-25.942,22.838-35.76c9.917-9.813,21.983-17.326,36.211-22.538c14.222-5.207,30.247-7.813,48.08-7.813
			c14.222,0,27.443,1.906,39.665,5.709l-1.502,37.262c-0.404,5.813-3.108,9.419-8.113,10.818c-5.01,1.404-10.818,2.104-17.43,2.104
			c-8.817,0-16.678,0.953-23.589,2.855c-6.911,1.906-12.771,5.211-17.579,9.917c-4.809,4.709-8.466,10.921-10.969,18.631
			c-2.507,7.714-3.756,17.279-3.756,28.698v20.434h80.233v52.888h-77.829v252.721H516.293z"/>
	</g>
</g>
<g id="Layer_2">
</g>
</svg>
