<?xml version="1.0" encoding="utf-8"?>
<!-- Generator: Adobe Illustrator 16.0.3, SVG Export Plug-In . SVG Version: 6.00 Build 0)  -->
<!DOCTYPE svg PUBLIC "-//W3C//DTD SVG 1.1//EN" "http://www.w3.org/Graphics/SVG/1.1/DTD/svg11.dtd">
<svg version="1.1" xmlns="http://www.w3.org/2000/svg" xmlns:xlink="http://www.w3.org/1999/xlink" x="0px" y="0px" width="800px"
	 height="600px" viewBox="0 0 800 600" enable-background="new 0 0 800 600" xml:space="preserve">
<g id="Layer_1">
	<g>
		<path fill="#2C3E50" d="M384.225,149.149c-2.207,4.409-4.761,7.513-7.663,9.316c-2.906,1.803-6.362,2.704-10.367,2.704
			c-4.01,0-8.517-1.549-13.522-4.658c-5.01-3.104-10.921-6.559-17.729-10.367c-6.813-3.803-14.776-7.259-23.89-10.367
			c-9.119-3.104-19.885-4.658-32.304-4.658c-11.222,0-20.988,1.352-29.299,4.057c-8.315,2.705-15.326,6.461-21.035,11.269
			c-5.709,4.808-9.968,10.569-12.771,17.278c-2.808,6.714-4.207,14.077-4.207,22.087c0,10.217,2.854,18.734,8.564,25.542
			c5.709,6.813,13.269,12.621,22.688,17.429c9.414,4.808,20.133,9.118,32.153,12.921c12.02,3.808,24.289,7.865,36.812,12.17
			c12.518,4.31,24.791,9.315,36.811,15.025s22.735,12.921,32.153,21.636c9.415,8.715,16.979,19.382,22.688,32.003
			c5.709,12.621,8.564,27.947,8.564,45.977c0,19.637-3.357,38.014-10.066,55.143c-6.715,17.128-16.528,32.055-29.45,44.773
			c-12.921,12.725-28.698,22.74-47.329,30.051s-39.966,10.969-64.006,10.969c-13.823,0-27.449-1.354-40.868-4.057
			c-13.424-2.705-26.294-6.561-38.614-11.57c-12.32-5.005-23.843-11.015-34.558-18.029c-10.719-7.01-20.284-14.823-28.698-23.439
			l23.439-38.764c2.202-2.804,4.855-5.156,7.963-7.063c3.104-1.901,6.56-2.854,10.367-2.854c5.005,0,10.414,2.056,16.227,6.16
			c5.808,4.108,12.668,8.667,20.584,13.673c7.912,5.01,17.227,9.568,27.946,13.672c10.715,4.109,23.589,6.161,38.614,6.161
			c23.035,0,40.868-5.456,53.489-16.378c12.621-10.916,18.931-26.594,18.931-47.027c0-11.42-2.854-20.734-8.564-27.947
			c-5.709-7.212-13.274-13.269-22.688-18.18c-9.419-4.906-20.133-9.063-32.153-12.471c-12.02-3.404-24.242-7.109-36.661-11.119
			c-12.424-4.005-24.641-8.813-36.661-14.424c-12.02-5.606-22.739-12.921-32.153-21.937c-9.419-9.015-16.978-20.284-22.688-33.806
			c-5.709-13.522-8.564-30.2-8.564-50.033c0-15.823,3.155-31.252,9.466-46.277s15.522-28.346,27.646-39.967
			c12.119-11.616,26.993-20.932,44.624-27.946c17.626-7.01,37.76-10.518,60.4-10.518c25.641,0,49.282,4.01,70.918,12.02
			c21.636,8.015,40.065,19.232,55.292,33.656L384.225,149.149z"/>
		<path fill="#2C3E50" d="M652.571,256.428c-2.005,3.207-4.108,5.46-6.311,6.761c-2.207,1.305-5.01,1.953-8.414,1.953
			c-3.606,0-7.466-1-11.569-3.005c-4.108-2-8.865-4.254-14.274-6.761c-5.408-2.503-11.568-4.756-18.48-6.761
			c-6.911-2-15.076-3.005-24.49-3.005c-14.626,0-26.144,3.108-34.558,9.316c-8.414,6.212-12.621,14.325-12.621,24.34
			c0,6.611,2.15,12.17,6.461,16.678c4.306,4.507,10.015,8.466,17.128,11.869c7.109,3.409,15.176,6.461,24.19,9.166
			s18.228,5.662,27.646,8.865c9.414,3.206,18.631,6.863,27.646,10.968c9.015,4.108,17.077,9.315,24.19,15.626
			c7.108,6.311,12.818,13.875,17.129,22.688c4.305,8.818,6.46,19.434,6.46,31.854c0,14.828-2.704,28.5-8.113,41.018
			c-5.409,12.522-13.325,23.341-23.739,32.454c-10.419,9.118-23.289,16.228-38.614,21.335c-15.325,5.109-32.905,7.664-52.738,7.664
			c-10.62,0-20.987-0.953-31.102-2.855c-10.118-1.906-19.833-4.555-29.148-7.963c-9.315-3.404-17.931-7.41-25.843-12.02
			c-7.916-4.607-14.875-9.617-20.885-15.025l17.129-28.247c2.201-3.404,4.808-6.011,7.813-7.813s6.809-2.704,11.419-2.704
			c4.606,0,8.964,1.306,13.072,3.906c4.104,2.606,8.864,5.409,14.273,8.414s11.767,5.813,19.082,8.414
			c7.311,2.606,16.574,3.906,27.796,3.906c8.813,0,16.377-1.052,22.688-3.155s11.518-4.854,15.626-8.264
			c4.104-3.404,7.109-7.362,9.016-11.869c1.901-4.508,2.854-9.166,2.854-13.974c0-7.212-2.155-13.118-6.461-17.729
			c-4.311-4.605-10.02-8.611-17.129-12.02c-7.113-3.404-15.227-6.461-24.34-9.166c-9.118-2.704-18.434-5.658-27.946-8.865
			c-9.518-3.201-18.833-6.957-27.947-11.268c-9.118-4.307-17.231-9.767-24.341-16.378c-7.113-6.61-12.822-14.724-17.128-24.341
			c-4.31-9.615-6.46-21.231-6.46-34.857c0-12.621,2.502-24.641,7.512-36.06c5.006-11.419,12.367-21.382,22.087-29.9
			c9.715-8.513,21.833-15.325,36.36-20.434c14.522-5.109,31.299-7.663,50.334-7.663c21.232,0,40.567,3.507,57.996,10.518
			c17.43,7.015,31.952,16.227,43.572,27.646L652.571,256.428z"/>
	</g>
</g>
<g id="Layer_2">
</g>
</svg>
