<?xml version="1.0" encoding="utf-8"?>
<!-- Generator: Adobe Illustrator 16.0.3, SVG Export Plug-In . SVG Version: 6.00 Build 0)  -->
<!DOCTYPE svg PUBLIC "-//W3C//DTD SVG 1.1//EN" "http://www.w3.org/Graphics/SVG/1.1/DTD/svg11.dtd">
<svg version="1.1" xmlns="http://www.w3.org/2000/svg" xmlns:xlink="http://www.w3.org/1999/xlink" x="0px" y="0px" width="800px"
	 height="600px" viewBox="0 0 800 600" enable-background="new 0 0 800 600" xml:space="preserve">
<g id="Layer_1">
	<g>
		<path fill="#2C3E50" d="M151.938,252.221h18.931c7.611,0,13.922-1.052,18.932-3.155c5.005-2.104,9.315-5.456,12.921-10.067
			l119.9-151.752c5.005-6.409,10.264-10.865,15.776-13.372c5.508-2.503,12.471-3.756,20.885-3.756h69.716L282.655,250.718
			c-4.611,5.611-9.015,10.32-13.222,14.124c-4.207,3.808-8.715,6.911-13.522,9.315c6.611,2.404,12.569,5.813,17.879,10.217
			c5.306,4.409,10.466,10.02,15.476,16.828l150.851,203.438h-71.519c-9.616,0-16.781-1.352-21.486-4.057
			c-4.709-2.705-8.667-6.658-11.87-11.869L212.338,328.247c-4.01-5.207-8.517-8.964-13.522-11.269
			c-5.01-2.301-12.124-3.456-21.335-3.456h-25.542v191.118H71.104V69.817h80.834V252.221z"/>
		<path fill="#2C3E50" d="M558.813,58.098v255.726h13.823c5.005,0,8.911-0.7,11.72-2.104c2.803-1.399,5.808-4.005,9.015-7.813
			l76.627-94.657c3.404-4.005,7.011-7.16,10.818-9.466c3.804-2.301,8.813-3.456,15.025-3.456h67.913l-95.86,114.491
			c-3.408,4.207-6.911,8.066-10.517,11.568c-3.606,3.508-7.513,6.564-11.72,9.166c4.207,3.005,7.911,6.512,11.118,10.518
			c3.202,4.01,6.409,8.315,9.616,12.922l102.771,149.648h-67.011c-5.813,0-10.72-1-14.725-3.005
			c-4.01-2.001-7.616-5.409-10.818-10.218l-78.431-116.895c-3.005-4.605-6.01-7.61-9.015-9.014c-3.005-1.4-7.513-2.104-13.522-2.104
			h-16.828v141.234H484.59V58.098H558.813z"/>
	</g>
</g>
<g id="Layer_2">
</g>
</svg>
