<?xml version="1.0" encoding="utf-8"?>
<!-- Generator: Adobe Illustrator 16.0.3, SVG Export Plug-In . SVG Version: 6.00 Build 0)  -->
<!DOCTYPE svg PUBLIC "-//W3C//DTD SVG 1.1//EN" "http://www.w3.org/Graphics/SVG/1.1/DTD/svg11.dtd">
<svg version="1.1" xmlns="http://www.w3.org/2000/svg" xmlns:xlink="http://www.w3.org/1999/xlink" x="0px" y="0px" width="800px"
	 height="600px" viewBox="0 0 800 600" enable-background="new 0 0 800 600" xml:space="preserve">
<g id="Layer_1">
	<g>
		<path fill="#2C3E50" d="M406.613,313.171c0,24.444-3.006,46.479-9.015,66.11c-6.01,19.635-14.978,36.36-26.895,50.184
			c-11.921,13.822-26.796,24.443-44.624,31.853c-17.833,7.409-38.567,11.118-62.204,11.118c-10.818,0-21.438-0.652-31.853-1.953
			c-10.419-1.305-21.335-3.352-32.754-6.16l4.207-48.08c0.399-4.404,2.052-7.963,4.958-10.668c2.901-2.704,7.16-4.057,12.771-4.057
			c3.404,0,7.86,0.705,13.372,2.104c5.508,1.404,12.471,2.104,20.885,2.104c11.419,0,21.533-1.652,30.351-4.958
			c8.813-3.306,16.175-8.563,22.087-15.776c5.907-7.212,10.367-16.574,13.372-28.097c3.005-11.518,4.508-25.491,4.508-41.919V33.105
			h80.834V313.171z"/>
		<path fill="#2C3E50" d="M569.182,159.315v318.831c0,13.419-1.756,26.04-5.259,37.863c-3.508,11.817-9.118,22.185-16.828,31.102
			c-7.714,8.911-17.833,15.927-30.351,21.035c-12.522,5.108-27.797,7.662-45.826,7.662c-7.015,0-13.522-0.45-19.533-1.352
			c-6.01-0.902-12.118-2.357-18.33-4.357l2.404-39.967c0.602-4.01,2.207-6.563,4.809-7.663c2.605-1.103,7.615-1.652,15.024-1.652
			s13.673-0.751,18.781-2.254c5.108-1.502,9.212-3.906,12.32-7.212c3.104-3.306,5.306-7.663,6.611-13.071
			c1.3-5.409,1.953-12.123,1.953-20.134V159.315H569.182z M580.3,69.465c0,6.414-1.306,12.424-3.906,18.03
			c-2.606,5.611-6.062,10.517-10.367,14.724c-4.311,4.207-9.367,7.564-15.175,10.067c-5.813,2.507-12.021,3.756-18.632,3.756
			c-6.413,0-12.471-1.249-18.181-3.756c-5.709-2.502-10.667-5.86-14.874-10.067s-7.564-9.113-10.067-14.724
			c-2.507-5.606-3.756-11.616-3.756-18.03c0-6.611,1.249-12.818,3.756-18.631c2.503-5.808,5.86-10.818,10.067-15.025
			s9.165-7.56,14.874-10.067c5.71-2.502,11.768-3.756,18.181-3.756c6.611,0,12.818,1.254,18.632,3.756
			c5.808,2.507,10.864,5.86,15.175,10.067c4.306,4.207,7.761,9.217,10.367,15.025C578.994,56.647,580.3,62.854,580.3,69.465z"/>
	</g>
</g>
<g id="Layer_2">
</g>
</svg>
