<?xml version="1.0" encoding="utf-8"?>
<!-- Generator: Adobe Illustrator 16.0.3, SVG Export Plug-In . SVG Version: 6.00 Build 0)  -->
<!DOCTYPE svg PUBLIC "-//W3C//DTD SVG 1.1//EN" "http://www.w3.org/Graphics/SVG/1.1/DTD/svg11.dtd">
<svg version="1.1" id="Layer_1" xmlns="http://www.w3.org/2000/svg" xmlns:xlink="http://www.w3.org/1999/xlink" x="0px" y="0px"
	 width="800px" height="600px" viewBox="0 0 800 600" enable-background="new 0 0 800 600" xml:space="preserve">
<g>
	<path fill="#2C3E50" d="M433.81,287.379c0,31.854-5.311,61.105-15.927,87.746c-10.621,26.646-25.543,49.582-44.774,68.814
		c-19.232,19.232-42.371,34.158-69.416,44.775c-27.045,10.62-56.997,15.926-89.85,15.926H47.967V70.118h165.876
		c32.853,0,62.805,5.362,89.85,16.077c27.045,10.719,50.184,25.646,69.416,44.774c19.231,19.133,34.153,42.023,44.774,68.665
		C428.499,226.279,433.81,255.526,433.81,287.379z M351.172,287.379c0-23.838-3.207-45.225-9.616-64.157
		c-6.414-18.931-15.527-34.957-27.345-48.08c-11.823-13.119-26.195-23.186-43.122-30.201c-16.931-7.01-36.013-10.517-57.245-10.517
		h-84.44v305.909h84.44c21.232,0,40.314-3.503,57.245-10.518c16.927-7.01,31.299-17.077,43.122-30.201
		c11.818-13.118,20.932-29.148,27.345-48.08C347.965,332.604,351.172,311.222,351.172,287.379z"/>
	<path fill="#2C3E50" d="M709.967,504.641c-9.616,0-15.927-4.508-18.932-13.522l-6.01-29.749
		c-6.414,7.211-13.123,13.725-20.134,19.532c-7.015,5.813-14.574,10.817-22.688,15.024s-16.828,7.466-26.144,9.767
		s-19.382,3.456-30.2,3.456c-16.828,0-32.257-3.508-46.277-10.518c-14.024-7.01-26.097-17.176-36.21-30.501
		c-10.118-13.321-17.932-29.796-23.438-49.433c-5.513-19.631-8.265-42.07-8.265-67.312c0-22.838,3.104-44.07,9.316-63.706
		c6.207-19.631,15.123-36.661,26.744-51.085c11.616-14.424,25.542-25.693,41.77-33.806c16.227-8.114,34.454-12.17,54.69-12.17
		c17.228,0,31.952,2.756,44.174,8.264c12.218,5.512,23.139,12.875,32.755,22.087V58.098h74.224v446.543H709.967z M611.103,450.25
		c15.424,0,28.547-3.202,39.365-9.615c10.818-6.41,21.035-15.523,30.651-27.346v-138.23c-8.414-10.217-17.579-17.429-27.496-21.636
		c-9.916-4.207-20.584-6.311-32.003-6.311c-11.222,0-21.388,2.104-30.501,6.311c-9.118,4.207-16.828,10.569-23.139,19.082
		c-6.311,8.517-11.17,19.335-14.574,32.455c-3.409,13.123-5.108,28.599-5.108,46.427c0,18.03,1.451,33.309,4.357,45.826
		c2.901,12.522,7.062,22.739,12.471,30.651c5.409,7.916,12.02,13.625,19.833,17.128C592.771,448.498,601.486,450.25,611.103,450.25z
		"/>
</g>
</svg>
