<?xml version="1.0" encoding="utf-8"?>
<!-- Generator: Adobe Illustrator 16.0.3, SVG Export Plug-In . SVG Version: 6.00 Build 0)  -->
<!DOCTYPE svg PUBLIC "-//W3C//DTD SVG 1.1//EN" "http://www.w3.org/Graphics/SVG/1.1/DTD/svg11.dtd">
<svg version="1.1" xmlns="http://www.w3.org/2000/svg" xmlns:xlink="http://www.w3.org/1999/xlink" x="0px" y="0px" width="800px"
	 height="600px" viewBox="0 0 800 600" enable-background="new 0 0 800 600" xml:space="preserve">
<g id="Layer_1">
	<g>
		<path fill="#2C3E50" d="M97.248,70.568c2.404,0.3,4.555,0.901,6.461,1.803c1.902,0.901,3.756,2.207,5.559,3.906
			c1.803,1.705,3.803,3.958,6.01,6.761l228.08,290.584c-0.803-7.011-1.353-13.871-1.653-20.584
			c-0.301-6.711-0.451-12.969-0.451-18.781V70.118h71.218v434.523h-41.77c-6.414,0-11.719-1-15.926-3.005
			c-4.207-2.001-8.315-5.606-12.321-10.818L115.278,201.436c0.601,6.414,1.052,12.771,1.352,19.082
			c0.301,6.31,0.451,12.071,0.451,17.279v266.844H45.863V70.118h42.371C91.839,70.118,94.844,70.268,97.248,70.568z"/>
		<path fill="#2C3E50" d="M496.01,504.641V196.328h45.375c9.616,0,15.927,4.507,18.932,13.522l5.108,24.34
			c6.208-6.409,12.771-12.217,19.684-17.429c6.911-5.207,14.222-9.715,21.937-13.522c7.709-3.803,15.973-6.71,24.791-8.715
			c8.813-2,18.429-3.005,28.848-3.005c16.828,0,31.75,2.855,44.774,8.564c13.021,5.709,23.89,13.724,32.604,24.04
			c8.715,10.32,15.325,22.641,19.833,36.961c4.508,14.325,6.762,30.102,6.762,47.329v196.227h-74.224V308.414
			c0-18.828-4.357-33.402-13.072-43.723c-8.714-10.315-21.786-15.476-39.215-15.476c-12.823,0-24.843,2.906-36.061,8.714
			c-11.222,5.813-21.838,13.724-31.853,23.739v222.971H496.01z"/>
	</g>
</g>
<g id="Layer_2">
</g>
</svg>
