<?xml version="1.0" encoding="utf-8"?>
<!-- Generator: Adobe Illustrator 16.0.3, SVG Export Plug-In . SVG Version: 6.00 Build 0)  -->
<!DOCTYPE svg PUBLIC "-//W3C//DTD SVG 1.1//EN" "http://www.w3.org/Graphics/SVG/1.1/DTD/svg11.dtd">
<svg version="1.1" xmlns="http://www.w3.org/2000/svg" xmlns:xlink="http://www.w3.org/1999/xlink" x="0px" y="0px" width="800px"
	 height="600px" viewBox="0 0 800 600" enable-background="new 0 0 800 600" xml:space="preserve">
<g id="Layer_1">
	<g>
		<path fill="#2C3E50" d="M169.669,315.972v152.954H88.835V34.403H230.37c29.045,0,54.189,3.409,75.426,10.217
			c21.232,6.813,38.765,16.331,52.587,28.548c13.823,12.222,24.04,26.848,30.651,43.873c6.611,17.03,9.917,35.661,9.917,55.893
			c0,21.035-3.507,40.319-10.518,57.846c-7.015,17.533-17.532,32.604-31.552,45.226c-14.025,12.621-31.553,22.439-52.587,29.449
			c-21.035,7.015-45.676,10.518-73.923,10.518H169.669z M169.669,252.867h60.701c14.823,0,27.745-1.85,38.765-5.559
			c11.015-3.705,20.134-9.015,27.346-15.927c7.212-6.911,12.621-15.325,16.227-25.242s5.409-20.983,5.409-33.206
			c0-11.616-1.803-22.133-5.409-31.552c-3.606-9.414-9.015-17.429-16.227-24.04s-16.331-11.668-27.346-15.175
			c-11.02-3.503-23.941-5.259-38.765-5.259h-60.701V252.867z"/>
		<path fill="#2C3E50" d="M457.549,569.594v-408.98h45.375c4.809,0,8.912,1.104,12.321,3.306c3.403,2.207,5.605,5.611,6.61,10.217
			l6.011,28.547c12.419-14.222,26.692-25.74,42.821-34.557c16.123-8.813,35.008-13.222,56.644-13.222
			c16.828,0,32.201,3.507,46.127,10.518c13.922,7.015,25.941,17.18,36.06,30.5c10.114,13.326,17.927,29.75,23.439,49.282
			c5.508,19.532,8.264,41.919,8.264,67.161c0,23.041-3.108,44.376-9.315,64.007c-6.212,19.636-15.076,36.661-26.594,51.085
			c-11.522,14.424-25.444,25.693-41.77,33.807c-16.331,8.113-34.609,12.17-54.842,12.17c-17.429,0-32.205-2.657-44.323-7.963
			c-12.124-5.306-22.988-12.668-32.604-22.087v126.21H457.549z M601.789,213.501c-15.429,0-28.6,3.258-39.516,9.766
			c-10.922,6.512-21.087,15.678-30.501,27.496v138.23c8.414,10.419,17.579,17.683,27.495,21.786
			c9.917,4.108,20.585,6.16,32.004,6.16c11.217,0,21.382-2.104,30.501-6.311c9.113-4.207,16.827-10.615,23.138-19.231
			c6.311-8.611,11.166-19.481,14.574-32.604c3.404-13.119,5.109-28.594,5.109-46.428c0-18.029-1.456-33.303-4.357-45.826
			c-2.906-12.518-7.063-22.688-12.471-30.501c-5.409-7.813-11.974-13.522-19.683-17.128
			C620.368,215.304,611.602,213.501,601.789,213.501z"/>
	</g>
</g>
<g id="Layer_2">
</g>
</svg>
