<?xml version="1.0" encoding="utf-8"?>
<!-- Generator: Adobe Illustrator 16.0.3, SVG Export Plug-In . SVG Version: 6.00 Build 0)  -->
<!DOCTYPE svg PUBLIC "-//W3C//DTD SVG 1.1//EN" "http://www.w3.org/Graphics/SVG/1.1/DTD/svg11.dtd">
<svg version="1.1" xmlns="http://www.w3.org/2000/svg" xmlns:xlink="http://www.w3.org/1999/xlink" x="0px" y="0px" width="800px"
	 height="600px" viewBox="0 0 800 600" enable-background="new 0 0 800 600" xml:space="preserve">
<g id="Layer_1">
	<g>
		<path fill="#2C3E50" d="M207.833,334.857v169.783h-80.834V70.118h132.521c29.646,0,55.038,3.057,76.177,9.165
			c21.133,6.113,38.464,14.678,51.986,25.693c13.522,11.02,23.439,24.19,29.75,39.516c6.311,15.326,9.465,32.205,9.465,50.634
			c0,14.626-2.154,28.449-6.461,41.469c-4.31,13.025-10.518,24.843-18.631,35.459c-8.113,10.621-18.133,19.936-30.049,27.946
			c-11.921,8.016-25.496,14.424-40.718,19.232c10.217,5.813,19.03,14.123,26.444,24.941l108.781,160.467h-72.721
			c-7.015,0-12.973-1.399-17.88-4.207c-4.911-2.803-9.066-6.809-12.471-12.02l-91.352-139.132
			c-3.409-5.207-7.165-8.911-11.269-11.118c-4.108-2.203-10.17-3.307-18.18-3.307H207.833z M207.833,276.862h50.484
			c15.222,0,28.496-1.902,39.816-5.709c11.315-3.803,20.631-9.062,27.946-15.776c7.311-6.709,12.771-14.673,16.377-23.89
			c3.606-9.212,5.409-19.331,5.409-30.351c0-22.035-7.264-38.962-21.786-50.785c-14.527-11.818-36.712-17.729-66.561-17.729h-51.686
			V276.862z"/>
		<path fill="#2C3E50" d="M513.74,504.641V196.328h43.572c7.611,0,12.922,1.404,15.927,4.207c3.005,2.808,5.005,7.616,6.01,14.424
			l4.508,37.262c11.015-19.03,23.937-34.055,38.765-45.075c14.823-11.015,31.449-16.527,49.883-16.527
			c15.222,0,27.843,3.507,37.863,10.518l-9.616,55.592c-0.602,3.606-1.906,6.16-3.906,7.663c-2.005,1.503-4.71,2.254-8.114,2.254
			c-3.005,0-7.113-0.7-12.32-2.104c-5.212-1.399-12.123-2.104-20.734-2.104c-15.429,0-28.65,4.259-39.666,12.771
			c-11.02,8.517-20.335,20.988-27.946,37.412v192.02H513.74z"/>
	</g>
</g>
<g id="Layer_2">
</g>
</svg>
