<?xml version="1.0" encoding="utf-8"?>
<!-- Generator: Adobe Illustrator 16.0.3, SVG Export Plug-In . SVG Version: 6.00 Build 0)  -->
<!DOCTYPE svg PUBLIC "-//W3C//DTD SVG 1.1//EN" "http://www.w3.org/Graphics/SVG/1.1/DTD/svg11.dtd">
<svg version="1.1" id="Layer_3" xmlns="http://www.w3.org/2000/svg" xmlns:xlink="http://www.w3.org/1999/xlink" x="0px" y="0px"
	 width="800px" height="600px" viewBox="0 0 800 600" enable-background="new 0 0 800 600" xml:space="preserve">
<g>
	<path fill="#2C3E50" d="M470.803,514.5h-62.4c-7.004,0-12.75-1.748-17.25-5.25c-4.5-3.497-7.753-7.847-9.75-13.05l-32.4-88.5
		h-179.7l-32.4,88.5c-1.604,4.603-4.753,8.803-9.45,12.6c-4.702,3.802-10.453,5.7-17.25,5.7h-62.7l170.4-433.8h82.5L470.803,514.5z
		 M190.002,350.7h138.3l-52.8-144.3c-2.4-6.398-5.053-13.95-7.95-22.65c-2.902-8.7-5.751-18.15-8.55-28.35
		c-2.803,10.2-5.55,19.702-8.25,28.5c-2.7,8.803-5.353,16.5-7.95,23.1L190.002,350.7z"/>
	<path fill="#2C3E50" d="M752.498,514.5h-33.301c-7.002,0-12.502-1.05-16.5-3.15c-4.002-2.1-7.002-6.347-9-12.75l-6.6-21.899
		c-7.801,7.003-15.449,13.153-22.949,18.45c-7.5,5.301-15.254,9.75-23.25,13.35c-8.002,3.6-16.5,6.3-25.5,8.1
		c-9,1.801-19.004,2.7-30,2.7c-13.004,0-25.004-1.758-36-5.264c-11.002-3.511-20.453-8.78-28.352-15.802
		c-7.902-7.021-14.053-15.755-18.449-26.189c-4.402-10.434-6.6-22.574-6.6-36.422c0-11.639,3.047-23.128,9.15-34.467
		c6.098-11.334,16.246-21.567,30.449-30.698c14.199-9.132,33.098-16.706,56.699-22.726c23.598-6.019,52.898-9.032,87.9-9.032
		v-18.136c0-20.757-4.35-36.127-13.049-46.102c-8.701-9.975-21.352-14.962-37.951-14.962c-12,0-22.002,1.401-30,4.2
		c-8.002,2.803-14.953,5.953-20.85,9.45c-5.902,3.501-11.354,6.652-16.35,9.45c-5.002,2.803-10.5,4.2-16.5,4.2
		c-5.002,0-9.301-1.298-12.9-3.9c-3.6-2.597-6.502-5.798-8.699-9.6l-13.5-23.7c35.398-32.4,78.098-48.6,128.1-48.6
		c18,0,34.049,2.953,48.15,8.85c14.1,5.901,26.047,14.1,35.85,24.6c9.797,10.5,17.25,23.053,22.35,37.65
		c5.1,14.602,7.65,30.6,7.65,48V514.5z M608.498,468.3c7.598,0,14.596-0.688,21-2.067c6.398-1.378,12.449-3.445,18.15-6.201
		c5.699-2.756,11.197-6.15,16.5-10.186c5.297-4.036,10.648-8.813,16.049-14.325V384c-21.6,0-39.65,1.359-54.15,4.078
		c-14.502,2.719-26.15,6.197-34.949,10.425c-8.803,4.233-15.051,9.169-18.75,14.808c-3.703,5.64-5.551,11.78-5.551,18.427
		c0,13.097,3.85,22.463,11.551,28.102C586.045,465.482,596.094,468.3,608.498,468.3z"/>
</g>
</svg>
