<?xml version="1.0" encoding="utf-8"?>
<!-- Generator: Adobe Illustrator 16.0.3, SVG Export Plug-In . SVG Version: 6.00 Build 0)  -->
<!DOCTYPE svg PUBLIC "-//W3C//DTD SVG 1.1//EN" "http://www.w3.org/Graphics/SVG/1.1/DTD/svg11.dtd">
<svg version="1.1" xmlns="http://www.w3.org/2000/svg" xmlns:xlink="http://www.w3.org/1999/xlink" x="0px" y="0px" width="800px"
	 height="600px" viewBox="0 0 800 600" enable-background="new 0 0 800 600" xml:space="preserve">
<g id="Layer_1">
	<g>
		<path fill="#2C3E50" d="M454.998,70.118v66.411H324.281v368.112h-80.835V136.528H112.127V70.118H454.998z"/>
		<path fill="#2C3E50" d="M603.437,509.449c-26.646,0-47.179-7.561-61.603-22.688c-14.424-15.124-21.636-36.009-21.636-62.654
			V251.92h-31.252c-4.01,0-7.466-1.3-10.367-3.906c-2.907-2.601-4.357-6.508-4.357-11.72v-29.449l49.582-8.114l15.626-84.14
			c0.799-4.005,2.653-7.109,5.56-9.315c2.901-2.202,6.56-3.306,10.968-3.306h38.465v97.062h81.135v52.888h-81.135v167.078
			c0,9.616,2.403,17.129,7.212,22.537c4.808,5.41,11.217,8.113,19.231,8.113c4.606,0,8.461-0.549,11.569-1.652
			c3.104-1.099,5.809-2.254,8.113-3.455c2.301-1.202,4.357-2.353,6.16-3.456c1.804-1.099,3.606-1.653,5.409-1.653
			c2.202,0,4.006,0.555,5.409,1.653c1.399,1.104,2.901,2.756,4.508,4.958l22.236,36.061c-10.817,9.015-23.241,15.828-37.262,20.434
			C632.984,507.143,618.462,509.449,603.437,509.449z"/>
	</g>
</g>
<g id="Layer_2">
</g>
</svg>
