<?xml version="1.0" encoding="utf-8"?>
<!-- Generator: Adobe Illustrator 16.0.3, SVG Export Plug-In . SVG Version: 6.00 Build 0)  -->
<!DOCTYPE svg PUBLIC "-//W3C//DTD SVG 1.1//EN" "http://www.w3.org/Graphics/SVG/1.1/DTD/svg11.dtd">
<svg version="1.1" xmlns="http://www.w3.org/2000/svg" xmlns:xlink="http://www.w3.org/1999/xlink" x="0px" y="0px" width="800px"
	 height="600px" viewBox="0 0 800 600" enable-background="new 0 0 800 600" xml:space="preserve">
<g id="Layer_1">
	<g>
		<path fill="#2C3E50" d="M34.904,147h45.2c4.666,0,8.565,1.1,11.7,3.3c3.131,2.2,5.231,5.168,6.3,8.9l49.2,173
			c1.2,4.269,2.3,8.899,3.3,13.899s1.965,10.301,2.9,15.9c1.065-5.6,2.231-10.9,3.5-15.9c1.266-5,2.631-9.631,4.1-13.899l56.8-173
			c1.066-3.065,3.166-5.866,6.3-8.4c3.131-2.531,6.965-3.8,11.5-3.8h15.8c4.666,0,8.531,1.1,11.6,3.3c3.065,2.2,5.2,5.168,6.4,8.9
			l56.4,173c2.931,8.534,5.466,18,7.6,28.399c0.931-5.199,1.9-10.199,2.9-15c1-4.799,2.031-9.266,3.1-13.399l49.2-173
			c0.931-3.331,3-6.2,6.2-8.6c3.2-2.4,7.066-3.6,11.601-3.6h42.199l-89.8,289.2h-48.6l-63.2-197.6c-0.8-2.531-1.634-5.266-2.5-8.2
			c-0.869-2.932-1.7-6.066-2.5-9.4c-0.8,3.334-1.634,6.469-2.5,9.4c-0.869,2.934-1.7,5.668-2.5,8.2l-63.8,197.6h-48.6L34.904,147z"
			/>
		<path fill="#2C3E50" d="M452.502,231h39.199c3.731,0,6.866,0.869,9.4,2.6c2.531,1.734,4.131,3.935,4.8,6.6l29.4,109.601
			c1.6,6,2.899,11.868,3.899,17.6c1,5.734,1.966,11.469,2.9,17.199c1.466-5.73,3.031-11.465,4.7-17.199
			c1.665-5.731,3.431-11.6,5.3-17.6l34-110c0.8-2.666,2.4-4.866,4.8-6.6c2.4-1.731,5.2-2.6,8.4-2.6h21.8c3.6,0,6.6,0.869,9,2.6
			c2.4,1.734,4,3.935,4.8,6.6l33.601,112c1.73,5.734,3.3,11.299,4.699,16.699c1.4,5.4,2.766,10.834,4.101,16.301
			c0.931-5.732,1.966-11.467,3.1-17.201c1.132-5.73,2.565-11.665,4.3-17.799l30.4-109.601c0.666-2.666,2.266-4.866,4.8-6.6
			c2.531-1.731,5.466-2.6,8.8-2.6h37.4l-65,205.2h-39.8c-4.269,0-7.335-2.931-9.2-8.8l-37-118.6c-1.2-3.866-2.3-7.766-3.3-11.701
			c-1-3.931-1.835-7.831-2.5-11.7c-0.8,4-1.669,7.969-2.601,11.9c-0.934,3.934-2,7.9-3.199,11.9l-37.4,118.2
			c-1.869,5.869-5.469,8.8-10.8,8.8h-37.8L452.502,231z"/>
	</g>
</g>
<g id="Layer_2">
</g>
</svg>
