<?xml version="1.0" encoding="utf-8"?>
<!-- Generator: Adobe Illustrator 16.0.3, SVG Export Plug-In . SVG Version: 6.00 Build 0)  -->
<!DOCTYPE svg PUBLIC "-//W3C//DTD SVG 1.1//EN" "http://www.w3.org/Graphics/SVG/1.1/DTD/svg11.dtd">
<svg version="1.1" id="mitten" xmlns="http://www.w3.org/2000/svg" xmlns:xlink="http://www.w3.org/1999/xlink" x="0px" y="0px"
	 width="800px" height="600px" viewBox="0 0 800 600" enable-background="new 0 0 800 600" xml:space="preserve">
<g>
	<path fill="#DD5771" d="M613.805,67.977C478.479-40.473,373.863,98.769,373.863,98.769c-17.662,17.295-23.251,14.152-24.677,8.708
		l-0.167-37.625c-0.104-23.218-18.305-41.259-41.522-41.156l-8.408,0.037c-22.985,0.102-41.919,18.284-42.19,41.182l-0.37-0.354
		l0.003,0.7l0.378,85.479l0.305,68.696l-40.018,39.075l218.278,211.68c0,0,51.135-51.705,179.237-181.83
		C742.814,163.236,613.805,67.977,613.805,67.977z"/>
	<path fill="#A2FAE4" d="M145.38,369.473c0,0-34.468-21.881-4.642-52.86l57.03-58.423c0,0,21.952-18.605,52.911,6.817
		L434.982,451.15c0,0,24.34,16.522,9.321,38.623l-67.576,69.045c0,0-31.091,42.6-71.02-18.036L145.38,369.473z"/>
	<path fill="none" stroke="#E9EACA" stroke-width="1.4013" stroke-miterlimit="10" d="M596.087,330.58"/>
	<path fill="none" stroke="#E9EACA" stroke-width="1.4013" stroke-miterlimit="10" d="M367.191,101.685"/>
	<path fill="none" stroke="#E9EACA" stroke-width="1.4013" stroke-miterlimit="10" d="M649.594,288.964"/>
	<path fill="none" stroke="#E9EACA" stroke-width="1.4013" stroke-miterlimit="10" d="M414.753,54.122"/>
	<polygon fill="#FAF9DD" points="601.094,305.676 549.151,304.271 546.746,211.66 454.607,209.267 452.214,117.129 363.794,115.763 
		363.898,109.015 458.792,110.481 461.189,202.686 553.325,205.079 555.731,297.696 601.277,298.929 	"/>
	<polygon fill="#A2FAE4" points="629.367,275.417 579.408,274.009 577.002,181.402 484.865,179.009 482.473,86.837 393.025,84.514 
		393.201,77.768 489.052,80.257 491.445,172.428 583.583,174.821 585.988,267.443 629.557,268.67 	"/>
	<polygon fill="#FAF9DD" points="651.678,245.16 609.664,243.733 607.26,151.145 515.123,148.752 512.729,56.57 433.182,54.257 
		433.377,47.51 519.31,50.01 521.702,142.171 613.84,144.563 616.247,237.205 651.907,238.415 	"/>
</g>
</svg>
