<?xml version="1.0" encoding="utf-8"?>
<!-- Generator: Adobe Illustrator 16.0.3, SVG Export Plug-In . SVG Version: 6.00 Build 0)  -->
<!DOCTYPE svg PUBLIC "-//W3C//DTD SVG 1.1//EN" "http://www.w3.org/Graphics/SVG/1.1/DTD/svg11.dtd">
<svg version="1.1" id="monkey" xmlns="http://www.w3.org/2000/svg" xmlns:xlink="http://www.w3.org/1999/xlink" x="0px" y="0px"
	 width="800px" height="600px" viewBox="0 0 800 600" enable-background="new 0 0 800 600" xml:space="preserve">
<g>
	<path fill="#FFCDA7" d="M266.324,436.188c0,0,11.467-3.085,21.965,2.61c0,0,16.09,28.159,6.704,36.202
		c0,0-15.244-0.436-14.519-21.677c0,0-1.477,11.028-3.006,33.743c0,0-25.143,16.586-38.467-4.129
		C239.001,482.938,241.048,436.188,266.324,436.188z"/>
	<path fill="#FFCDA7" d="M458.735,421.577c0,0-11.467-3.086-21.966,2.609c0,0-16.09,28.16-6.704,36.203
		c0,0,15.244-0.436,14.52-21.677c0,0,6.259,14.372,3.005,33.743c0,0,21.49,16.586,34.814-4.129
		C482.404,468.327,484.011,421.577,458.735,421.577z"/>
	<path fill="#995F52" d="M387.271,420.969c0,0,123.119-252.833,208.852-165.454c85.731,87.378-17.67,97.888-17.67,97.888
		s-30.656-12.003-16.218-45.419c0,0,10.555-7.087,16.883,8.244c0,0,7.332,34.739,30.52-1.572c0,0-35.223-98.747-107.556-20.399
		L387.816,452.144L387.271,420.969z"/>
	<path fill="#B66142" d="M278.86,287.455l-25.923,159.917l11.244-11.676l5.479,13.497l9.132-12.311l5.479,15.963l5.059-18.335
		l20.512-98.438l1.827,129.559c0,0-5.041,52.542,3.653,71.518l17.541,2.276c0,0-5.836-73.722,25-76.094
		c30.837-2.373,19.522,74.268,19.522,74.268l18.241-2.276c0,0,31.478-131.649,10.129-209.926c0,0,27.278,97.705,34.395,108.378
		l5.669-8.51l9.228,9.151l1.826-10.794l10.004,6.146c0,0-29.422-124.512-41.282-142.313
		C413.733,269.654,280.007,280.969,278.86,287.455z"/>
	<path fill="#B7715C" d="M361.732,331.691c0,0-72.887,93.451-2.27,95.889C359.462,427.58,423.059,429.712,361.732,331.691z"/>
	<path fill="#FFCDA7" d="M306.177,538.409c0,0-115.754,41.982-31.548,52.656c0,0,41.876,4.275,46.438-26.327
		c0,0,4.562-15.448,4.562,0.102c0,0,7.756,6.159,14.232-10.542C339.86,554.298,341.474,522.976,306.177,538.409z"/>
	<path fill="#FFCDA7" d="M401.83,534.757c0,0,115.754,41.982,31.548,52.655c0,0-41.876,4.275-46.438-26.326
		c0,0-4.561-15.449-4.561,0.102c0,0-7.757,6.159-14.233-10.542C368.146,550.646,366.534,519.322,401.83,534.757z"/>
	<path fill="#FFCDA7" d="M431.173,137.617c0,0,33.46-33.209,66.306-26.082c0,0,45.813,60.957,9.032,84.904
		c0,0-62.05,37.382-77.117-6.242C429.394,190.196,423.896,152.659,431.173,137.617z"/>
	<path fill="#FFCDA7" d="M259.504,141.27c0,0-33.459-33.21-66.305-26.083c0,0-45.812,60.957-9.033,84.904
		c0,0,62.049,37.382,77.118-6.243C261.284,193.848,266.781,156.313,259.504,141.27z"/>
	<path fill="#B66142" d="M240.12,237.632c0,0-34.801-117.306,17.383-168.359l35.581-60.542c0,0,8.302,11.86,0,42.697
		c0,0,66.822-47.441,103.184-37.953c0,0-41.51,26.093-28.464,33.208c0,0,59.599-15.417,62.858-3.558l-15.418,20.162
		c0,0,68.327,74.26,37.129,158.696"/>
	<path fill="#FFCDA7" d="M260.242,110.824c9.379-15.212,83.521-83.196,162.117-3.653c0,0,28.464,45.068,18.976,85.393
		c-5.451-9.193,63.771,89.59-81.201,97.253c0,0-163.108,16.574-109.024-94.881C251.11,194.936,227.853,178.332,260.242,110.824z"/>
	<path fill="#171516" d="M301.624,177.669c0,8.196-6.86,14.842-15.322,14.842s-15.319-6.646-15.319-14.842
		c0-8.2,6.858-14.842,15.319-14.842S301.624,169.469,301.624,177.669z"/>
	<path fill="#171516" d="M414.863,177.669c0,8.196-6.86,14.842-15.321,14.842c-8.461,0-15.319-6.646-15.319-14.842
		c0-8.2,6.858-14.842,15.319-14.842C408.003,162.827,414.863,169.469,414.863,177.669z"/>
	<circle fill="#FFFFFF" cx="285.494" cy="173.707" r="3.962"/>
	<circle fill="#FFFFFF" cx="398.735" cy="173.708" r="3.962"/>
	<ellipse fill="#995F52" cx="343.653" cy="205.157" rx="24.131" ry="11.669"/>
	<path fill="#383838" d="M293.404,223.625c0,0,42.333,8.219,109.293,0c0,0-15.525,37.442-54.646,40.182
		C348.051,263.807,309.842,267.459,293.404,223.625z"/>
	<path fill="#EB5B72" d="M322.656,258.269c0,0,21.063,16.987,46.742,0C369.398,258.269,347.646,241.162,322.656,258.269z"/>
</g>
</svg>
