<?xml version="1.0" encoding="utf-8"?>
<!-- Generator: Adobe Illustrator 16.0.3, SVG Export Plug-In . SVG Version: 6.00 Build 0)  -->
<!DOCTYPE svg PUBLIC "-//W3C//DTD SVG 1.1//EN" "http://www.w3.org/Graphics/SVG/1.1/DTD/svg11.dtd">
<svg version="1.1" id="net" xmlns="http://www.w3.org/2000/svg" xmlns:xlink="http://www.w3.org/1999/xlink" x="0px" y="0px"
	 width="800px" height="600px" viewBox="0 0 800 600" enable-background="new 0 0 800 600" xml:space="preserve">
<g>
	<path fill="#A37F66" d="M656.618,48.459c3.264,3.882,1.514,10.725-3.909,15.284L77.41,547.328
		c-5.423,4.559-12.467,5.106-15.729,1.225l0,0c-3.264-3.884-1.514-10.725,3.909-15.285L640.89,49.682
		C646.315,45.125,653.357,44.577,656.618,48.459L656.618,48.459z"/>
	<path fill="#A37F66" d="M66.437,585.92"/>
	<path fill="#C9A285" d="M656.618,48.459L656.618,48.459c3.264,3.882,1.514,10.725-3.909,15.284L77.41,547.328
		c-5.423,4.559-12.467,5.106-15.729,1.225l0,0"/>
	<path fill="#444444" d="M635.074,244.532c-38.988,0-78.535-22.589-117.541-67.141l-0.559-0.638l0.648-0.546L650.492,64.522
		l0.539,0.533c0.632,0.624,63.111,63.016,61.975,116.516c-0.358,16.865-6.961,31.246-19.624,42.743
		C693.165,224.512,670.952,244.532,635.074,244.532z M519.343,176.934c38.494,43.753,77.429,65.937,115.731,65.937
		c35.203,0,56.972-19.587,57.188-19.785c12.314-11.18,18.734-25.158,19.083-41.548c1.067-50.162-54.853-108.554-60.949-114.763
		L519.343,176.934z"/>
	<path fill="#444444" d="M535.943,195.852l-0.881-1.409c0.636-0.398,64.405-40.585,133.858-107.865l1.156,1.193
		C600.491,155.181,536.581,195.453,535.943,195.852z"/>
	<path fill="#444444" d="M562.091,217.869l-0.883-1.408c0.896-0.561,89.963-56.697,123.824-107.624l1.385,0.92
		C652.356,160.982,562.989,217.306,562.091,217.869z"/>
	<path fill="#444444" d="M593.552,235.604l-0.9-1.396c0.869-0.561,87.164-56.471,110.079-92.869l1.406,0.886
		C681.026,178.933,594.424,235.042,593.552,235.604z"/>
	<path fill="#444444" d="M629.72,244.274l-0.703-1.506c0.517-0.242,52.021-24.663,82.356-67.522l1.357,0.96
		C682.135,219.432,630.241,244.03,629.72,244.274z"/>
	<path fill="#444444" d="M660.559,240.523c-33.073,0-114.034-80.947-117.549-84.479l1.178-1.173
		c0.877,0.881,88.044,88.03,118.558,83.848l0.225,1.646C662.199,240.471,661.393,240.523,660.559,240.523z"/>
	
		<rect x="554.386" y="179.937" transform="matrix(0.754 0.6568 -0.6568 0.754 273.5019 -368.8394)" fill="#444444" width="149.699" height="1.662"/>
	<path fill="#444444" d="M703.952,211.308c-34.903-40.511-69.961-74.959-104.2-102.388l1.039-1.297
		c34.318,27.492,69.451,62.012,104.421,102.6L703.952,211.308z"/>
	<path fill="#444444" d="M711.299,188.846c-14.82-33.39-82.626-101.943-83.31-102.632l1.18-1.171
		c0.686,0.691,68.706,69.463,83.649,103.129L711.299,188.846z"/>
</g>
</svg>
