<?xml version="1.0" encoding="utf-8"?>
<!-- Generator: Adobe Illustrator 16.0.3, SVG Export Plug-In . SVG Version: 6.00 Build 0)  -->
<!DOCTYPE svg PUBLIC "-//W3C//DTD SVG 1.1//EN" "http://www.w3.org/Graphics/SVG/1.1/DTD/svg11.dtd">
<svg version="1.1" id="Layer_5" xmlns="http://www.w3.org/2000/svg" xmlns:xlink="http://www.w3.org/1999/xlink" x="0px" y="0px"
	 width="800px" height="600px" viewBox="0 0 800 600" enable-background="new 0 0 800 600" xml:space="preserve">
<g>
	<path fill="#B7B7B7" d="M270.095,359.363c0,0-89.087-31.963-90.447,63.926c0,0-10.2,97.249,45.224,108.81
		c0,0,52.705,11.562,80.587,0c0,0,87.047,76.847,187.696-0.68c0,0,62.566,15.642,98.608-7.48c0,0,48.284-38.083,27.882-114.93"/>
	<path fill="#E8CAAF" d="M269.048,353.08c0,0-89.087-31.963-90.447,63.925c0,0-10.201,97.249,45.224,108.811
		c0,0,52.705,11.561,80.587,0c0,0,87.047,76.847,187.695-0.681c0,0,62.566,15.642,98.609-7.48c0,0,48.283-38.083,27.882-114.93
		c0,0-15.641-76.168-87.727-41.484c0,0-24.481-248.22-72.086-301.265C411.18,6.931,340.454,46.374,331.613,77.657
		S267.688,313.636,269.048,353.08z"/>
	<path fill="#DBB79A" d="M564.465,527.774c0,0-40.396,6.881-72.358-2.64c0,0-82.032,81.086-187.695,0.681
		c0,0-103.711,34.034-120.201-42.488c0,0-17.684-46.318-3.146-89.643c0,0-3.824,96.766,115.867,73.645
		c0,0,90.447,160.494,205.377-0.68c0,0,112.969,20.545,117.376-59.57c0,0,7.609,24.208,3.941,52.09
		C623.625,459.169,613.021,528.374,564.465,527.774z"/>
	<path fill="#E2C9B5" d="M437.548,497.796c0,0-11.978-393.333-17.025-404.627c-3.894-8.714-11.979-17.751-15.466-21.424l0.018-1.143
		c0,0-0.221,0.188-0.606,0.533c-0.682-0.705-1.084-1.099-1.084-1.099l-0.063,2.14c-3.661,3.385-12.154,11.74-16.459,20.116
		c-5.58,10.859-36.481,402.441-36.481,402.441s8.619,44.253,45.854,43.72l0.013-0.616
		C428.081,536.106,437.548,497.796,437.548,497.796z"/>
	<path fill="#9E7254" d="M492.106,525.135c0,0,28.569-20.527,28.566,4.697C520.673,529.832,514.549,533.296,492.106,525.135z"/>
	<path fill="#9E7254" d="M304.932,526.183c0,0-28.569-20.528-28.566,4.697C276.365,530.88,282.489,534.344,304.932,526.183z"/>
</g>
</svg>
