<?xml version="1.0" encoding="utf-8"?>
<!-- Generator: Adobe Illustrator 16.0.3, SVG Export Plug-In . SVG Version: 6.00 Build 0)  -->
<!DOCTYPE svg PUBLIC "-//W3C//DTD SVG 1.1//EN" "http://www.w3.org/Graphics/SVG/1.1/DTD/svg11.dtd">
<svg version="1.1" id="octopus" xmlns="http://www.w3.org/2000/svg" xmlns:xlink="http://www.w3.org/1999/xlink" x="0px" y="0px"
	 width="800px" height="600px" viewBox="0 0 800 600" enable-background="new 0 0 800 600" xml:space="preserve">
<g>
	<path fill="#D1A09C" d="M340.531,455.832c0,0-15.599,41.115-139.62,38.048c0,0-8.098-9.391,15.527-16.808l126.591-60.578
		l14.01,11.102L340.531,455.832z"/>
	<path fill="#D1A09C" d="M165.387,348.239c0,0-20.084,90.063,51.071,106.244l80.098-33.008l-78.074-5.061
		c0,0-26.514-25.239-37.251-57.055C181.231,359.36,172.133,337.137,165.387,348.239z"/>
	<path fill="#D1A09C" d="M505.579,417.994c0,0,132.953-6.927,125.382-94.636c0,0-38.708,94.502-145.043,64.998
		C485.918,388.356,489.435,415.452,505.579,417.994z"/>
	<path fill="#AB7875" d="M636.975,311.114c0,0-3.04-39.746-20.51-14.785c0,0-2.533,10.541-3.352,14.291
		c0,0-40.693,70.295-97.708,45.272c0,0,71.893-12.738,73.933-79.122c0,0,3.575-12.213-4.164-21.762c0,0-16.339-4.354-23.408,20.824
		c0,0-25.599,62.083-72.433,48.663c-0.104-0.295-12.027-33.496,2.752-64.496h-0.006c20.229-28,30.393-64.513,26.322-102.484
		C509.393,73.481,433.995,13.069,349.96,22.077c-84.036,9.009-144.842,84.641-135.833,168.678
		c4.43,41.32,24.927,77.127,54.603,101.677c20.854,25.251,20.309,64.834,20.309,64.835c-17.635,2.284-65.605,4.72-83.475-32.897
		c0,0-12.629-21-11.583,17.237c0,0,11.223,59.132,59.765,56.369c0,0-49.705,26.087-68.333-45.174c0,0-8.343-26.573-20.024-4.563
		c0,0,7.802-6.942,15.78,27.611c0,0,22.336,83.073,96.076,47.695c0,0-14.593,11.944-47.249,14.834c0,0-76.866,28.997-49.315,80.986
		c0,0,16.596-27.42,34.595-36.064c0,0,93.615-9.425,105.555-29.02c0,0,17.544-29.962,24.184-30.674c0,0-25.074,58.471,2.432,87.267
		c0,0,13.439,20.92-17.901,47.477c0,0-24.68,20.35,5.388,20.422c0,0,59.547-28.252,55.623-70.563c0,0-5.758-80.699,28.001-80.467
		c0,0,68.532,56.943,113.021,27.756c0,0,49.77-25.482,69.172,1.741c0,0,30.999,27.202,19.895-13.731
		c0,0-15.609-54.491-99.415-33.298c0,0-15.822,0.476-28.843-12.78c0,0,85.856,20.709,131.896-45.274
		C624.281,352.156,639.346,321.848,636.975,311.114z M295.442,356.298c-0.692,0.14-2.973,0.578-6.399,1.021L295.442,356.298z"/>
	<path fill="#C68F8D" d="M341.293,45.331c0,0,10.617-13.546,41.8-4.48c0,0,153.214,32.556,104.014,182.812
		C487.107,223.662,531.719,91.531,341.293,45.331z"/>
	<circle fill="#171516" cx="322.455" cy="315.352" r="22.423"/>
	<circle fill="#FFFFFF" cx="320.75" cy="305.719" r="5.52"/>
	<circle fill="#171516" cx="446.957" cy="304.017" r="22.423"/>
	<circle fill="#FFFFFF" cx="445.251" cy="294.384" r="5.52"/>
</g>
</svg>
