<?xml version="1.0" encoding="utf-8"?>
<!-- Generator: Adobe Illustrator 16.0.3, SVG Export Plug-In . SVG Version: 6.00 Build 0)  -->
<!DOCTYPE svg PUBLIC "-//W3C//DTD SVG 1.1//EN" "http://www.w3.org/Graphics/SVG/1.1/DTD/svg11.dtd">
<svg version="1.1" id="otter" xmlns="http://www.w3.org/2000/svg" xmlns:xlink="http://www.w3.org/1999/xlink" x="0px" y="0px"
	 width="800px" height="600px" viewBox="0 0 800 600" enable-background="new 0 0 800 600" xml:space="preserve">
<g>
	<path fill="#877161" d="M509.771,456.44c0,0,31.472-82.816,62.113-62.94c0,0,67.911,36.44,38.924,105.178
		c0,0-9.618,36.439,7.199,36.439c0,0,54.085,27.328,7.708,28.985c0,0-47.205,7.453-64.598,0
		C561.118,564.103,486.583,560.79,509.771,456.44z"/>
	<path fill="#877161" d="M548.907,189.389c0,0-39.943,3.563-26.726,60.039c0,0,38.225,22.496,66.333,28.304
		c0,0,25.932-1.746,34.04-13.344c0,0,10.58-15.312-7.93-24.698c0,0-42.779-3.761-49.815-14
		C564.81,225.689,562.17,202.838,548.907,189.389z"/>
	<path fill="#A0826D" d="M430.448,181.687c0,0-21.831,88.248-38.922,220.294c0,0-34.783,122.57-137.477,128.366
		c0,0-94.411,0.827-98.552,28.985c0,0,2.484,26.733,218.637,4.257l18.22-19.991c0,0,0,12.423,49.69,12.423l96.067-11.595
		c0,0,62.114-29.814,57.973-118.429c0,0-28.158-62.941-29.814-66.254c0,0-16.563-94.412-14.079-163.978
		c0,0-5.796-63.769-56.315-71.223C495.875,124.542,443.944,118.793,430.448,181.687z"/>
	<path fill="#877161" d="M231.531,572.583c0,0-56.117,3.636-10.841-14.22c0,0,122.437-16.58,136.466-25.508
		c0,0,18.733-5.739,36.348-75.886c0,0,15.013,69.188,0.638,84.813l-20.009,21.806C374.134,563.589,231.531,576.6,231.531,572.583z"
		/>
	<path fill="#EAC2A7" d="M468.115,146.414c0,0-82.317,329.049-29.681,355.832c0,0,44.348,36.986,104.928,0
		c0,0,12.754-7.652,12.754-27.421c0,0-25.059-295.68-29.029-327.136C527.087,147.689,484.058,138.124,468.115,146.414z"/>
	<path fill="#A0826D" d="M387.335,473.021c0,0,31.471-82.816,62.112-62.94c0,0,67.912,36.44,38.925,105.178
		c0,0-9.618,36.439,7.198,36.439c0,0,54.086,27.328,7.709,28.985c0,0-47.206,7.452-64.598,0
		C438.682,580.683,364.146,577.37,387.335,473.021z"/>
	<path fill="#A0826D" d="M469.46,198.973c0,0-49.903-29.916-53.098,47.174c0,0,27.588,39.202,52.664,57.459
		c0,0,26.305,9.852,39.461,2.053c0,0,17.247-10.351,3.218-27.848c0,0-40.432-22.792-42.79-36.007
		C468.915,241.804,482.029,211.585,469.46,198.973z"/>
	<path fill="#877161" d="M456.191,51.251c0,0,28.977,29.898,3.477,38.36c0,0-67.917-19.335-55.803-46.652
		C415.979,15.644,456.191,51.251,456.191,51.251z"/>
	<path fill="#877161" d="M536.325,52.696c0,0-28.978,29.898-3.476,38.36c0,0,67.915-19.335,55.802-46.652
		C576.539,17.088,536.325,52.696,536.325,52.696z"/>
	<path fill="#A0826D" d="M496.801,16.106c-15.516-0.797-82.713,1.443-91.197,71.432c0,0-0.076,83.794,91.197,68.264
		c91.273,15.53,91.196-68.264,91.196-68.264C579.513,17.55,512.315,15.309,496.801,16.106z"/>
	<path fill="#383838" d="M482.28,106.142c0,0-25.268,17.757,5.021,27.209l21.965,1.45c1.668-1.996,19.267,0,16.037-17.266
		c-4.039-21.595-19.778-47.254-19.778-47.254L482.28,106.142z"/>
	<path fill="#EB5B72" d="M482.642,131.653c0,0,19.272-17.321,33.905,1.187C516.547,132.841,498.298,141.213,482.642,131.653z"/>
	<path fill="#EAC2A7" d="M497,69.057v-0.138c0,0.023,0.131,0.046,0,0.068c-0.131-0.022,0-0.045,0-0.068V69.057
		c-60,10.415-46.305,31.469-46.305,31.469c5.876,25.789,45.684,2.956,48.414,2.013c2.73,0.943,39.03,23.776,44.906-2.013
		C544.016,100.526,557,79.471,497,69.057z"/>
	<rect x="497" y="79" fill="#383838" width="5" height="26"/>
	<path fill="#383838" d="M615.194,120.655c-6.275-13.247-81.729-28.735-82.488-28.891l0.286-1.416
		c3.139,0.639,76.926,15.793,83.507,29.688L615.194,120.655z"/>
	<path fill="#383838" d="M607.919,131.861c-2.289-7.619-54.118-26.569-73.895-33.227l0.46-1.37
		c2.933,0.988,71.847,24.292,74.819,34.181L607.919,131.861z"/>
	<path fill="#383838" d="M595.288,143.675c-7.738-17.2-60.757-37.622-61.292-37.826l0.516-1.35
		c2.206,0.843,54.113,20.844,62.095,38.583L595.288,143.675z"/>
	<path fill="#383838" d="M384.672,119.21l-1.305-0.619c6.581-13.894,80.368-29.049,83.505-29.688l0.289,1.417
		C466.398,90.475,390.947,105.964,384.672,119.21z"/>
	<path fill="#383838" d="M391.946,130.416L390.562,130c2.974-9.889,71.886-33.193,74.818-34.181l0.461,1.37
		C446.064,103.847,394.237,122.797,391.946,130.416z"/>
	<path fill="#383838" d="M404.577,142.23l-1.317-0.593c7.98-17.74,59.889-37.74,62.093-38.583l0.516,1.35
		C465.335,104.608,412.314,125.032,404.577,142.23z"/>
	<ellipse fill="#7C5037" cx="499.343" cy="78.991" rx="21.857" ry="11.011"/>
	<circle fill="#0C0C0C" cx="454.704" cy="66.635" r="9.161"/>
	<circle fill="#FFFFFF" cx="453.741" cy="61.861" r="2.449"/>
	<circle fill="#0C0C0C" cx="541.43" cy="66.635" r="9.16"/>
	<circle fill="#FFFFFF" cx="540.468" cy="61.861" r="2.449"/>
</g>
</svg>
