<?xml version="1.0" encoding="utf-8"?>
<!-- Generator: Adobe Illustrator 16.0.3, SVG Export Plug-In . SVG Version: 6.00 Build 0)  -->
<!DOCTYPE svg PUBLIC "-//W3C//DTD SVG 1.1//EN" "http://www.w3.org/Graphics/SVG/1.1/DTD/svg11.dtd">
<svg version="1.1" id="pen" xmlns="http://www.w3.org/2000/svg" xmlns:xlink="http://www.w3.org/1999/xlink" x="0px" y="0px"
	 width="800px" height="600px" viewBox="0 0 800 600" enable-background="new 0 0 800 600" xml:space="preserve">
<g>
	<g>
		<path fill="#FFC16B" d="M208.2,503.195l-14.604-12.259l-0.724,0.771l-0.025-0.022c0,0-38.913,17.023-44.264,18.969
			c0,0-20.39,58.371-24.768,62.262l41.825-42.369c-0.244-0.607-0.381-1.27-0.381-1.965c0-2.916,2.364-5.279,5.282-5.279
			c2.917,0,5.282,2.363,5.282,5.279c0,2.918-2.365,5.283-5.282,5.283c-0.883,0-1.714-0.219-2.446-0.602l-41.738,42.219
			c3.836-4.426,62.678-26.291,62.678-26.291c1.879-5.375,18.417-44.497,18.417-44.497l-0.437-0.464L208.2,503.195z"/>
	</g>
	<path fill="#5B5B5B" d="M643.18,56.108c10.941,10.999,10.895,28.786-0.105,39.728L228.812,507.929
		c-11,10.942-28.787,10.896-39.729-0.105l0,0c-10.942-11-10.896-28.785,0.104-39.728L603.451,56.003
		C614.449,45.062,632.236,45.108,643.18,56.108L643.18,56.108z"/>
	<path fill="#444444" d="M676.178,60.916c-0.414-20.513-17.383-36.806-37.895-36.391c-9.49,0.193-18.07,3.932-24.518,9.92
		l-0.51-0.518L470.297,174.622l52.525,53.374L662.951,90.09C671.236,83.11,676.416,72.59,676.178,60.916z"/>
	<path fill="#FFC16B" d="M639.963,107.97L590.83,58.836c-3.201-3.2-7.723-4.258-11.811-3.197l6.922-6.811l-6.898-7.008
		L412.207,206.015c-1.602-0.68-3.361-1.056-5.211-1.056c-7.373,0-13.349,5.977-13.349,13.35c0,7.372,5.977,13.348,13.349,13.348
		c7.371,0,13.348-5.977,13.348-13.348c0-1.917-0.41-3.738-1.139-5.385L569.803,64.712c-1.146,4.135-0.102,8.751,3.148,12.002
		l49.133,49.134c4.809,4.808,12.605,4.808,17.414,0l0.465-0.465C644.77,120.574,644.77,112.777,639.963,107.97z"/>
</g>
</svg>
