<?xml version="1.0" encoding="utf-8"?>
<!-- Generator: Adobe Illustrator 16.0.3, SVG Export Plug-In . SVG Version: 6.00 Build 0)  -->
<!DOCTYPE svg PUBLIC "-//W3C//DTD SVG 1.1//EN" "http://www.w3.org/Graphics/SVG/1.1/DTD/svg11.dtd">
<svg version="1.1" id="pig" xmlns="http://www.w3.org/2000/svg" xmlns:xlink="http://www.w3.org/1999/xlink" x="0px" y="0px"
	 width="800px" height="600px" viewBox="0 0 800 600" enable-background="new 0 0 800 600" xml:space="preserve">
<g>
	<path fill="#E6A7B0" d="M235,461.322v79c0,0,46.286,34.341,101.481,9.016c0,0,12.12-46.104,3.678-75.974S235,461.322,235,461.322z"
		/>
	<path fill="#E6A7B0" d="M377,489.322v33c0,0,42,30.263,79,6.886v-45.886C456,483.322,392,472.787,377,489.322z"/>
	<path fill="#FFBFBF" d="M431.037,110.217c0,0-120.762,0.73-189.593,68.912c0,0-113.628,88.352-25.316,270.819
		c0,0,56.498,85.085,224.03,45.475c0,0,22.641,0.711,15.497,59.152c0,0,51.382,24.747,101.391,2.551c0,0,9.14-11.471,3.503-76.22
		c0,0,47.451-10.139,49.451-13.386v32.802c0,0,3.753,4.158,10.247,7.405c0,0,23.452,5.896,45.529-4.493
		c0,0,3.341-4.713,5.603-43.857c0,0,57.69-121.56,28.47-207.441C699.849,251.936,645.938,100.317,431.037,110.217z"/>
	<ellipse fill="#E6A7B0" cx="272.41" cy="275.935" rx="133.442" ry="136.688"/>
	<path fill="#FFBFBF" d="M574.371,138.311c0,0,49.151-80.459,100.721-50.251c0.399,0.342,32.039,21.413,4.237,56.503
		c0,0-34.804,16.473-44.929-18.131c0,0,2.819-60.539,47.138-92.771c0,0,11.281-0.806,5.641,5.641c0,0-39.885,65.487-32.634,86.921
		c0,0,9.489,10.878,17.547-6.043c0,0-22.037-55.122-74.412,31.095L574.371,138.311z"/>
	<path fill="#E6A7B0" d="M655.545,126.224c-9.674-15.734,31.634-86.921,31.634-86.921c5.641-6.447-5.641-5.641-5.641-5.641
		C637.22,65.893,635.4,119.432,635.4,119.432s27.471,41.224,37.179,0.807C672.579,120.239,661.998,136.72,655.545,126.224z"/>
	<path fill="#FFBFBF" d="M672.092,120.18c0,0-22.037-55.122-74.412,31.095l-23.309-12.964c0,0,49.151-80.459,100.721-50.251
		c0.399,0.342,32.039,21.413,4.237,56.503"/>
	<ellipse fill="#FFBFBF" cx="264.41" cy="270.935" rx="133.442" ry="136.688"/>
	<path fill="#E6A7B0" d="M197.682,163.449c0,0-12.053-58.208-76.398-74.12c0,0-19.464-11.945-26.633-13.486
		c0,0-6.351,12.176,0.125,22.819c0,0-17.507,58.382,42.05,95.005C196.383,230.291,197.682,163.449,197.682,163.449z"/>
	<path fill="#C68F9A" d="M94.775,98.663c0,0,73.015,9.951,94.139,94.639c0,0-6.399,21.354-37.644,7.759
		C151.271,201.061,79.705,176.656,94.775,98.663z"/>
	<path fill="#E6A7B0" d="M311.865,157.449c0,0,12.053-58.208,76.398-74.12c0,0,19.464-11.945,26.633-13.486
		c0,0,6.351,12.176-0.125,22.819c0,0,17.507,58.382-42.05,95.005C313.164,224.291,311.865,157.449,311.865,157.449z"/>
	<path fill="#C68F9A" d="M414.771,92.663c0,0-73.015,9.951-94.139,94.639c0,0,6.399,21.354,37.644,7.759
		C358.276,195.061,429.842,170.656,414.771,92.663z"/>
	<ellipse fill="#E6A7B0" cx="256.384" cy="302.455" rx="66.234" ry="44.155"/>
	<ellipse fill="#C68F9A" cx="227.202" cy="305.753" rx="13.961" ry="15.909"/>
	<ellipse fill="#C68F9A" cx="283.202" cy="305.753" rx="13.961" ry="15.909"/>
	<g>
		<circle fill="#0C0C0C" cx="198.075" cy="240.958" r="9.161"/>
		<circle fill="#FFFFFF" cx="197.654" cy="236.377" r="4.58"/>
	</g>
	<g>
		<circle fill="#0C0C0C" cx="317.075" cy="240.958" r="9.161"/>
		<circle fill="#FFFFFF" cx="316.654" cy="236.377" r="4.58"/>
	</g>
</g>
</svg>
