<?xml version="1.0" encoding="utf-8"?>
<!-- Generator: Adobe Illustrator 16.0.3, SVG Export Plug-In . SVG Version: 6.00 Build 0)  -->
<!DOCTYPE svg PUBLIC "-//W3C//DTD SVG 1.1//EN" "http://www.w3.org/Graphics/SVG/1.1/DTD/svg11.dtd">
<svg version="1.1" id="queen" xmlns="http://www.w3.org/2000/svg" xmlns:xlink="http://www.w3.org/1999/xlink" x="0px" y="0px"
	 width="800px" height="600px" viewBox="0 0 800 600" enable-background="new 0 0 800 600" xml:space="preserve">
<g>
	<path fill="#FFDBB2" d="M304.61,239.292c0,0-35.094,83.115-37.864,86.81c0,0-24.935,12.006-11.083,42.482
		c0,0,31.716,4.88,29.552-36.94c0,0,39.306-65.57,42.279-92.352C330.468,212.51,304.61,239.292,304.61,239.292z"/>
	<path fill="#FFDBB2" d="M462.387,234.385c0,0,39.018,81.348,41.961,84.906c0,0,25.479,10.803,13.096,41.905
		c0,0-31.447,6.388-31.28-35.488c0,0-42.388-63.622-46.635-90.231S462.387,234.385,462.387,234.385z"/>
	<path fill="#C5C0E2" d="M474.157,344.111c-19.476-25.514-40.755-25.13-40.755-25.13c-51.889,12.85-92.784-0.459-91.261,0
		c-8.904-2.404-21.329,7.301-21.329,7.301c-67.272,40.046-81.218,233.039-81.218,233.039c202.634,63.02,323.23-21.005,323.23-21.005
		S488.91,363.434,474.157,344.111z"/>
	<path fill="#C5C0E2" d="M435.287,319.484l-1.2-47.833l-6.668-62.375c-5.542-4.195-14.776,0-14.776,0l-29.553,27.282l-34.169-24.178
		c-12.931-9.401-18.664,5.551-18.664,5.551l4.184,52.797l2.928,47.333C337.368,318.062,394.208,345.152,435.287,319.484z"/>
	<ellipse fill="#C5C0E2" cx="309.006" cy="244.157" rx="44.79" ry="40.308"/>
	<path fill="#C5E0DC" d="M337.474,213.037c0,0-16.939-13.213-32.896-8.99c0,0-30.577,24.597-18.514,74.73
		c0,0,12.935,9.34,35.289,4.125C321.353,282.901,334.468,213.335,337.474,213.037"/>
	<ellipse fill="#C5C0E2" cx="456.916" cy="239.891" rx="44.79" ry="40.308"/>
	<path fill="#C5E0DC" d="M428.448,208.77c0,0,16.938-13.212,32.896-8.99c0,0,30.576,24.597,18.514,74.73
		c0,0-12.935,9.34-35.288,4.125C444.569,278.635,431.454,209.068,428.448,208.77"/>
	<path fill="#C5E0DC" d="M382.771,327c0,0-42.495,249.504-72.344,250.535c0,0,84.967,15.931,145.066,0.616
		c0,0-61.1-198.151-54.285-251.151H382.771z"/>
	<path fill="#B3B0CC" d="M336,299v20.878c0,0,58.656,22.046,100.137,1.187l-0.903-19.675c0,0-72.691,6.627-97.893-2.616"/>
	<path fill="#B3B0CC" d="M383.09,243.669c0,0-108.974-78.498-145.915-76.651c0,0,126.521-98.816,302.913-6.465
		C540.088,160.553,408.024,203.035,383.09,243.669z"/>
	<path fill="#936148" d="M379.257,66.132c0,0-103.147,7.714-77.362,120.069c0,0,4.947,28.225-8.679,31.943
		c0,0,55.603,17.712,60.581-10.732l58.847,1.864c0,0,27.493,26.6,61.626,7.414c0,0-21.685-23.869-17.648-34.295
		c0,0,26.054-116.607-78.115-116.263"/>
	<path fill="#FFDBB2" d="M436.709,153.367c-1.422,29.028-18.018,67.99-56.03,67.618c-31.33-0.306-52.947-29.105-60.295-67.618
		c-7-36.683,22.282-67.619,60.295-67.619S438.537,116.067,436.709,153.367z"/>
	<path fill="#936148" d="M416.455,138.157c-9.463-7.081-18.965-3.88-19.06-3.846l-0.938-2.686c0.443-0.157,11.04-3.723,21.7,4.253
		L416.455,138.157z"/>
	<path fill="#936148" d="M344.117,138.157c9.462-7.081,18.965-3.88,19.059-3.846l0.938-2.686c-0.442-0.157-11.04-3.723-21.7,4.253
		L344.117,138.157z"/>
	<path fill="#936148" d="M379.257,93.036c0,0-7.382,17.768-37.303,23.817c0,0,0.459,24.538-14.986,31.649
		c0,0,2.561,33.893-12.274,27.022c-8.865-4.106-23.282-101.688,61.34-98.844c0,0,102.861-14.933,67.786,102.399
		c0,0-16.967-15.297-9.01-27.135c0,0-17.294-21.368-13.474-32.248C421.337,119.697,382.479,109.391,379.257,93.036z"/>
	<g>
		<ellipse fill="#FFFFFF" cx="353.857" cy="152.769" rx="13.644" ry="7.822"/>
		<ellipse fill="#704C3C" cx="355.037" cy="153.187" rx="7.292" ry="7.404"/>
		<circle cx="354.782" cy="153.205" r="3.281"/>
	</g>
	<g>
		<ellipse fill="#FFFFFF" cx="405.057" cy="152.769" rx="13.645" ry="7.822"/>
		<ellipse fill="#704C3C" cx="406.237" cy="153.187" rx="7.292" ry="7.404"/>
		<circle cx="405.981" cy="153.205" r="3.28"/>
	</g>
	<path fill="#FAA191" d="M373.698,172.922l-0.539-1.195c0.072-0.068,7.271-6.582,14.068,0.008l-0.557,1.178
		C380.429,166.859,373.765,172.861,373.698,172.922z"/>
	<path fill="#C14949" d="M365.174,195.435c0,0,10.933-4.978,16.941,0c0,0,9.03-4.978,14.985,0
		C397.101,195.435,384.89,209.657,365.174,195.435z"/>
	<path fill="#C46262" d="M327.732,86.972c0,0,55.875,12.688,107.555-0.832c0,0,3.289-46.568-52.516-47.148
		C382.771,38.991,330.257,38.787,327.732,86.972z"/>
	<path fill="#F4E5A6" d="M386,38.027c0,2.194-1.779,3.973-3.974,3.973h-1.053c-2.194,0-3.974-1.779-3.974-3.973V19.973
		c0-2.194,1.779-3.973,3.974-3.973h1.053c2.194,0,3.974,1.779,3.974,3.973V38.027z"/>
	<path fill="#F4E5A6" d="M394,30.026c0,2.194-1.779,3.974-3.974,3.974h-18.053c-2.194,0-3.974-1.779-3.974-3.974v-1.053
		c0-2.194,1.779-3.974,3.974-3.974h18.053c2.194,0,3.974,1.779,3.974,3.974V30.026z"/>
	<path fill="#F4E5A6" d="M314.079,94.39c0,0,57.438,20.554,134.008,0l-4.267-42.598l-24.603,28.444l-19.272-28.444L379.257,83.08
		l-21.194-31.289l-17.428,28.268L315.59,51.792L314.079,94.39z"/>
</g>
</svg>
