<?xml version="1.0" encoding="utf-8"?>
<!-- Generator: Adobe Illustrator 16.0.3, SVG Export Plug-In . SVG Version: 6.00 Build 0)  -->
<!DOCTYPE svg PUBLIC "-//W3C//DTD SVG 1.1//EN" "http://www.w3.org/Graphics/SVG/1.1/DTD/svg11.dtd">
<svg version="1.1" id="rabbit" xmlns="http://www.w3.org/2000/svg" xmlns:xlink="http://www.w3.org/1999/xlink" x="0px" y="0px"
	 width="800px" height="600px" viewBox="0 0 800 600" enable-background="new 0 0 800 600" xml:space="preserve">
<g>
	<path fill="#BCBDC0" d="M460.011,344.817c0.281,5.12,1.643,11.565,1.643,16.887c0,15.808,0.535,32.104-2.898,45.886
		c44.955,0.477,21.281,57.27,15.856,76.608c44.627,12.099,127.539,40.586,111.404,81.962c0,0-31.051,57.876-159.485-71.098h-0.509
		l6.926-26.583c-9.72,8.03-20.699,12.559-32.323,12.559c-12.269,0-23.818-5.042-33.927-13.925l7.28,27.949h-0.507
		C245.035,624.036,213.985,566.16,213.985,566.16c-16.136-41.376,66.776-69.863,111.402-81.962
		c-5.513-19.656-39.165-76.74,18.114-77.441c-3.303-13.555-3.906-28.345-3.906-43.836c0-4.981,0.126-9.89,0.373-14.709
		l10.289-56.847c10.032-28.297,27.008-46.563,50.368-46.563c23.023,0,39.849,17.333,49.934,44.595L460.011,344.817z"/>
	<path fill="#BCBDC0" d="M343.214,159.626c0,0-92.49-112.559-39.265-138.735c0,0,43.628,7.854,64.569,123.901L343.214,159.626z"/>
	<path fill="#BCBDC0" d="M458.246,163.912c0,0,92.49-112.559,39.265-138.735c0,0-43.628,7.854-64.569,123.901L458.246,163.912z"/>
	<path fill="#BCBDC0" d="M397.246,135.898v-0.005c0,0,0.083,0,0,0.002c-0.083-0.002,0-0.002,0-0.002V135.898
		c-6.083,0.123-85.935,3.062-80.871,68.052c0,0,8.935,47.991,41.332,61.952c0,0,16.848,13.035,41.203,12.217
		c24.354,0.818,41.094-12.217,41.094-12.217c32.396-13.961,39.94-61.952,39.94-61.952
		C485.006,138.96,402.112,136.021,397.246,135.898z"/>
	<g>
		<circle fill="#171516" cx="353.433" cy="227.481" r="8.289"/>
		<circle fill="#FFFFFF" cx="353.388" cy="222.393" r="2.318"/>
	</g>
	<g>
		<circle fill="#171516" cx="442.318" cy="227.481" r="8.289"/>
		<circle fill="#FFFFFF" cx="442.274" cy="222.393" r="2.317"/>
	</g>
	<path fill="#E7E6E8" d="M358.139,266.186c0,0-8.063-43.458,39.639-30.02c0,0,45.016-15.117,40.704,30.818
		C438.481,266.984,400.635,293.182,358.139,266.186z"/>
	<ellipse fill="#E7E6E8" cx="400.588" cy="363.655" rx="28.118" ry="71.179"/>
	<path fill="#ADADAD" d="M366.697,467.113l-7.256-27.006c0,0,14.977,27.943,41.274,28.39c24.229,0.411,30.725-17.439,41.375-30.418
		l-9.143,30.4C432.947,468.479,402.664,500.204,366.697,467.113z"/>
	<path fill="#ADADAD" d="M424.404,297.387c0,0-3.883,16.991,1.107,21.857l5.929,6.49c0,0-1.185,8.516-5.929,16.628l25.676-13.789
		L424.404,297.387z"/>
	<path fill="#ADADAD" d="M340.564,344.913l-0.718,5.957l18.292,10.555c0,0,11.121,27.996,19.232,25.76l-10.544-36.305l-24.74-8.518
		L340.564,344.913z"/>
	<path fill="#ADADAD" d="M459.393,344.913l0.718,5.957l-18.292,10.555c0,0-11.122,27.996-19.232,25.76l10.544-36.305l24.741-8.518
		L459.393,344.913z"/>
	<path fill="#ADADAD" d="M375.529,298.604c0,0,3.883,16.99-1.107,21.857l-5.928,6.49c0,0,1.185,8.516,5.928,16.628l-25.675-13.789
		L375.529,298.604z"/>
	<path fill="#BCBDC0" d="M445.354,278.728c0,0,32.927,46.791,23.841,59.467c-9.085,12.676-33.22,17.153-33.22,17.153
		s-7.248,44.176-26.401,33.077c-19.151-11.102,0.011-32.541,5.634-41.193c0,0,17.345-20.142,26.103-19.934
		c0,0-22.915-17.793-16.906-29.911C424.404,297.387,433.724,273.379,445.354,278.728z"/>
	<path fill="#BCBDC0" d="M356.167,278.728c0,0-34.143,46.791-25.058,59.467s33.22,17.153,33.22,17.153s7.248,44.176,26.401,33.077
		c19.151-11.102-0.011-32.541-5.633-41.193c0,0-17.344-20.142-26.103-19.934c0,0,22.915-17.793,16.906-29.911
		C375.899,297.387,367.797,273.379,356.167,278.728z"/>
	<path fill="#ADADAD" d="M423.196,246.366l-2.419-0.252c-0.305,2.878-1.599,7.804-3.778,8.763l-0.135,0.221
		c-0.531,0.399-5.864,3.99-18.864,4.491V235h-2v24.581c-14-0.583-18.22-4.484-18.263-4.52l-0.288-0.184
		c-2.18-0.959-3.47-5.884-3.775-8.763l-2.417,0.252c0.093,0.895,1.021,8.71,5.07,10.669c0.977,0.74,6.549,4.64,20.653,5.023
		l1.02,0.033v-0.069c15-0.545,20.259-4.912,20.483-5.101l-0.013-0.153C422.127,254.46,423.107,247.226,423.196,246.366z"/>
	<ellipse fill="#F9ACD1" cx="397.066" cy="234.44" rx="12.429" ry="8.276"/>
	<path fill="#ADADAD" d="M303.151,46.291c0,0-9.327,8.111-5.272,14.195c4.055,6.084,24.269,65.299,49.65,84.36
		c0,0-30.588-85.983-35.05-89.633C312.48,55.213,310.857,50.347,303.151,46.291z"/>
	<path fill="#ADADAD" d="M501.845,47.508c0,0,9.327,8.111,5.271,14.195c-4.054,6.084-24.268,65.298-49.649,84.36
		c0,0,30.588-85.983,35.049-89.633C492.515,56.43,494.138,51.563,501.845,47.508z"/>
	<path fill="#ADADAD" d="M373.47,495.063c0,0-99.723,68.137-114.932,68.137c0,0-10.292,10.509,2.458,12.859
		C260.997,576.059,308.324,564.416,373.47,495.063z"/>
	<path fill="#ADADAD" d="M426.173,495.063c0,0,99.723,68.137,114.932,68.137c0,0,10.292,10.509-2.459,12.859
		C538.646,576.059,491.318,564.416,426.173,495.063z"/>
</g>
</svg>
