<?xml version="1.0" encoding="utf-8"?>
<!-- Generator: Adobe Illustrator 16.0.3, SVG Export Plug-In . SVG Version: 6.00 Build 0)  -->
<!DOCTYPE svg PUBLIC "-//W3C//DTD SVG 1.1//EN" "http://www.w3.org/Graphics/SVG/1.1/DTD/svg11.dtd">
<svg version="1.1" id="robot" xmlns="http://www.w3.org/2000/svg" xmlns:xlink="http://www.w3.org/1999/xlink" x="0px" y="0px"
	 width="800px" height="600px" viewBox="0 0 800 600" enable-background="new 0 0 800 600" xml:space="preserve">
<g>
	<rect x="432" y="407" fill="#F1C40F" width="24" height="68"/>
	<rect x="350" y="408" fill="#F1C40F" width="25" height="69"/>
	<rect x="395" y="37" fill="#F1C40F" width="9" height="43"/>
	<circle fill="#9B59B6" cx="400.207" cy="104.1" r="36.752"/>
	<path fill="#3498DB" d="M480,191.334C480,211.5,466.406,228,448.268,228h-94.151C335.978,228,321,211.5,321,191.334v-64.511
		C321,106.657,335.978,91,354.116,91h94.151C466.406,91,480,106.657,480,126.823V191.334z"/>
	<path fill="#E74C3C" d="M452,236.01c0,4.232-1.926,7.99-5.199,7.99h-87.954c-3.275,0-5.847-3.758-5.847-7.99v-0.498
		c0-4.232,2.572-7.512,5.847-7.512h87.954c3.273,0,5.199,3.28,5.199,7.512V236.01z"/>
	<rect x="350" y="502" fill="#F1C40F" width="25" height="68"/>
	
		<rect x="263.674" y="259.061" transform="matrix(0.7071 0.7071 -0.7071 0.7071 287.725 -104.7055)" fill="#F1C40F" width="13.139" height="71.751"/>
	<rect x="235" y="326" fill="#F1C40F" width="12" height="57"/>
	
		<rect x="523.186" y="259.061" transform="matrix(-0.7071 0.7071 -0.7071 -0.7071 1112.9012 128.8938)" fill="#F1C40F" width="13.139" height="71.751"/>
	<rect x="552" y="326" fill="#F1C40F" width="12" height="57"/>
	<circle fill="#E74C3C" cx="399.575" cy="33.403" r="13.626"/>
	<circle fill="#E74C3C" cx="241.16" cy="325.201" r="13.125"/>
	<path fill="#9B59B6" d="M241.422,394.338l-13.389,17.061c-3.874-3.596-6.298-8.732-6.298-14.432
		c0-10.875,8.814-19.688,19.687-19.688s19.687,8.813,19.687,19.688c0,4.941-1.82,9.457-4.828,12.912L241.422,394.338z"/>
	<circle fill="#E74C3C" cx="558.84" cy="325.201" r="13.125"/>
	<path fill="#9B59B6" d="M558.578,394.338l13.389,17.061c3.873-3.596,6.297-8.732,6.297-14.432c0-10.875-8.813-19.688-19.686-19.688
		s-19.688,8.813-19.688,19.688c0,4.941,1.82,9.457,4.828,12.912L558.578,394.338z"/>
	<path fill="#3498DB" d="M489,392.16c0,14.385-13,25.84-29.336,25.84H342.332C325.996,418,313,406.545,313,392.16V269.723
		C313,255.336,325.996,244,342.332,244h117.332C476,244,489,255.336,489,269.723V392.16z"/>
	<path fill="#9B59B6" d="M331.649,580c0-17,13.628-30.436,30.438-30.436c16.812,0,30.438,13.436,30.438,30.436H331.649z"/>
	<circle fill="#E74C3C" cx="504.662" cy="270.99" r="20.016"/>
	<circle fill="#E74C3C" cx="295.338" cy="270.99" r="20.015"/>
	<rect x="432" y="501" fill="#F1C40F" width="24" height="68"/>
	<path fill="#9B59B6" d="M413.201,580c0-17,13.627-30.436,30.438-30.436S474.076,563,474.076,580H413.201z"/>
	<path fill="#F1C40F" d="M469,296c0,11.045-8.954,20-20,20h-90c-11.046,0-20-8.954-20-20V296c0-11.045,8.954-20,20-20h90
		C460.046,276,469,284.954,469,296L469,296z"/>
	<circle fill="#9B59B6" cx="362.874" cy="295.989" r="13.125"/>
	<circle fill="#9B59B6" cx="444.425" cy="295.989" r="13.124"/>
	<circle fill="#9B59B6" cx="403.041" cy="295.989" r="13.125"/>
	<circle fill="#F1C40F" cx="353.115" cy="161.468" r="9.945"/>
	<circle fill="#F1C40F" cx="444.403" cy="161.468" r="9.944"/>
	<path fill="#34495E" d="M427,199.908c0,3.719-5.068,6.092-10.775,6.092h-31.67c-5.708,0-9.554-2.374-9.554-6.092v-0.015
		c0-3.718,3.846-6.893,9.554-6.893h31.67c5.707,0,10.775,3.174,10.775,6.893V199.908z"/>
	<circle fill="#E74C3C" cx="443.803" cy="488.865" r="20.016"/>
	<circle fill="#E74C3C" cx="363.469" cy="488.865" r="20.015"/>
</g>
</svg>
