<?xml version="1.0" encoding="utf-8"?>
<!-- Generator: Adobe Illustrator 16.0.3, SVG Export Plug-In . SVG Version: 6.00 Build 0)  -->
<!DOCTYPE svg PUBLIC "-//W3C//DTD SVG 1.1//EN" "http://www.w3.org/Graphics/SVG/1.1/DTD/svg11.dtd">
<svg version="1.1" id="spider" xmlns="http://www.w3.org/2000/svg" xmlns:xlink="http://www.w3.org/1999/xlink" x="0px" y="0px"
	 width="800px" height="600px" viewBox="0 0 800 600" enable-background="new 0 0 800 600" xml:space="preserve">
<g>
	<ellipse fill="#98CFED" cx="401.214" cy="208.504" rx="191.947" ry="139.676"/>
	<ellipse fill="#98CFED" cx="400.495" cy="387.066" rx="98.544" ry="93.077"/>
	<path fill="#83B4C9" d="M394.021,494.968c-10.208,11.402-27.728,12.373-39.131,2.164l0,0
		c-11.402-10.209-12.372-27.729-2.164-39.132l7.041-7.868c10.21-11.4,27.729-12.369,39.132-2.162l0,0
		c11.404,10.21,12.372,27.729,2.164,39.134L394.021,494.968z"/>
	<path fill="#83B4C9" d="M450.453,456.812c10.765,10.877,10.672,28.425-0.208,39.193l0,0c-10.878,10.761-28.424,10.668-39.189-0.211
		l-7.428-7.502c-10.763-10.88-10.671-28.427,0.208-39.192l0,0c10.878-10.764,28.425-10.672,39.191,0.206L450.453,456.812z"/>
	<path fill="#98CFED" d="M306.955,386h-81.818c-9.948,0-18.455,6.508-21.992,15.186l-70.718,89.141
		c-8.618,10.842-6.816,26.712,4.022,35.326c10.839,8.62,26.611,6.726,35.23-4.114L241.203,434h65.752
		c13.118,0,23.753-10.881,23.753-24C330.708,396.879,320.073,386,306.955,386z"/>
	<path fill="#98CFED" d="M306.955,320h-81.818c-4.372,0-8.455,1.6-11.974,3.66c-0.914,0.33-1.82,0.899-2.71,1.343l-103.889,51.992
		c-12.387,6.188-17.414,21.298-11.227,33.683c6.189,12.387,21.246,17.44,33.635,11.251L232.859,369.9
		c1.042-0.519,2.011-1.9,2.945-1.9h71.151c13.118,0,23.753-10.879,23.753-24C330.708,330.881,320.073,320,306.955,320z"/>
	<path fill="#98CFED" d="M264.727,266h-81.817c-2.544,0-4.991,0.094-7.289,0.834c-2.087,0.377-4.16,0.863-6.161,1.836L91.13,306.674
		c-11.798,5.737-16.712,19.912-10.977,31.711c5.736,11.799,19.949,16.253,31.749,10.516l74.96-36.9h77.864
		c13.119,0,23.753-9.881,23.753-23C288.479,275.88,277.846,266,264.727,266z"/>
	<path fill="#98CFED" d="M225.137,210H143.32c-1.101,0-2.174,0.072-3.234,0.218c-3.508,0.216-7.026,1.139-10.323,2.915
		L27.524,268.199c-12.191,6.567-16.75,21.772-10.184,33.96c6.567,12.19,21.773,16.524,33.966,9.957L153.202,257h71.935
		c13.12,0,23.754-10.381,23.754-23.5C248.891,220.38,238.256,210,225.137,210z"/>
	<path fill="#515151" d="M344.232,390.845c0,12.33,9.993,22.322,22.325,22.322c12.327,0,22.323-9.992,22.323-22.322
		c0-12.332-9.996-22.324-22.323-22.324C354.226,368.521,344.232,378.513,344.232,390.845z"/>
	<circle fill="#FFFFFF" cx="374.512" cy="377.924" r="8.946"/>
	<path fill="#B2D9EA" d="M373.375,447.477c0,0-17.053,3.866-19.641,22.436c0,0,19.419-19.796,23.6-18.477L373.375,447.477z"/>
	<path fill="#B2D9EA" d="M428.955,447.477c0,0,17.051,3.866,19.638,22.436c0,0-19.417-19.796-23.597-18.477L428.955,447.477z"/>
	<circle fill="#FFFFFF" cx="362.837" cy="389.776" r="3.422"/>
	<circle fill="#515151" cx="343.408" cy="417.841" r="9.732"/>
	<circle fill="#FFFFFF" cx="346.876" cy="412.208" r="3.9"/>
	<circle fill="#FFFFFF" cx="341.787" cy="417.376" r="1.492"/>
	<circle fill="#515151" cx="364.523" cy="425.759" r="9.732"/>
	<path fill="#FFFFFF" d="M364.102,419.834c-0.162,2.146,1.446,4.021,3.595,4.184c2.148,0.159,4.021-1.449,4.184-3.597
		c0.161-2.148-1.449-4.022-3.596-4.184C366.135,416.076,364.264,417.686,364.102,419.834z"/>
	<circle fill="#FFFFFF" cx="362.901" cy="425.294" r="1.492"/>
	<circle fill="#515151" cx="346.047" cy="362.416" r="9.732"/>
	<circle fill="#FFFFFF" cx="349.515" cy="356.784" r="3.9"/>
	<circle fill="#FFFFFF" cx="344.425" cy="361.951" r="1.492"/>
	<path fill="#515151" d="M457.504,390.845c0,12.33-9.994,22.322-22.325,22.322c-12.328,0-22.325-9.992-22.325-22.322
		c0-12.332,9.997-22.324,22.325-22.324C447.51,368.521,457.504,378.513,457.504,390.845z"/>
	<path fill="#FFFFFF" d="M436.146,377.252c0.37,4.926-3.32,9.224-8.246,9.596c-4.93,0.37-9.226-3.322-9.597-8.252
		c-0.37-4.926,3.322-9.22,8.248-9.592C431.479,368.633,435.773,372.324,436.146,377.252z"/>
	<circle fill="#FFFFFF" cx="438.899" cy="389.776" r="3.421"/>
	<circle fill="#515151" cx="458.327" cy="417.841" r="9.733"/>
	<circle fill="#FFFFFF" cx="454.859" cy="412.208" r="3.9"/>
	<circle fill="#FFFFFF" cx="462.588" cy="417.376" r="1.491"/>
	<circle fill="#515151" cx="437.213" cy="425.759" r="9.732"/>
	<path fill="#FFFFFF" d="M437.634,419.834c0.162,2.146-1.445,4.021-3.594,4.184c-2.148,0.159-4.022-1.449-4.184-3.597
		c-0.161-2.148,1.448-4.022,3.594-4.184C435.601,416.076,437.472,417.686,437.634,419.834z"/>
	<circle fill="#FFFFFF" cx="441.474" cy="425.294" r="1.491"/>
	<circle fill="#515151" cx="455.688" cy="362.416" r="9.732"/>
	<circle fill="#FFFFFF" cx="449.581" cy="356.784" r="3.901"/>
	<circle fill="#FFFFFF" cx="457.31" cy="361.951" r="1.492"/>
	<path fill="#71B8DB" d="M223.818,200.046c0,0,8.905,141.202,224.501,133.283c0,0,29.087-15.175,1.267-30.352c0,0,0,0-49.091,3.3
		C400.495,306.277,267.366,300.998,223.818,200.046z"/>
	<path fill="#B2D9EA" d="M564.813,192.128c0,0-7.037-111.575-177.399-105.318c0,0-22.983,11.991-1,23.982c0,0,0,0,38.79-2.607
		C425.203,108.186,530.401,112.358,564.813,192.128z"/>
	<path fill="#7192A5" d="M317.841,433.621l-76.639,0.66l-52.418,65.934c0,0,30.085-59.811,50.869-73.428
		C239.653,426.787,331.698,427.354,317.841,433.621z"/>
	<path fill="#7192A5" d="M308.601,368.223l-72.797,0.077l-66.231,33.373c0,0,52.266-39.156,67.771-41.214
		C237.344,360.459,320.473,360.886,308.601,368.223z"/>
	<path fill="#7192A5" d="M274.624,312.703l-87.761,0.173l-53.739,26.126c0,0,42.527-33.143,59.353-33.099
		C192.477,305.903,289.14,307.254,274.624,312.703z"/>
	<path fill="#7192A5" d="M225.137,257h-71.26l-65.383,35.083c0,0,50.867-37.279,72.311-41.568
		C160.805,250.515,234.704,249,225.137,257z"/>
	<path fill="#98CFED" d="M493.829,386h81.818c9.949,0,18.456,6.508,21.992,15.186l70.719,89.141
		c8.617,10.842,6.816,26.712-4.023,35.326c-10.839,8.62-26.61,6.726-35.23-4.114L559.583,434h-65.754
		c-13.118,0-23.752-10.881-23.752-24C470.077,396.879,480.711,386,493.829,386z"/>
	<path fill="#98CFED" d="M493.829,320h81.818c4.371,0,8.455,1.6,11.974,3.66c0.915,0.33,1.821,0.899,2.711,1.343l103.889,51.992
		c12.387,6.188,17.414,21.298,11.227,33.683c-6.189,12.387-21.246,17.44-33.635,11.251L567.926,369.9
		c-1.042-0.519-2.011-1.9-2.945-1.9h-71.151c-13.118,0-23.752-10.879-23.752-24C470.077,330.881,480.711,320,493.829,320z"/>
	<path fill="#98CFED" d="M536.059,266h81.816c2.545,0,4.991,0.094,7.289,0.834c2.088,0.377,4.16,0.863,6.162,1.836l78.328,38.003
		c11.798,5.737,16.712,19.912,10.977,31.711c-5.737,11.799-19.949,16.253-31.748,10.516L613.922,312h-77.863
		c-13.12,0-23.753-9.881-23.753-23C512.306,275.88,522.938,266,536.059,266z"/>
	<path fill="#98CFED" d="M575.647,210h81.817c1.101,0,2.173,0.072,3.234,0.218c3.509,0.216,7.026,1.139,10.322,2.915l102.239,55.066
		c12.191,6.567,16.75,21.772,10.183,33.96c-6.566,12.19-21.772,16.524-33.965,9.957L647.583,257h-71.936
		c-13.119,0-23.754-10.381-23.754-23.5C551.894,220.38,562.528,210,575.647,210z"/>
	<path fill="#7192A5" d="M482.943,433.621l76.64,0.66L612,500.215c0,0-30.086-59.811-50.869-73.428
		C561.131,426.787,469.086,427.354,482.943,433.621z"/>
	<path fill="#7192A5" d="M492.184,368.223l72.797,0.077l66.23,33.373c0,0-52.266-39.156-67.771-41.214
		C563.44,360.459,480.312,360.886,492.184,368.223z"/>
	<path fill="#7192A5" d="M526.161,312.703l87.761,0.173l53.739,26.126c0,0-42.527-33.143-59.353-33.099
		C608.309,305.903,511.645,307.254,526.161,312.703z"/>
	<path fill="#7192A5" d="M575.647,257h71.26l65.383,35.083c0,0-50.866-37.279-72.31-41.568C639.98,250.515,566.08,249,575.647,257z"
		/>
</g>
</svg>
