<?xml version="1.0" encoding="utf-8"?>
<!-- Generator: Adobe Illustrator 16.0.3, SVG Export Plug-In . SVG Version: 6.00 Build 0)  -->
<!DOCTYPE svg PUBLIC "-//W3C//DTD SVG 1.1//EN" "http://www.w3.org/Graphics/SVG/1.1/DTD/svg11.dtd">
<svg version="1.1" id="tent" xmlns="http://www.w3.org/2000/svg" xmlns:xlink="http://www.w3.org/1999/xlink" x="0px" y="0px"
	 width="800px" height="600px" viewBox="0 0 800 600" enable-background="new 0 0 800 600" xml:space="preserve">
<g>
	
		<rect x="725.035" y="377.801" transform="matrix(0.032 0.9995 -0.9995 0.032 1118.8949 -322.9381)" fill="#7A7A79" width="2.26" height="76.724"/>
	<path fill="#C9A285" d="M760.178,423.215c-0.097,2.185,1.595,4.032,3.779,4.13l0,0c2.184,0.098,4.032-1.596,4.13-3.779
		l0.551-12.426c0.094-2.185-1.597-4.033-3.78-4.13l0,0c-2.185-0.097-4.032,1.595-4.129,3.779L760.178,423.215z"/>
	<path fill="#7A7A79" d="M759.424,414.693c-0.057,1.246,0.911,2.305,2.16,2.358l5.647,0.251c1.248,0.054,2.304-0.912,2.359-2.159
		l0,0c0.055-1.248-0.911-2.305-2.159-2.36l-5.648-0.25C760.535,412.478,759.479,413.445,759.424,414.693L759.424,414.693z"/>
	<path fill="#7A7A79" d="M397,137.182c0,1.556-1.262,2.818-2.818,2.818h-0.363c-1.557,0-2.818-1.262-2.818-2.818V64.818
		c0-1.556,1.262-2.818,2.818-2.818h0.363c1.557,0,2.818,1.262,2.818,2.818V137.182z"/>
	<polygon fill="#FF6B6B" points="320.316,88.842 355.658,77.685 391,66.527 391,88.842 391,111.156 355.658,99.999 	"/>
	<polyline fill="#F79797" points="391,88 391,111.156 355.658,99.999 320.408,88.59 	"/>
	<path fill="#A5E5BC" d="M727.654,429.923l-405.222,78.49L95.179,383.378c0,0,128.686-250.069,298.441-251.895
		C393.62,131.483,500.4,80.373,727.654,429.923z"/>
	<path fill="#99CEAA" d="M393.62,131.483c0,0-27.381,288.401-71.188,376.93L95.179,383.378
		C95.179,383.378,233.903,119.618,393.62,131.483z"/>
	<ellipse fill="#7A7A79" cx="314.08" cy="491.979" rx="6.609" ry="6.242"/>
	<polygon fill="#99CEAA" points="617.222,412.584 443.285,442.135 391.794,230.963 551.773,217.273 	"/>
	<ellipse fill="#7A7A79" cx="108.264" cy="381.155" rx="6.61" ry="6.241"/>
	
		<rect x="276.932" y="464.01" transform="matrix(0.3288 0.9444 -0.9444 0.3288 662.4771 75.5896)" fill="#7A7A79" width="2.26" height="79.666"/>
	<path fill="#C9A285" d="M245.258,524.95c0.228,2.172-1.349,4.12-3.524,4.348l0,0c-2.174,0.229-4.121-1.349-4.348-3.523
		l-1.297-12.371c-0.228-2.174,1.35-4.122,3.524-4.35l0,0c2.174-0.229,4.12,1.351,4.348,3.523L245.258,524.95z"/>
	<path fill="#7A7A79" d="M245.499,516.396c0.131,1.242-0.771,2.356-2.013,2.486l-5.624,0.59c-1.243,0.129-2.355-0.772-2.485-2.014
		l0,0c-0.13-1.242,0.771-2.356,2.013-2.486l5.624-0.59C244.256,514.253,245.369,515.154,245.499,516.396L245.499,516.396z"/>
	<path fill="#688C71" d="M540.34,264.713c0,0,81.445,127.791-0.695,141.481l-57.227,7.302c0,0-41.341,8.214-49.554-31.943
		l-21.448-118.646l130.055-20.078L540.34,264.713z"/>
	<path fill="#576B5B" d="M574.338,378.545c0,0-0.777,23.321-34.693,27.649c0,0-70.271,9.753-79.008,6.364l14.209-66.6
		L574.338,378.545z"/>
	<polygon fill="#BFD8C6" points="514.677,281.087 445.568,470.007 383.189,215.824 	"/>
	<polygon fill="#BFD8C6" points="698.797,265.626 628.283,441.897 555.471,211.012 	"/>
	<polygon fill="#8AB295" points="384.001,216.635 511.353,280.247 699.361,264.732 550.27,206.556 	"/>
</g>
<polyline fill="#7A7A79" points="111.893,380.174 50.645,398.379 50.139,396.625 111.387,378.42 "/>
<path fill="#C9A285" d="M54.928,405.578c0.119,2.182-1.553,4.047-3.736,4.166l0,0c-2.183,0.121-4.049-1.554-4.167-3.736
	l-0.677-12.42c-0.119-2.184,1.554-4.049,3.737-4.168l0,0c2.183-0.119,4.048,1.555,4.167,3.736L54.928,405.578z"/>
<path fill="#7A7A79" d="M55.597,397.047c0.068,1.247-0.888,2.314-2.135,2.382l-5.646,0.309c-1.248,0.067-2.313-0.889-2.381-2.136
	l0,0c-0.068-1.247,0.888-2.315,2.135-2.383l5.646-0.308C54.462,394.844,55.529,395.8,55.597,397.047L55.597,397.047z"/>
</svg>
