<?xml version="1.0" encoding="utf-8"?>
<!-- Generator: Adobe Illustrator 16.0.3, SVG Export Plug-In . SVG Version: 6.00 Build 0)  -->
<!DOCTYPE svg PUBLIC "-//W3C//DTD SVG 1.1//EN" "http://www.w3.org/Graphics/SVG/1.1/DTD/svg11.dtd">
<svg version="1.1" id="Layer_5" xmlns="http://www.w3.org/2000/svg" xmlns:xlink="http://www.w3.org/1999/xlink" x="0px" y="0px"
	 width="800px" height="600px" viewBox="0 0 800 600" enable-background="new 0 0 800 600" xml:space="preserve">
<g>
	<path fill="#C9A285" d="M148.89,571.809c-14.365,13.005-36.301,12.186-48.86-1.689c-12.557-13.868-11.202-35.778,3.165-48.783
		l10.377-9.396l0.086,0.096c3.929-2.736,7.045-1.656,9.391,0.935c2.347,2.593,3.115,5.801,0,9.438l0.087,0.098l-10.6,9.596
		c-7.612,6.892-8.16,19.224-0.775,27.381l0.429,0.477c7.383,8.156,19.3,8.381,26.914,1.487l6.613-5.987L605.79,118.535
		c4.281-4.066,9.849-5.153,12.436-2.428l0.065,0.068c2.586,2.724,1.373,8.396-2.908,12.461L148.89,571.809z"/>
	<path fill="#C7EF59" d="M617.164,136.301c0,0,172.194,232.756,43.858,437.485c0,0,12.354-103.2-130.285-117.133
		C530.737,456.653,643.365,366.134,617.164,136.301z"/>
	<path fill="#FF6B6B" d="M605.201,120.704c0,0-226.08-180.869-435.513-60.362c0,0,103.594-8.445,112.125,134.619
		C281.813,194.96,376.525,85.834,605.201,120.704z"/>
	<path fill="#FFFF83" d="M605.101,120.644c0,0-217.284-38.007-323.338,74.287c0,0,103.438-0.348,105.556,140.268
		c0,0,173.682-181.717,217.682-205.564V118"/>
	<path fill="#4ECDC4" d="M605.428,129.634l11.736,6.667c0,0,37.481,203.321-86.427,320.352c0,0,12.757-95.262-143.152-121.508
		C387.585,335.146,580.354,136.212,605.428,129.634z"/>
	<path fill="#C9A285" d="M599.963,119.626c0,0,0.869,11.786,16.568,17.463C616.531,137.09,659.718,81.51,599.963,119.626z"/>
</g>
</svg>
