<?xml version="1.0" encoding="utf-8"?>
<!-- Generator: Adobe Illustrator 16.0.3, SVG Export Plug-In . SVG Version: 6.00 Build 0)  -->
<!DOCTYPE svg PUBLIC "-//W3C//DTD SVG 1.1//EN" "http://www.w3.org/Graphics/SVG/1.1/DTD/svg11.dtd">
<svg version="1.1" id="van" xmlns="http://www.w3.org/2000/svg" xmlns:xlink="http://www.w3.org/1999/xlink" x="0px" y="0px"
	 width="800px" height="600px" viewBox="0 0 800 600" enable-background="new 0 0 800 600" xml:space="preserve">
<g>
	<path fill="#FF8888" d="M501,423H28V94.609l473.564,1.469l90.888,89.933c0,0,156.944,157.111,167.841,166.175
		c0,0,10.771,37.069,0.027,55.194l-42.967,4.124c0,0-68.586-55.505-95.862,58.495H501V423"/>
	<path fill="#FF6161" d="M482,272.928c0,24.34-19.731,44.072-44.071,44.072H94.071C69.731,317,50,297.269,50,272.928v-34.856
		C50,213.731,69.731,194,94.071,194h343.857c24.34,0,44.071,19.731,44.071,44.072V272.928z"/>
	<path fill="#ED7272" d="M482,266.929c0,24.34-19.731,44.071-44.071,44.071H94.071C69.731,311,50,291.269,50,266.929v-34.858
		C50,207.731,69.731,188,94.071,188h343.857c24.34,0,44.071,19.731,44.071,44.071V266.929z"/>
	<path fill="#9EA0A4" d="M235.953,420.675h268.908l-1.297,49.222l-263.465-1.845l-17.066-44.697c0,0-44.725-38.88-75.516,5.678
		c0,0-14.959,9.451-14.959,38.698L28.126,449.235v-28.561l99.777-0.733"/>
	<circle fill="#C4C4C4" cx="183.999" cy="451.394" r="29.942"/>
	<circle fill="#C4C4C4" cx="682.003" cy="451.394" r="29.942"/>
	<path fill="#9EA0A4" d="M716.357,410.847l42.697-4.936c0,0-2.496,6.698,3.499-9.518c0,0,15.283-9.645,6.886,35.133
		c0,0,2.308,2.718-35.713,18.935C733.727,450.461,732.051,439.141,716.357,410.847z"/>
	<path fill="#FF6161" d="M512.356,193.544c0,0-1.356,261.456,1.685,269.456h91.96c0,0,26.999-88.031,75.999-80.401v-82.323
		l-64.002-78.975C617.998,221.301,592.496,184.949,512.356,193.544z"/>
	<path fill="#BDD6F9" d="M553.716,204.215c0,0,31.728-5.755,63.803,27.648l50.374,66.046L559.501,297.7
		c0,0-31.268,4.102-34.928-29.282c-0.332-3.02-0.437-6.347-0.273-10.011C524.3,258.408,517.641,206.582,553.716,204.215z"/>
	<path fill="#424242" d="M669.644,303.214c0,4.058-2.848,7.346-6.363,7.346l0,0c-3.515,0-6.364-3.288-6.364-7.346v-27.912
		c0-4.057,2.85-7.346,6.364-7.346l0,0c3.516,0,6.363,3.289,6.363,7.346V303.214z"/>
	<path fill="#9EA0A4" d="M637.731,421.428c0,0-5.212,35.257-5.424,48.478h-21.307c0,0,19.307-42.602,19.307-48.478H637.731z"/>
	<path fill="#E0E2A6" d="M761.187,355.549c0,0-28.894,23.32,3.912,36.909C765.099,392.458,771.899,368.163,761.187,355.549z"/>
	<path fill="#444444" d="M183.845,397.783c-29.715,0-53.804,24.089-53.804,53.804c0,29.716,24.088,53.804,53.804,53.804
		s53.804-24.088,53.804-53.804C237.648,421.872,213.56,397.783,183.845,397.783z M183.845,478.397
		c-14.807,0-26.81-12.004-26.81-26.811s12.003-26.81,26.81-26.81s26.81,12.003,26.81,26.81S198.651,478.397,183.845,478.397z"/>
	<path fill="#444444" d="M681.849,397.783c-29.714,0-53.803,24.089-53.803,53.804c0,29.716,24.089,53.804,53.803,53.804
		c29.716,0,53.805-24.088,53.805-53.804C735.653,421.872,711.564,397.783,681.849,397.783z M681.849,478.397
		c-14.807,0-26.809-12.004-26.809-26.811s12.002-26.81,26.809-26.81s26.811,12.003,26.811,26.81S696.655,478.397,681.849,478.397z"
		/>
</g>
</svg>
