<?xml version="1.0" encoding="utf-8"?>
<!-- Generator: Adobe Illustrator 16.0.3, SVG Export Plug-In . SVG Version: 6.00 Build 0)  -->
<!DOCTYPE svg PUBLIC "-//W3C//DTD SVG 1.1//EN" "http://www.w3.org/Graphics/SVG/1.1/DTD/svg11.dtd">
<svg version="1.1" id="vulture" xmlns="http://www.w3.org/2000/svg" xmlns:xlink="http://www.w3.org/1999/xlink" x="0px" y="0px"
	 width="800px" height="600px" viewBox="0 0 800 600" enable-background="new 0 0 800 600" xml:space="preserve">
<g>
	<path fill="#565656" d="M267.001,189.418c0,0-98.757,141.664,70.598,234.402C337.599,423.82,302.342,206.214,267.001,189.418z"/>
	<path fill="#727272" d="M506.16,478.305c0,0,47.095,61.357,93.604,44.395c0,0,2.491-6.168-3.322-10.795
		c0,0,44.85,17.734,59.799,2.314c0,0,3.323-9.045-5.813-12.234c0,0,18.271,9.359,31.561,0c0,0,7.478-8.703-14.949-23.68
		l-53.987-28.857c0,0-86.877-61.684-99.085-84.045C513.968,365.402,439.134,420.803,506.16,478.305z"/>
	<path fill="#FFD89F" d="M291.265,522.621c-16.727,2.088-3.44,18.355-3.44,18.355c22.637,2.922,45.55-9.887,45.55-9.887
		c-18.256,23.367-7.186,35.664-7.186,35.664c15.334,8.762,22.345,4.498,22.345,4.498c11.684-8.762,11.129-40.162,11.129-40.162
		c24.828,18.986,46.734,5.842,46.734,5.842c7.303-13.875-10.954-18.928-10.954-18.928c-29.938,2.191-35.781-9.551-35.781-9.551
		l14.604-45.273c5.533-17.154-24.097-16.066-24.097-16.066l-11.684,60.609C338.486,507.723,303.293,521.121,291.265,522.621z"/>
	<path fill="#FFD89F" d="M544.268,540.025c16.186,4.707,0.495,18.668,0.495,18.668c-22.814-0.693-43.414-16.965-43.414-16.965
		c14.332,25.961,1.455,36.354,1.455,36.354c-16.525,6.227-22.774,0.908-22.774,0.908c-10.15-10.5-4.64-41.416-4.64-41.416
		c-27.518,14.82-47.068-1.621-47.068-1.621c-5.018-14.855,13.808-16.959,13.808-16.959c29.215,6.896,36.841-3.773,36.841-3.773
		l-7.263-47.012c-2.753-17.813,26.333-12.055,26.333-12.055l1.955,61.695C499.995,517.85,532.627,536.643,544.268,540.025z"/>
	<path fill="#999999" d="M327.318,402.645c0,0-14.312,105.15,81.566,62.068c0,0,11.902,2.92,27.968-0.73
		c0,0,64.991,40.893,82.516-16.064c0,0,61.338-177.444-83.246-305.963c0,0-160.649-24.827-167.221,75.213
		C268.901,217.167,250.645,358.832,327.318,402.645z"/>
	<path fill="#727272" d="M408.885,448.664c0,0,10.665,5.859,18.586,0c0,0,1.624,11.096,9.382,15.318c0,0-17.919,8.352-27.968,0.73
		c0,0-18.562,7.617-25.902,8.797C382.983,473.51,405.699,464.891,408.885,448.664z"/>
	<path fill="#E2E2E2" d="M318.658,173.851c0,0-62.171,28.712-66.552,60.111c0,0-11.684,111.725,114.644,167.221
		c0,0,132.902-103.69,71.563-218.336C438.313,182.847,369.774,141.721,318.658,173.851z"/>
	<path fill="#E2E2E2" d="M488.496,385.848c0,0,24.648,69.777,67.171,62.213c0,0,3.509-5.592-0.224-11.297
		c0,0,33.014,26.32,49.019,14.059c0,0,4.872-8.262-1.951-13.203c0,0,11.692,7.063,24.9,0.453c0,0-0.175-14.367-15.252-33.555
		l-28.502-32.152c0,0-57.354-71.848-62.232-96.3C521.425,276.065,446.422,315.947,488.496,385.848z"/>
	<path fill="#565656" d="M432.881,140.463c0,0-23.333,185.451,126.925,276.423c0,0,15.647,6.869,33.671,4.543
		c0,0,7.457-37.139-21.408-136.015C572.068,285.415,503.119,98.872,432.881,140.463z"/>
	<path fill="#EFCACA" d="M362.631,185.938c0,0,9.609,35.02-50.287,58.284c0,0-89.339,33.564-79.221-79.712
		c0,0-0.267-43.741,7.186-59.397c0,0,7.788-17.029,28.061-1.639c0,0,10.246,28.438,6.688,63.969c0,0,0.791,23.006,16.713,22.269
		C291.771,189.711,344.125,147.968,362.631,185.938z"/>
	<ellipse fill="#EFCACA" cx="217.621" cy="85.706" rx="65.198" ry="66.813"/>
	<path fill="#FFD89F" d="M201.961,132.692c12.328-18.292,5.001-37.696-16.364-43.339c-21.365-5.644-48.68,4.611-61.008,22.901
		c-3.387,5.028-5.284,10.139-5.819,15.025l-0.045-0.012c0,0-7.71,24.913,7.836,45.189c0,0,31.503-5.207,55.713-22.681
		C190.259,145.565,197.22,139.726,201.961,132.692z"/>
	<path fill="#F0C26D" d="M126.562,172.457c0,0,48.508-7.906,72.582-36.03c0,0,13.012-15.818,8.524-25.919
		C207.668,110.507,181.728,133.124,126.562,172.457z"/>
	<circle fill="#494949" cx="169.101" cy="71.018" r="7.99"/>
	<circle fill="#494949" cx="216.332" cy="74.392" r="7.99"/>
	<circle fill="#FFFFFF" cx="166.326" cy="67.118" r="2.966"/>
	<circle fill="#FFFFFF" cx="213.556" cy="70.491" r="2.966"/>
</g>
</svg>
