<?xml version="1.0" encoding="utf-8"?>
<!-- Generator: Adobe Illustrator 16.0.3, SVG Export Plug-In . SVG Version: 6.00 Build 0)  -->
<!DOCTYPE svg PUBLIC "-//W3C//DTD SVG 1.1//EN" "http://www.w3.org/Graphics/SVG/1.1/DTD/svg11.dtd">
<svg version="1.1" id="water" xmlns="http://www.w3.org/2000/svg" xmlns:xlink="http://www.w3.org/1999/xlink" x="0px" y="0px"
	 width="800px" height="600px" viewBox="0 0 800 600" enable-background="new 0 0 800 600" xml:space="preserve">
<g>
	<path fill="#D8D8D8" d="M208.238,68.722l48.609,460.677c0,23.314,64.181,42.212,143.354,42.212s143.354-18.897,143.354-42.212
		l48.207-460.677"/>
	<path fill="#D1E4E5" d="M217.689,79.524l46.21,418.458c0,21.176,61.015,38.341,136.28,38.341s136.279-17.165,136.279-38.341
		l45.828-418.458"/>
	<path fill="#EFEFEF" d="M591.762,74.123c0,22.275-85.854,40.332-191.764,40.332c-105.905,0-191.76-18.057-191.76-40.332
		s85.854-40.332,191.76-40.332C505.908,33.791,591.762,51.848,591.762,74.123z"/>
	<path fill="#E0E0E0" d="M591.762,68.722c0,22.275-85.854,40.332-191.764,40.332c-105.905,0-191.76-18.057-191.76-40.332
		c0-22.274,85.854-40.332,191.76-40.332C505.908,28.39,591.762,46.447,591.762,68.722z"/>
	<path fill="#C0FFFD" d="M233.893,226.252l30.007,271.73c0,21.176,61.015,38.341,136.28,38.341s136.279-17.165,136.279-38.341
		l30.403-277.948"/>
	<path fill="#CFFEFF" d="M565.862,228.136c0,19.339-74.536,35.015-166.486,35.015c-91.945,0-166.483-15.676-166.483-35.015
		c0-19.34,74.538-35.016,166.483-35.016C491.326,193.12,565.862,208.796,565.862,228.136z"/>
	<path fill="#C0FFFD" d="M566.862,220.034c0,19.339-74.536,35.016-166.486,35.016c-91.945,0-166.483-15.677-166.483-35.016
		c0-19.34,74.538-35.016,166.483-35.016C492.326,185.019,566.862,200.694,566.862,220.034z"/>
	<path fill="#DEFFFF" d="M399.987,279.975c0,0,103.78,2.297,151.126-20.874l-19.289,234.476
		C531.824,493.576,519.79,286.99,399.987,279.975z"/>
	<path fill="#EFEFEF" d="M399.998,33.791c101.594,0,184.719,16.615,191.326,37.632c0.28-0.893,0.438-1.793,0.438-2.701
		c0-22.274-85.854-40.332-191.764-40.332c-105.905,0-191.76,18.058-191.76,40.332c0,0.908,0.157,1.809,0.438,2.701
		C215.283,50.406,298.409,33.791,399.998,33.791z"/>
</g>
</svg>
