<?xml version="1.0" encoding="utf-8"?>
<!-- Generator: Adobe Illustrator 16.0.3, SVG Export Plug-In . SVG Version: 6.00 Build 0)  -->
<!DOCTYPE svg PUBLIC "-//W3C//DTD SVG 1.1//EN" "http://www.w3.org/Graphics/SVG/1.1/DTD/svg11.dtd">
<svg version="1.1" id="Layer_3" xmlns="http://www.w3.org/2000/svg" xmlns:xlink="http://www.w3.org/1999/xlink" x="0px" y="0px"
	 width="800px" height="600px" viewBox="0 0 800 600" enable-background="new 0 0 800 600" xml:space="preserve">
<g>
	<path fill="#FFDBB2" d="M624.278,333.987c-55.597,197.705-61.594,250.745-210.31,249.289
		c-122.573-1.196-149.25-27.437-229.54-250.56C134.959,195.242,265.247,68.17,413.969,68.17
		C562.688,68.17,663.831,193.337,624.278,333.987z"/>
	<g>
		<path fill="#FFFFFF" d="M560.653,324.288c0,14.24-21.519,25.783-48.065,25.783c-26.541,0-48.065-11.543-48.065-25.783
			c0-14.239,21.524-25.785,48.065-25.785C539.135,298.503,560.653,310.049,560.653,324.288z"/>
		<path fill="#6EF9AD" d="M537.896,325.666c0,13.477-11.571,24.405-25.848,24.405s-25.853-10.929-25.853-24.405
			c0-13.479,11.576-24.408,25.853-24.408S537.896,312.187,537.896,325.666z"/>
		<path d="M522.726,325.725c0,5.973-4.714,10.814-10.527,10.814c-5.811,0-10.527-4.842-10.527-10.814
			c0-5.971,4.717-10.813,10.527-10.813C518.012,314.912,522.726,319.754,522.726,325.725z"/>
	</g>
	<path fill="#FAA191" d="M386.658,409.22l-2.108-4.673c0.282-0.268,28.447-25.75,55.04,0.03l-2.179,4.609
		C412.99,385.503,386.919,408.981,386.658,409.22z"/>
	<path fill="#F4E5A6" d="M408.406,57.732"/>
	<path fill="#606060" d="M316.42,458.872c-0.115-0.926,83.191,26.636,179.604,7.725c0,0,10.714,62.814-43.253,67.683
		C446.884,534.812,327.776,549.871,316.42,458.872z"/>
	<path fill="#FFFFFF" d="M496.158,483.926c-1.448,1.748-45.572,28.022-178.145-7.976l-2.797-18.076
		c-2.985-0.501,133.584,25.069,181.806,7.519L496.158,483.926z"/>
	<path fill="#FFBA7B" d="M368.429,330.297c0,0-68.923-33.668-95.556-8.45c0,0-2.181,10.176,7.157,6.251
		C280.031,328.098,327.063,314.878,368.429,330.297z"/>
	<path fill="#FFBA7B" d="M300.802,334.65c0,0-3.363-4.08-8.815,0.925c-3.492,3.205-0.556,3.368-0.556,3.368
		c-5.705-3.339,34.743,23.517,81.95-2.657c0,0,1.911-5.061-6.613-1.367C366.769,334.919,332.148,353.215,300.802,334.65z"/>
	<path fill="#FFBA7B" d="M300.555,305.834c0,0-4.85,3.544-8.113-3.489c-2.093-4.503,0.797-3.86,0.797-3.86
		c-6.809,2.065,42.739-16.089,77.793,25.937c0,0-0.168,6.104-6.907-0.351C358.704,317.861,342.64,292.818,300.555,305.834z"/>
	<path fill="#936148" d="M570.959,280.391c-63.992-27.523-114.031,3.928-114.522,4.253l-9.078-14.098
		c2.318-1.506,58.132-36.559,130.219-5.561L570.959,280.391z"/>
	<path fill="#936148" d="M258.117,285.358c67.079-18.781,112.5,19.037,112.943,19.424l10.868-12.766
		c-2.097-1.803-52.76-43.957-128.324-22.805L258.117,285.358z"/>
	<path fill="#FFBA7B" d="M257.711,311.375c0,0-32.613-18.628-31.654-23.462C226.057,287.913,248.119,316.649,257.711,311.375z"/>
	<path fill="#FFBA7B" d="M258.364,320.578c0,0-36.575,8.529-39.161,4.334C219.203,324.912,254.922,330.969,258.364,320.578z"/>
	<path fill="#FFBA7B" d="M257.279,318.311c0,0-36.368-9.377-36.716-14.295C220.563,304.016,249.415,325.925,257.279,318.311z"/>
	<ellipse fill="#FFDBB2" cx="185.434" cy="342.534" rx="36.434" ry="37.069"/>
	<ellipse fill="#FFDBB2" cx="613.741" cy="345.076" rx="36.434" ry="37.069"/>
	<path fill="#936148" d="M167.305,305.07c0,0,13.892,65.222,31.156,11.538c0,0,19.383-153.923,85.339-159.11
		c0,0,154.95,55.297,264.25-0.029c0,0,44.92-44.062,65.678,160.37c0,0,11.412,41.528,23.715-3.122
		c0,0,62.232-253.718-197.854-297.718h-46.146C393.444,17,160.191,21.303,167.305,305.07z"/>
</g>
</svg>
