<?xml version="1.0" encoding="utf-8"?>
<!-- Generator: Adobe Illustrator 16.0.3, SVG Export Plug-In . SVG Version: 6.00 Build 0)  -->
<!DOCTYPE svg PUBLIC "-//W3C//DTD SVG 1.1//EN" "http://www.w3.org/Graphics/SVG/1.1/DTD/svg11.dtd">
<svg version="1.1" id="yak" xmlns="http://www.w3.org/2000/svg" xmlns:xlink="http://www.w3.org/1999/xlink" x="0px" y="0px"
	 width="800px" height="600px" viewBox="0 0 800 600" enable-background="new 0 0 800 600" xml:space="preserve">
<g>
	<path fill="#C1BFAE" d="M633.819,163.959c0,0,6.706,22.928,11.528,23.795c0,0,57.397-10.15,52.075-32.73
		c0,0-10.405-102.813-48.002-131.608c0,0-2.49,5.101,2.839,32.018c0,0,19.628,94.629,10.014,103.851
		C662.273,159.284,648.267,159.982,633.819,163.959z"/>
	<path fill="#775B43" d="M432.538,446.059c0,0,28.129-15.838,53.913-11.18c0,0,12.502,90.842,23.44,107.148
		c0,0-23.44,8.853-38.678,12.113C471.214,554.141,427.069,476.807,432.538,446.059z"/>
	<path fill="#595959" d="M471.214,554.141c0,0-7.107,9.781-0.232,15.839c0,0,61.566,2.795,65.474,0c0,0-0.78-27.487-26.563-27.952
		L471.214,554.141z"/>
	<path fill="#775B43" d="M514.58,437.674c0,0,28.128-15.84,53.911-11.182c0,0,12.504,90.844,23.44,107.15
		c0,0-23.44,8.852-38.676,12.111C553.256,545.754,509.111,468.421,514.58,437.674z"/>
	<path fill="#595959" d="M553.256,545.754c0,0-7.108,9.783-0.234,15.841c0,0,61.568,2.795,65.476,0c0,0-0.78-27.487-26.565-27.952
		L553.256,545.754z"/>
	<path fill="#775B43" d="M82.826,440.495c0,0,29.681-17.222,56.888-12.157c0,0,13.193,98.775,24.733,116.504
		c0,0-24.733,9.626-40.811,13.171C123.637,558.013,77.056,473.928,82.826,440.495z"/>
	<path fill="#595959" d="M123.637,558.013c0,0-7.5,10.637-0.246,17.222c0,0,64.964,3.039,69.087,0c0,0-0.824-29.886-28.031-30.393
		L123.637,558.013z"/>
	<path fill="#775B43" d="M169.394,431.377c0,0,29.681-17.222,56.888-12.157c0,0,13.194,98.775,24.734,116.505
		c0,0-24.734,9.625-40.811,13.17C210.205,548.895,163.624,464.81,169.394,431.377z"/>
	<path fill="#595959" d="M210.205,548.895c0,0-7.501,10.636-0.247,17.223c0,0,64.966,3.038,69.087,0c0,0-0.824-29.888-28.029-30.393
		L210.205,548.895z"/>
	<path fill="#A37E58" d="M564.126,536.992l23.227-37.147l31.334,33.669c14.876-44.623-32.14-262.58-30.524-255.673
		c-233.783-74.429-439.925,0.066-439.925,0.066c-89.696,83.97-68.052,259.578-68.052,259.578s43.429-32.943,39.612-38.667
		c0,0,17.094,30.104,28.545,38.691c0,0,38.244-32.592,38.244-39.271c0,0,27.078,35.463,34.71,39.278
		c0,0,30.231-29.369,33.092-37.958c0,0,22.1,26.51,40.23,37.96c0,0,31.852-28.264,36.623-33.989c0,0,20.763,29.219,34.123,33.989
		c0,0,34.064-31.718,35.02-36.489c0,0,27.673,33.626,36.26,36.489c0,0,18.93-28.495,28.474-36.128c0,0,14.753,32.312,39.563,36.128
		c0,0,23.053-28.242,22.021-33.967L564.126,536.992z"/>
	<path fill="#CDBB99" d="M561.005,463.649l22.903-27.824l30.9,25.219c14.668-33.423-32.347-187.182-27.164-185.623
		c-227.287-68.328-436.76-5.829-436.76-5.829c-88.45,62.895-67.106,194.427-67.106,194.427s42.826-24.676,39.062-28.962
		c0,0,16.857,22.547,28.149,28.98c0,0,37.711-24.411,37.711-29.415c0,0,26.703,26.563,34.231,29.42c0,0,29.81-21.998,32.633-28.432
		c0,0,21.792,19.856,39.67,28.433c0,0,31.41-21.17,36.114-25.458c0,0,20.476,21.885,33.648,25.458c0,0,33.594-23.757,34.535-27.33
		c0,0,27.289,25.187,35.757,27.33c0,0,18.667-21.342,28.078-27.06c0,0,14.548,24.201,39.013,27.06c0,0,22.734-21.154,21.718-25.44
		L561.005,463.649z"/>
	<path fill="#A37E58" d="M615.472,370.913c0,0-14.594-85.456-20.479-95.492c0,0-152.343-45.858-230.226-30.643
		c0,0-3.706,41.658,6.507,51.824c0,0,43.001-16.847,42.512-21.256c0,0-1.831,46.814,7.964,54.651L451,315.085v51.757l36.384-3.696
		c0,0,15.646,46.036,22.015,55.141l25.374-27.139l18.525,27.139c0,0,19.309-14.725,23.128-24.569
		c0.268-0.691,29.487,25.225,29.584,24.581C606.01,418.298,620.552,399.303,615.472,370.913z"/>
	<path fill="#C1BFAE" d="M568.459,169.837c0,0-6.706,22.928-11.529,23.795c0,0-57.397-10.151-52.075-32.73
		c0,0,10.405-102.813,48.002-131.608c0,0,2.49,5.101-2.838,32.018c0,0-19.629,94.629-10.014,103.851
		C540.005,165.162,554.011,165.86,568.459,169.837z"/>
	<path fill="#CDBB99" d="M722.092,180.647c-53.275-3.899-71.323,15.683-77.238,26.835c-15.737-6.139-47.811-13.957-89.528,0.414
		c-8.039-11.196-27.629-25.998-74.579-22.562c0,0-2.615,36.513,57.568,56.621c-4.95,33.244-10.475,84.778-0.118,100.145
		c15.684,23.271,94.609,27.825,123.448,2.528c19.877-17.435,9.47-73.566,1.082-106.769
		C724.762,217.886,722.092,180.647,722.092,180.647z"/>
	<path fill="#936B4D" d="M530.8,314.342c0,0-15.313,48.011,67.064,47.894c82.381-0.116,75.781-39.779,75.781-46.314
		S595.937,279.187,530.8,314.342z"/>
	<circle fill="#444444" cx="567.065" cy="273.719" r="8.083"/>
	<path fill="#A37E58" d="M535.831,218.508c0,0-12.383,67.848,9.305,58.554c0,0,17.498-8.419,18.335-28.84
		c0,0,3.113,29.038,14.661,29.712c0,0,19.684,5.578,20.94-29.712c0,0,0.835,30.7,17.17,26.053c0,0,20.942-0.666,20.522-25.893
		c0,0,11.349,25.956,20.461,24.641c0.589-0.083,1.169-0.284,1.735-0.61c9.334-5.384,11.307-2.787,10.472-39.965
		c0,0,0.696-85.506-63.102-81.789C606.331,150.661,546.3,144.155,535.831,218.508z"/>
	<circle fill="#70513D" cx="559.861" cy="329.692" r="12.389"/>
	<circle fill="#70513D" cx="643.622" cy="329.692" r="12.389"/>
	<circle fill="#444444" cx="636.131" cy="273.719" r="8.082"/>
	<circle fill="#FCFCFC" cx="633.833" cy="268.586" r="1.817"/>
	<circle fill="#FCFCFC" cx="564.767" cy="268.586" r="1.817"/>
</g>
</svg>
