<?xml version="1.0" encoding="utf-8"?>
<!-- Generator: Adobe Illustrator 16.0.3, SVG Export Plug-In . SVG Version: 6.00 Build 0)  -->
<!DOCTYPE svg PUBLIC "-//W3C//DTD SVG 1.1//EN" "http://www.w3.org/Graphics/SVG/1.1/DTD/svg11.dtd">
<svg version="1.1" id="yoga" xmlns="http://www.w3.org/2000/svg" xmlns:xlink="http://www.w3.org/1999/xlink" x="0px" y="0px"
	 width="800px" height="600px" viewBox="0 0 800 600" enable-background="new 0 0 800 600" xml:space="preserve">
<g>
	<g>
		<path fill="#FFDBB2" d="M655.464,458.384c8.906,6.373,17.946-2.761,23.091-9.952l0,0c5.145-7.192,9.11-18.597,0.204-24.966
			l-34.827-19.479c-8.906-6.37-20.297-5.705-25.441,1.485l0,0c-5.142,7.193-2.091,18.187,6.815,24.558L655.464,458.384z"/>
		<path fill="#FFDBB2" d="M144.536,461.646c-8.907,6.372-17.948-2.762-23.091-9.953l0,0c-5.144-7.192-9.11-18.597-0.203-24.966
			l34.825-19.479c8.907-6.371,20.298-5.706,25.441,1.484l0,0c5.143,7.193,2.092,18.187-6.815,24.558L144.536,461.646z"/>
		<rect x="328" y="422" fill="#706375" width="152" height="93"/>
		<ellipse fill="#FFDBB2" cx="401.917" cy="212.613" rx="73.041" ry="21.992"/>
		<path fill="#706375" d="M367.584,486.249c-1.673,18-14.371,31.542-28.353,30.244l-157.182-14.612
			c-13.988-1.296-23.968-16.948-22.294-34.951l0,0c1.673-18.002,14.368-31.541,28.354-30.244L345.291,451.3
			C359.274,452.599,369.258,468.249,367.584,486.249L367.584,486.249z"/>
		<path fill="#706375" d="M437.178,486.249c1.673,18,14.371,31.542,28.354,30.244l157.185-14.612
			c13.986-1.296,23.965-16.948,22.292-34.951l0,0c-1.673-18.002-14.369-31.541-28.352-30.244L459.472,451.3
			C445.488,452.599,435.504,468.249,437.178,486.249L437.178,486.249z"/>
		<path fill="#BAF7D2" d="M643.982,399.625l-77.817-60.479c-0.427-1.883-1.134-3.737-2.145-5.501l-56.17-121.384
			c-5.422-9.469-30.406-12.804-40.229-7.583c-72.97,35.23-123.66-1.054-123.66-1.054c-0.499-0.351-1.012-0.688-1.552-0.996
			c-9.576-5.483-35.106-2.165-48.764,21.695l-51.609,111.525l-78.784,64.756c-8.118,2.657-6.659,4.113,0,21.927
			c3.08,8.246,9.019,15.966,17.042,13.34l92.604-76.618c5.6-1.832,9.235-6.682,9.879-12.246l33.078-57.78l12.022,72.118
			c0,18.628-1.111,44.172-1.111,54.83c0,23.088,37.862,28.486,84.566,28.486c46.707,0,69.025-5.398,69.025-28.486
			c0-12.982,0.708-38.45,0.708-54.83l13.019-69.423l35.254,61.58c1.434,2.497,3.327,4.559,5.508,6.159
			c1.897,2.503,4.501,4.448,7.621,5.43l79.918,67.535c8.057,2.525,14.218-6.76,16.507-15.255
			C641.178,408.87,652.042,402.151,643.982,399.625z"/>
		<path fill="#826F87" d="M422.754,543.256l-231.961-41.799c-20.062-4.542-32.604-20.808-28.008-36.329l0,0
			c4.597-15.522,24.592-24.427,44.653-19.88l222.726,62.886C430.164,508.134,432.224,526.406,422.754,543.256z"/>
		<path fill="#EFCDAC" d="M503.138,529.975c12.202,5.842,16.322,22.633,10.694,34.393l-0.143,0.297
			c-5.628,11.76-21.292,19.082-33.494,13.24l-56.885-36.531c-12.203-5.84-12.095-11.307-6.464-23.068l0.14-0.297
			c5.631-11.761,9.821-15.273,22.021-9.431L503.138,529.975z"/>
		<path fill="#88768E" d="M376.024,518.2l224.475-71.862c19.85-5.395,38.556,3.09,41.774,18.954l0,0
			c3.217,15.863-10.266,33.104-30.116,38.5l-226.208,48.901C385.949,552.693,375.561,537.523,376.024,518.2z"/>
		<path fill="#FFDBB2" d="M322.491,585.139c-12.757,4.504-27.549-4.447-31.891-16.738l-0.109-0.309
			c-4.342-12.295,1.546-28.553,14.302-33.057l66.046-14.432c12.755-4.508,16.546-0.57,20.889,11.727l0.11,0.309
			c4.342,12.295,3.867,17.744-8.89,22.246L322.491,585.139z"/>
		<path fill="#FFDBB2" d="M466.142,112.192c-16.663,59.253-18.461,75.15-63.031,74.713c-36.737-0.358-44.731-8.223-68.794-75.094
			C319.49,70.61,358.538,32.525,403.11,32.525C447.682,32.525,477.995,70.039,466.142,112.192z"/>
		<path fill="#FAA191" d="M394.925,134.74l-0.633-1.401c0.085-0.08,8.526-7.717,16.496,0.009l-0.651,1.381
			C402.816,127.632,395.004,134.668,394.925,134.74z"/>
		<path fill="#F4E5A6" d="M406.118,37.814"/>
		<path fill="#936148" d="M450.161,96.129c-19.181-8.249-34.176,1.177-34.324,1.274l-2.72-4.225
			c0.694-0.451,17.422-10.957,39.027-1.667L450.161,96.129z"/>
		<ellipse fill="#FFDBB2" cx="334.617" cy="114.754" rx="10.919" ry="11.11"/>
		<ellipse fill="#FFDBB2" cx="462.983" cy="115.516" rx="10.919" ry="11.11"/>
		<path fill="#936148" d="M388.431,96.129c-19.179-8.249-34.175,1.177-34.323,1.274l-2.721-4.225
			c0.694-0.451,17.422-10.957,39.027-1.667L388.431,96.129z"/>
		<path fill="#FFBA7B" d="M372.945,115.63c-9.031,0-15.864-5.156-15.966-5.234l1.712-2.223c0.558,0.43,13.84,10.379,27.281,0.002
			l1.716,2.221C382.603,114.321,377.495,115.63,372.945,115.63z"/>
		<path fill="#FFBA7B" d="M432.805,115.63c-9.03,0-15.865-5.156-15.967-5.234l1.713-2.223c0.559,0.43,13.842,10.379,27.281,0.002
			l1.715,2.221C442.461,114.321,437.354,115.63,432.805,115.63z"/>
		<rect x="387" y="161" fill="#EA7D7D" width="31" height="3"/>
		<rect x="383" y="180" fill="#FFDBB2" width="40" height="19"/>
	</g>
	<path fill="#936148" d="M331.116,97.404c0,0,3.549,28.628,8.883,32.491c0,0,3.521,4.595,0.202-9.818c0,0,0.87-42.319,6.334-48.319
		c0,0,17.443-15.861-1.209-19.333C345.326,52.424,318.566,41.05,331.116,97.404z"/>
	<path fill="#936148" d="M471.362,97.404c0,0-3.55,28.628-8.884,32.491c0,0-3.521,4.595-0.201-9.818c0,0,0.13-42.319-5.334-48.319
		c0,0-36.117-12-28.791-13.333C428.152,58.424,483.912,41.05,471.362,97.404z"/>
	<path fill="#936148" d="M344.536,67.757c0,0,98.096,14,117.447,0c0,0,26.685-27.797,17.018-39.232c0,0-18.044-18.768-27.855-14.102
		c0,0-7.144,4.203-8.478,14.102C442.667,28.525,329.071,13.757,344.536,67.757z"/>
</g>
</svg>
