<?xml version="1.0" encoding="utf-8"?>
<!-- Generator: Adobe Illustrator 16.0.3, SVG Export Plug-In . SVG Version: 6.00 Build 0)  -->
<!DOCTYPE svg PUBLIC "-//W3C//DTD SVG 1.1//EN" "http://www.w3.org/Graphics/SVG/1.1/DTD/svg11.dtd">
<svg version="1.1" id="zebra" xmlns="http://www.w3.org/2000/svg" xmlns:xlink="http://www.w3.org/1999/xlink" x="0px" y="0px"
	 width="800px" height="600px" viewBox="0 0 800 600" enable-background="new 0 0 800 600" xml:space="preserve">
<g>
	<path fill="#4A4135" d="M536.113,515.296l25.043,38.847c0,0-54.745,18.378-74.27-3.417c0,0,9.288-25.559,19.425-31.581
		L536.113,515.296"/>
	<path fill="#635652" d="M505.617,530.72l32.367,37.748c0,0-58.018,25.278-82.205,4.707c0,0,7.074-27.707,17.496-35.12
		L505.617,530.72"/>
	<path fill="#635652" d="M172.58,526.855l16.009,43.356c0,0-57.429,6.052-71.755-19.463c0,0,14.616-22.933,25.82-26.609
		L172.58,526.855"/>
	<path fill="#CCCCCC" d="M288.709,342.431c0,0,1.351,64.618-25.257,91.44c0,0,9.142,51.129,37.698,83.129h-33.32
		c0,0-29.634-74.438-28.985-79.512c0.649-5.072,0.65-37.938,12.331-40.837l-24.013-59.564l42.186-32.553L288.709,342.431z"/>
	<path fill="#CCCCCC" d="M539.63,323.739l-16.521,109.901c0,0-9.338,61.458,11.493,81.011c0,0-13.648,25.3-44.536,11.651
		c0,0,17.958-68.958,13.647-90.507c0,0-16.521-79.733-9.338-88.353L539.63,323.739z"/>
	<path fill="#5B5B5B" d="M91.26,336.468c0,0,9.985,70.717-64.27,90.091C26.99,426.559,35.559,346.155,91.26,336.468z"/>
	<path fill="#E5E5E5" d="M503.874,355.103c81.221-16.653,89.629-97.448,89.629-97.448l55.31-54.591L635.884,89.569
		c-57.465,38.07-189.634,61.057-189.634,61.057c-123.55,59.62-148.691,30.888-148.691,30.888
		c-150.845-74.704-167.366,81.169-167.366,81.169c35.916,112.057,26.578,124.269,26.578,124.269
		c-29.45,12.93-36.634,34.479-36.634,34.479c40.943,42.381,7.901,94.098,7.901,94.098c15.802,25.859,49.564,10.057,49.564,10.057
		c-31.605-34.479-19.396-89.789-19.396-89.789c72.549-33.761,96.255-102,96.255-102S422.521,371.783,503.874,355.103z"/>
	<path fill="#E5E5E5" d="M510.897,342l-26.578,100.053c0,0-13.647,53.978,13.289,78.4c0,0,19.169,12.982-1.729,20.165
		c0,0-35.983,15.332-30.236-10.279c0,0-33.042-22.933-10.056-55.975L457.743,342H510.897z"/>
	<path fill="#E5E5E5" d="M148.801,215.098c0,0-33.016-1.957-48.216,110.573c0,0-8.219,23.704-17.236,27.108
		c0,0-5.621-8.521,6.171-31.86c0,0,12.458-127.974,66.763-122.381C210.586,204.131,148.801,215.098,148.801,215.098z"/>
	<path fill="#4A4135" d="M297.21,509.339l26.782,37.668c0,0-53.854,20.847-74.348-0.038c0,0,8.116-25.955,17.969-32.432
		L297.21,509.339"/>
	<path fill="#5B5B5B" d="M152.712,388.854c0,0-1.632,27.438,11.814,31.831c0,0-20.721,4.417-38.384-9.96
		C126.142,410.726,141.636,391.684,152.712,388.854z"/>
	<path fill="#5B5B5B" d="M457,396.034c0,0,7.107,12.837,24.771,14.691c0,0-18.771,3.324-24.771,4.061V396.034z"/>
	<path fill="#5B5B5B" d="M457,427.008c0,0,7.107,12.837,24.771,14.691c0,0-18.771,3.324-24.771,4.061V427.008z"/>
	<path fill="#E5E5E5" d="M627.018,82.4c0,0-48.845,115.648,7.183,147.254c0,0,25.141,23.705,38.789,34.479
		c0,0,12.56,35.197,43.272,35.197c0,0,27.841-5.042,14.911-53.88c0,0-7.428-40.852-6.588-57.774c0,0,17.362-47.092,2.996-79.416
		c0,0-13.648-40.226-45.972-55.31C681.609,52.95,637.943,50.04,627.018,82.4z"/>
	<path fill="#E5E5E5" d="M696.751,81.639c0,0-6.464-35.916,76.859-58.183c0,0-31.976,66.803-55.136,76.859
		C718.475,100.315,703.29,94.716,696.751,81.639z"/>
	<path fill="#ADADAD" d="M679.476,247.369c0,0-63.594-9.968-64.929-126.824c0,0-19.496,59.96,0,87.918
		c0,0,6.582,15.935,22.377,23.742l36.065,31.928L679.476,247.369z"/>
	<path fill="#5B5B5B" d="M672.989,264.133c0,0,10.225,31.411,38.436,34.892c0,0,35.473,3.348,18.552-60.516
		C729.977,238.509,672.848,229.024,672.989,264.133z"/>
	<path fill="#5B5B5B" d="M621.182,98.194c6.433-30.566,32.986-41.354,32.986-41.354c3.146-1.188,5.504-19.392,5.504-19.392
		c-2.155,7.902,11.272,16.006,11.272,16.006c3.379-0.232,2.045-26.062,2.045-26.062c-0.539,2.155,8.62,25.557,8.62,25.557
		c3.031-5.33,9.898-34.177,9.898-34.177c7.183-0.718,5.127,34.11,5.127,34.11c6.413-4.401,13.549-34.11,13.549-34.11
		c8.619,25.859,7.901,76.141,7.901,76.141s-56.687,5.168-62.927-10.058C641.109,50.576,621.182,98.194,621.182,98.194z"/>
	<path fill="#5B5B5B" d="M636.197,81.984c0,0-17.589,0.718-28.907-3.592c0,0-62.946,23.705-67.66,30.888
		c0,0-37.757,25.14-38.476,35.197c0,0,107.15-33.888,127.86-44.162S636.197,81.984,636.197,81.984z"/>
	<path fill="#E5E5E5" d="M657.343,82.745c0,0,6.464-35.915-76.859-58.183c0,0,31.977,66.803,55.136,76.859
		C635.619,101.421,650.804,95.822,657.343,82.745z"/>
	<path fill="#5B5B5B" d="M644.214,90.949c0,0-38.968-48.409-48.846-52.437C595.368,38.512,632.981,110.594,644.214,90.949z"/>
	<g>
		<circle fill="#333333" cx="657.797" cy="160.661" r="9.029"/>
		<circle fill="#FFFFFF" cx="655.75" cy="154.669" r="2.048"/>
	</g>
	<g>
		<circle fill="#333333" cx="723.063" cy="160.661" r="9.029"/>
		<circle fill="#FFFFFF" cx="721.015" cy="154.669" r="2.048"/>
	</g>
	
		<ellipse transform="matrix(-0.9832 -0.1825 0.1825 -0.9832 1331.8251 653.9059)" fill="#333333" cx="696.007" cy="265.659" rx="6.283" ry="8.929"/>
	<path fill="#5B5B5B" d="M686.112,89.569c0,0-13.529,93.651,25.4,155.599C711.513,245.168,707.696,131.471,686.112,89.569z"/>
	<path fill="#5B5B5B" d="M607.29,189.87c0,0,2.667-25.221,18.89-29.209c0,0-10.386,51.985-4.998,58.171
		C621.182,218.832,608.627,202.498,607.29,189.87z"/>
	<path fill="#5B5B5B" d="M633.924,230.562c0,0,8.951-25.217,19.777-26.692c0,0-11.564,26.642,0,43.188
		C653.701,247.058,643.143,241.767,633.924,230.562z"/>
	<path fill="#5B5B5B" d="M231.635,160.661c0,0,16.962,136.131,48.673,166.367c0,0-22.188-156.12-10.726-157.338L231.635,160.661z"/>
	<path fill="#5B5B5B" d="M280.308,173.718c0,0,1.28,133.923,20.843,153.309c0,0-18.608-135.089,11.617-139.448L280.308,173.718z"/>
	<path fill="#5B5B5B" d="M323.992,189.746c0,0-21.213,109.257,0,141.706c0,0,4.847-141.387,21.746-144.996
		C345.738,186.456,330.065,187.422,323.992,189.746z"/>
	<path fill="#5B5B5B" d="M354.947,184.67c0,0-22.15,124.342-12.996,165.061l17.265,3.049c0,0,2.582-113.833,49.779-127.315
		c0,0,56.313-78.391,46.784-76.615l-18.045,5.82c0,0-49.019,65.113-57.869,64.163c0,0-20.648-1.434-7.005-38.803L354.947,184.67z"/>
	<path fill="#5B5B5B" d="M392.045,173.718l10.759-4.029c0,0-15.195,26.847-18.329,28.67
		C384.475,198.36,384.834,176.419,392.045,173.718z"/>
	<path fill="#5B5B5B" d="M435.166,358.996c-41.527-22.528,12.289-145.539,12.289-145.539
		c-70.317,37.611-74.964,139.322-74.964,139.322"/>
	<path fill="#5B5B5B" d="M501.154,371.275c0,0-62.773-44.987-13.122-165.193c0,0-14.845,148.287,36.209,141.253
		C524.241,347.335,510.897,358.996,501.154,371.275z"/>
	<path fill="#5B5B5B" d="M537.984,342.143c0,0-54.873-68.432-18.737-166.037c0,0,9.335,155.646,41.909,148.491L537.984,342.143z"/>
	<path fill="#5B5B5B" d="M570.847,313.146c0,0-35.375-41.23-27.263-62.347c0,0,20.702,47.161,36.899,43.258
		C580.483,294.057,578.936,311.063,570.847,313.146z"/>
	<path fill="#5B5B5B" d="M587.349,281.972c0,0-47.657-39.016-44.974-72.202c0,0,31.725,51.521,51.128,47.884L587.349,281.972z"/>
	<path fill="#5B5B5B" d="M600.448,250.799c0,0-49.934-32.398-39.019-101.979c0,0,14.589,68.963,52.652,88.522L600.448,250.799z"/>
	<path fill="#5B5B5B" d="M155.789,358.996c0,0,26.436-35.257,93.855-39.264c0,0-56.072-36.156-101.569,4.007"/>
	<path fill="#5B5B5B" d="M141.396,299.331c0,0,26.817-30.512,103.514-19.844c0,0-52.542-45.295-112.554-29.114l-2.163,12.31
		L141.396,299.331z"/>
	<path fill="#5B5B5B" d="M142.687,218.832c0,0,50.6-17.34,92.636,18.51c0,0,0.901-24.286-56.703-63.171
		C178.62,174.171,148.922,188.294,142.687,218.832z"/>
</g>
</svg>
