<?xml version="1.0" encoding="utf-8"?>
<!-- Generator: Adobe Illustrator 16.0.3, SVG Export Plug-In . SVG Version: 6.00 Build 0)  -->
<!DOCTYPE svg PUBLIC "-//W3C//DTD SVG 1.1//EN" "http://www.w3.org/Graphics/SVG/1.1/DTD/svg11.dtd">
<svg version="1.1" id="zip" xmlns="http://www.w3.org/2000/svg" xmlns:xlink="http://www.w3.org/1999/xlink" x="0px" y="0px"
	 width="800px" height="600px" viewBox="0 0 800 600" enable-background="new 0 0 800 600" xml:space="preserve">
<g>
	<g>
		<g id="XMLID_4_">
			<g>
				<path fill="#BABABA" d="M418.009,538.762l-0.629-0.166c1.035-2.199,1.626-4.73,1.626-7.428c0-2.514-0.518-4.896-1.459-7.003
					l0.462-0.186c0,0,15.724,0.924,25.572-18.477h46.193v51.736h-46.193C433.732,537.838,418.009,538.762,418.009,538.762z"/>
				<path fill="#BABABA" d="M392.029,531.168c0-8.611,6.042-15.596,13.488-15.596c5.267,0,9.83,3.492,12.029,8.593
					c0.941,2.106,1.459,4.489,1.459,7.003c0,2.697-0.591,5.229-1.626,7.428c-2.291,4.859-6.744,8.167-11.862,8.167
					C398.071,546.763,392.029,539.778,392.029,531.168z"/>
			</g>
			<g>
			</g>
		</g>
	</g>
	<g>
		<g id="XMLID_3_">
			<g>
				<path fill="#BABABA" d="M489.683,447.388v51.736h-46.212c-9.83-19.401-25.536-18.478-25.536-18.478l-0.646-0.166
					c1.035-2.199,1.626-4.73,1.626-7.428c0-2.514-0.518-4.879-1.441-6.985l0.462-0.185c0,0,15.706,0.924,25.536-18.495H489.683z"/>
				<path fill="#BABABA" d="M391.937,473.053c0-8.611,6.042-15.577,13.489-15.577c5.266,0,9.849,3.492,12.047,8.592
					c0.924,2.106,1.441,4.472,1.441,6.985c0,2.697-0.591,5.229-1.626,7.428c-2.291,4.859-6.744,8.167-11.862,8.167
					C397.979,488.647,391.937,481.663,391.937,473.053z"/>
			</g>
			<g>
			</g>
		</g>
	</g>
	<g>
		<g id="XMLID_8_">
			<g>
				<path fill="#BABABA" d="M417.197,406.901c0,0,15.705,0.924,25.554-18.459h46.193v51.718h-46.193
					c-9.849-19.401-25.554-18.477-25.554-18.477l-0.647-0.167c1.035-2.198,1.626-4.729,1.626-7.428c0-2.513-0.517-4.896-1.459-7.003
					L417.197,406.901z"/>
				<path fill="#BABABA" d="M416.55,421.517c-2.291,4.859-6.744,8.167-11.862,8.167c-7.446,0-13.488-6.984-13.488-15.595
					s6.042-15.595,13.488-15.595c5.267,0,9.83,3.492,12.029,8.592c0.942,2.106,1.459,4.49,1.459,7.003
					C418.176,416.787,417.585,419.318,416.55,421.517z"/>
			</g>
			<g>
			</g>
		</g>
	</g>
	<g>
		<g id="XMLID_7_">
			<g>
				<path fill="#BABABA" d="M418.952,348.786c0,0,15.706,0.924,25.555-18.478H490.7v51.736h-46.193
					c-9.849-19.401-25.555-18.477-25.555-18.477l-0.646-0.167c1.035-2.198,1.626-4.73,1.626-7.428c0-2.513-0.518-4.896-1.46-7.003
					L418.952,348.786z"/>
				<path fill="#BABABA" d="M392.955,355.974c0-8.61,6.042-15.595,13.47-15.595c5.284,0,9.849,3.492,12.047,8.592
					c0.942,2.106,1.46,4.49,1.46,7.003c0,2.697-0.591,5.229-1.626,7.428c-2.291,4.859-6.744,8.167-11.881,8.167
					C398.997,371.568,392.955,364.584,392.955,355.974z"/>
			</g>
			<g>
			</g>
		</g>
	</g>
	<g>
		<g id="XMLID_6_">
			<g>
				<path fill="#BABABA" d="M418.905,291.003c0,0,15.706,0.924,25.555-18.478h46.193v51.736H444.46
					c-9.849-19.401-25.555-18.478-25.555-18.478l-0.646-0.147c1.035-2.217,1.626-4.73,1.626-7.428c0-2.531-0.518-4.915-1.46-7.021
					L418.905,291.003z"/>
				<path fill="#BABABA" d="M418.259,305.637c-2.291,4.841-6.744,8.148-11.862,8.148c-7.446,0-13.489-6.984-13.489-15.576
					c0-8.629,6.042-15.613,13.489-15.613c5.266,0,9.83,3.492,12.028,8.592c0.942,2.106,1.46,4.49,1.46,7.021
					C419.885,300.907,419.294,303.42,418.259,305.637z"/>
			</g>
			<g>
			</g>
		</g>
	</g>
	<g>
		<g id="XMLID_5_">
			<g>
				<path fill="#BABABA" d="M444.35,266.147c-9.83-19.401-25.536-18.478-25.536-18.478l-0.646-0.167
					c1.034-2.199,1.626-4.73,1.626-7.428c0-2.513-0.518-4.896-1.46-7.003l0.48-0.185c0,0,15.706,0.924,25.536-18.478h46.193v51.737
					H444.35z"/>
				<path fill="#BABABA" d="M418.167,247.503c-2.291,4.86-6.744,8.167-11.862,8.167c-7.447,0-13.489-6.984-13.489-15.595
					s6.042-15.595,13.489-15.595c5.266,0,9.83,3.492,12.028,8.592c0.942,2.106,1.46,4.49,1.46,7.003
					C419.793,242.773,419.201,245.304,418.167,247.503z"/>
			</g>
			<g>
			</g>
		</g>
	</g>
	<g>
		<g id="XMLID_13_">
			<g>
				<path fill="#BABABA" d="M465.8,136.599c1.776-1.777,3.083-3.815,3.92-5.958l0.47,0.183c0,0,10.452,11.759,31.135,5.004
					l32.664,32.664l-36.583,36.583l-32.664-32.664c6.755-20.683-5.004-31.135-5.004-31.135l-0.34-0.575
					C461.684,139.878,463.893,138.506,465.8,136.599z"/>
				<path fill="#BABABA" d="M469.72,130.641c-0.837,2.143-2.144,4.181-3.92,5.958c-1.907,1.908-4.116,3.28-6.402,4.103
					c-5.057,1.816-10.544,1.006-14.163-2.613c-5.265-5.266-4.599-14.477,1.489-20.565c6.089-6.089,15.3-6.755,20.565-1.49
					C471.026,119.771,471.771,125.48,469.72,130.641z"/>
			</g>
			<g>
			</g>
		</g>
	</g>
	<g>
		<g id="XMLID_12_">
			<g>
				<path fill="#BABABA" d="M510.891,88.426l0.471,0.183c0,0,10.452,11.759,31.135,5.004l32.664,32.664l-36.584,36.583
					l-32.663-32.664c6.755-20.683-5.004-31.135-5.004-31.135l-0.34-0.575c2.286-0.823,4.494-2.195,6.402-4.103
					C508.748,92.606,510.055,90.568,510.891,88.426z"/>
				<path fill="#BABABA" d="M487.896,75.308c6.089-6.089,15.3-6.755,20.565-1.49c3.736,3.737,4.481,9.446,2.43,14.607
					c-0.836,2.143-2.143,4.181-3.919,5.958c-1.908,1.907-4.116,3.279-6.402,4.103c-5.057,1.816-10.544,1.006-14.163-2.613
					C481.141,90.607,481.808,81.396,487.896,75.308z"/>
			</g>
			<g>
			</g>
		</g>
	</g>
	<g>
		<g id="XMLID_11_">
			<g>
				<path fill="#BABABA" d="M549.307,54.531c1.776-1.777,3.083-3.815,3.919-5.958l0.471,0.183c0,0,10.452,11.759,31.135,5.004
					l32.664,32.664l-36.583,36.583l-32.664-32.664c6.755-20.683-5.004-31.135-5.004-31.135l-0.34-0.575
					C545.19,57.811,547.398,56.439,549.307,54.531z"/>
				<path fill="#BABABA" d="M530.23,35.456c6.089-6.088,15.3-6.754,20.565-1.489c3.736,3.737,4.481,9.446,2.43,14.607
					c-0.836,2.143-2.143,4.181-3.919,5.958c-1.908,1.908-4.116,3.279-6.402,4.103c-5.057,1.816-10.544,1.006-14.163-2.613
					C523.476,50.755,524.143,41.544,530.23,35.456z"/>
			</g>
			<g>
			</g>
		</g>
	</g>
	<g>
		<g id="XMLID_23_">
			<g>
				<path fill="#BABABA" d="M386.673,528.688c9.849-19.401,25.555-18.478,25.555-18.478l0.646-0.166
					c-1.035-2.199-1.626-4.73-1.626-7.428c0-2.513,0.518-4.896,1.46-7.003l-0.48-0.185c0,0-15.706,0.924-25.555-18.478h-46.193
					v51.736H386.673z"/>
				<path fill="#BABABA" d="M424.736,518.211c7.446,0,13.488-6.984,13.488-15.595s-6.042-15.595-13.488-15.595
					c-5.266,0-9.83,3.492-12.028,8.592c-0.942,2.106-1.46,4.49-1.46,7.003c0,2.697,0.591,5.229,1.626,7.428
					C415.165,514.903,419.618,518.211,424.736,518.211z"/>
			</g>
			<g>
			</g>
		</g>
	</g>
	<g>
		<g id="XMLID_22_">
			<g>
				<path fill="#BABABA" d="M387.411,469.725c9.848-19.401,25.554-18.478,25.554-18.478l0.629-0.166
					c-1.035-2.199-1.626-4.73-1.626-7.429c0-2.513,0.517-4.896,1.44-7.003l-0.443-0.185c0,0-15.706,0.924-25.554-18.478h-46.193
					v51.737H387.411z"/>
				<path fill="#BABABA" d="M425.475,459.248c7.428,0,13.488-6.985,13.488-15.596s-6.061-15.595-13.488-15.595
					c-5.267,0-9.849,3.492-12.066,8.592c-0.924,2.106-1.44,4.49-1.44,7.003c0,2.698,0.591,5.229,1.626,7.429
					C415.885,455.94,420.356,459.248,425.475,459.248z"/>
			</g>
			<g>
			</g>
		</g>
	</g>
	<g>
		<g id="XMLID_21_">
			<g>
				<path fill="#BABABA" d="M385.655,359.891h-46.193v51.719h46.193c9.848-19.401,25.554-18.478,25.554-18.478l0.647-0.166
					c-1.035-2.199-1.626-4.73-1.626-7.429c0-2.513,0.517-4.896,1.459-7.003l-0.48-0.185
					C411.209,378.35,395.503,379.273,385.655,359.891z"/>
				<path fill="#BABABA" d="M410.23,385.537c0,2.698,0.591,5.229,1.626,7.429c2.291,4.859,6.744,8.167,11.862,8.167
					c7.428,0,13.488-6.985,13.488-15.596s-6.061-15.595-13.488-15.595c-5.267,0-9.83,3.492-12.029,8.592
					C410.747,380.641,410.23,383.024,410.23,385.537z"/>
			</g>
			<g>
			</g>
		</g>
	</g>
	<g>
		<g id="XMLID_20_">
			<g>
				<path fill="#BABABA" d="M411.903,335.182c-1.035-2.198-1.626-4.729-1.626-7.428c0-2.513,0.517-4.878,1.44-6.984l-0.479-0.203
					c0,0-15.688,0.924-25.536-18.478H339.49v51.737h46.212c9.849-19.401,25.536-18.478,25.536-18.478L411.903,335.182z"/>
				<path fill="#BABABA" d="M410.277,327.754c0,2.698,0.591,5.229,1.626,7.428c2.291,4.879,6.744,8.186,11.862,8.186
					c7.428,0,13.488-7.003,13.488-15.613s-6.061-15.595-13.488-15.595c-5.284,0-9.849,3.511-12.048,8.61
					C410.794,322.876,410.277,325.241,410.277,327.754z"/>
			</g>
			<g>
			</g>
		</g>
	</g>
	<g>
		<g id="XMLID_19_">
			<g>
				<path fill="#BABABA" d="M411.995,277.085c-1.035-2.217-1.626-4.749-1.626-7.428c0-2.531,0.518-4.915,1.46-7.021l-0.48-0.185
					c0,0-15.706,0.924-25.555-18.477h-46.193v51.736h46.193c9.849-19.401,25.555-18.477,25.555-18.477L411.995,277.085z"/>
				<path fill="#BABABA" d="M423.857,285.234c7.446,0,13.488-6.984,13.488-15.577c0-8.629-6.042-15.613-13.488-15.613
					c-5.266,0-9.83,3.492-12.028,8.592c-0.942,2.106-1.46,4.49-1.46,7.021c0,2.679,0.591,5.211,1.626,7.428
					C414.286,281.926,418.739,285.234,423.857,285.234z"/>
			</g>
			<g>
			</g>
		</g>
	</g>
	<g>
		<g id="XMLID_18_">
			<g>
				<path fill="#BABABA" d="M334.216,155.905l-32.664,32.664l36.583,36.583l32.664-32.664c-6.755-20.683,5.004-31.135,5.004-31.135
					l0.34-0.575c-2.286-0.823-4.495-2.195-6.402-4.103c-1.777-1.777-3.083-3.815-3.92-5.958l-0.47,0.183
					C365.351,150.901,354.898,162.66,334.216,155.905z"/>
				<path fill="#BABABA" d="M376.143,160.778c5.057,1.816,10.544,1.006,14.163-2.613c5.265-5.265,4.599-14.477-1.489-20.565
					c-6.089-6.088-15.3-6.755-20.565-1.489c-3.736,3.737-4.481,9.446-2.43,14.607c0.836,2.143,2.143,4.181,3.92,5.958
					C371.648,158.583,373.856,159.955,376.143,160.778z"/>
			</g>
			<g>
			</g>
		</g>
	</g>
	<g>
		<g id="XMLID_17_">
			<g>
				<path fill="#BABABA" d="M293.044,113.689l-32.664,32.664l36.583,36.583l32.664-32.664c-6.755-20.683,5.004-31.135,5.004-31.135
					l0.34-0.575c-2.287-0.823-4.495-2.195-6.402-4.103c-1.777-1.777-3.083-3.815-3.919-5.958l-0.47,0.183
					C324.179,108.686,313.727,120.444,293.044,113.689z"/>
				<path fill="#BABABA" d="M349.134,115.95c5.265-5.266,4.599-14.477-1.49-20.565c-6.088-6.088-15.299-6.755-20.565-1.489
					c-3.737,3.737-4.481,9.446-2.43,14.607c0.836,2.143,2.143,4.181,3.919,5.958c1.908,1.908,4.116,3.279,6.402,4.103
					C340.027,120.379,345.515,119.569,349.134,115.95z"/>
			</g>
			<g>
			</g>
		</g>
	</g>
	<g>
		<g id="XMLID_16_">
			<g>
				<path fill="#BABABA" d="M281.844,68.833c0,0-10.452,11.759-31.135,5.004l-32.664,32.664l36.583,36.583l32.664-32.664
					c-6.754-20.683,5.004-31.135,5.004-31.135l0.34-0.575c-2.287-0.823-4.495-2.195-6.402-4.103
					c-1.777-1.777-3.083-3.815-3.919-5.958L281.844,68.833z"/>
				<path fill="#BABABA" d="M284.745,54.043c-3.737,3.736-4.481,9.446-2.43,14.607c0.836,2.143,2.143,4.181,3.919,5.958
					c1.908,1.907,4.116,3.279,6.402,4.103c5.056,1.816,10.543,1.006,14.163-2.613c5.266-5.265,4.599-14.477-1.489-20.565
					S290.01,48.778,284.745,54.043z"/>
			</g>
			<g>
			</g>
		</g>
	</g>
	<path fill="#8B8B8B" d="M521.614,228.397c0-35.461-45.086-64.209-100.702-64.209S320.21,192.937,320.21,228.397
		c0,18.706,10.779,35.535,30.794,47.27c-0.146,1.625-2.004,3.267-2.004,4.93v75.756C349,386.968,377.364,415,407.977,415h18.479
		C457.069,415,479,386.968,479,356.353v-75.756c0-0.367,1.424-0.729,1.414-1.094C504.568,267.773,521.614,249.252,521.614,228.397z"
		/>
	<path fill="#9D9D9D" d="M471.327,323.186l-26.384-30.926c-19.87-23.289-54.157-26.661-77.445-6.791L191.352,407.817
		c-19.601,16.725-5.518,65.06,31.242,108.146c36.762,43.088,82.187,64.682,101.79,47.957l141.452-163.187
		C489.125,380.861,491.198,346.475,471.327,323.186z M319.496,531.056c-8.787,7.781-22.215,6.963-29.994-1.821l-71.046-80.236
		c-7.777-8.785-6.962-22.216,1.822-29.997c8.788-7.778,22.218-6.962,29.997,1.824l71.044,80.236
		C329.099,509.847,328.283,523.276,319.496,531.056z M435.692,392.445c-17.854,15.236-44.677,13.109-59.911-4.748l-9.593-11.244
		c-15.236-17.854-13.111-44.682,4.746-59.913c17.854-15.232,44.68-13.111,59.914,4.748l9.592,11.245
		C455.674,350.388,453.547,377.213,435.692,392.445z"/>
	<path fill="#808080" d="M447,340.127C447,357.729,432.729,372,415.126,372h-1.252C396.271,372,382,357.729,382,340.127v-57.254
		C382,265.27,396.271,251,413.874,251h1.252C432.729,251,447,265.27,447,282.873V340.127z"/>
</g>
</svg>
